EBGaramondVF-Expanded_Regular.ufo
<glyph name="numbersign" format="1">
  <advance width="604"/>
  <unicode hex="0023"/>
  <outline>
    <contour>
      <point x="99" y="-79" type="curve" smooth="yes"/>
      <point x="109" y="-79"/>
      <point x="128" y="-77"/>
      <point x="130" y="-66" type="curve" smooth="yes"/>
      <point x="174" y="113" type="line"/>
      <point x="333" y="119" type="line"/>
      <point x="290" y="-54" type="line"/>
      <point x="290" y="-58" type="line" smooth="yes"/>
      <point x="290" y="-63"/>
      <point x="293" y="-68"/>
      <point x="298" y="-68" type="curve" smooth="yes"/>
      <point x="308" y="-68"/>
      <point x="327" y="-66"/>
      <point x="330" y="-55" type="curve" smooth="yes"/>
      <point x="373" y="121" type="line"/>
      <point x="468" y="124" type="line" smooth="yes"/>
      <point x="491" y="125"/>
      <point x="500" y="164"/>
      <point x="500" y="174" type="curve" smooth="yes"/>
      <point x="500" y="181"/>
      <point x="494" y="187"/>
      <point x="487" y="187" type="curve"/>
      <point x="388" y="184" type="line"/>
      <point x="422" y="320" type="line"/>
      <point x="515" y="323" type="line" smooth="yes"/>
      <point x="538" y="324"/>
      <point x="547" y="364"/>
      <point x="547" y="374" type="curve" smooth="yes"/>
      <point x="547" y="381"/>
      <point x="541" y="386"/>
      <point x="534" y="386" type="curve"/>
      <point x="438" y="383" type="line"/>
      <point x="479" y="554" type="line"/>
      <point x="480" y="557"/>
      <point x="480" y="558"/>
      <point x="480" y="560" type="curve" smooth="yes"/>
      <point x="480" y="565"/>
      <point x="478" y="570"/>
      <point x="474" y="570" type="curve" smooth="yes"/>
      <point x="462" y="570"/>
      <point x="442" y="568"/>
      <point x="440" y="555" type="curve" smooth="yes"/>
      <point x="397" y="380" type="line"/>
      <point x="239" y="375" type="line"/>
      <point x="280" y="542" type="line" smooth="yes"/>
      <point x="280" y="545"/>
      <point x="281" y="547"/>
      <point x="281" y="550" type="curve" smooth="yes"/>
      <point x="281" y="555"/>
      <point x="279" y="559"/>
      <point x="273" y="559" type="curve" smooth="yes"/>
      <point x="262" y="559"/>
      <point x="243" y="556"/>
      <point x="240" y="542" type="curve" smooth="yes"/>
      <point x="198" y="373" type="line"/>
      <point x="94" y="370" type="line" smooth="yes"/>
      <point x="72" y="369"/>
      <point x="69" y="330"/>
      <point x="69" y="320" type="curve" smooth="yes"/>
      <point x="69" y="313"/>
      <point x="76" y="307"/>
      <point x="83" y="307" type="curve"/>
      <point x="183" y="310" type="line"/>
      <point x="149" y="174" type="line"/>
      <point x="47" y="171" type="line" smooth="yes"/>
      <point x="25" y="170"/>
      <point x="22" y="131"/>
      <point x="22" y="120" type="curve" smooth="yes"/>
      <point x="22" y="113"/>
      <point x="29" y="108"/>
      <point x="36" y="108" type="curve"/>
      <point x="134" y="111" type="line"/>
      <point x="91" y="-64" type="line"/>
      <point x="90" y="-69" type="line" smooth="yes"/>
      <point x="90" y="-74"/>
      <point x="93" y="-79"/>
    </contour>
    <contour>
      <point x="190" y="176" type="line"/>
      <point x="224" y="312" type="line"/>
      <point x="381" y="318" type="line"/>
      <point x="348" y="181" type="line"/>
    </contour>
  </outline>
</glyph>
<glyph name="dollar" format="1">
  <advance width="563"/>
  <unicode hex="0024"/>
  <outline>
    <contour>
      <point x="226" y="-82" type="curve" smooth="yes"/>
      <point x="238" y="-82"/>
      <point x="252" y="-78"/>
      <point x="253" y="-68" type="curve" smooth="yes"/>
      <point x="265" y="10" type="line" smooth="yes"/>
      <point x="266" y="15"/>
      <point x="269" y="17"/>
      <point x="274" y="17" type="curve" smooth="yes"/>
      <point x="418" y="18"/>
      <point x="519" y="92"/>
      <point x="519" y="195" type="curve" smooth="yes"/>
      <point x="519" y="277"/>
      <point x="453" y="323"/>
      <point x="333" y="368" type="curve" smooth="yes"/>
      <point x="318" y="375"/>
      <point x="318" y="379"/>
      <point x="319" y="387" type="curve" smooth="yes"/>
      <point x="348" y="579" type="line"/>
      <point x="348" y="581"/>
      <point x="350" y="584"/>
      <point x="352" y="584" type="curve" smooth="yes"/>
      <point x="403" y="582"/>
      <point x="447" y="543"/>
      <point x="468" y="496" type="curve" smooth="yes"/>
      <point x="472" y="486"/>
      <point x="485" y="479"/>
      <point x="496" y="479" type="curve" smooth="yes"/>
      <point x="503" y="479"/>
      <point x="511" y="483"/>
      <point x="511" y="491" type="curve" smooth="yes"/>
      <point x="511" y="519"/>
      <point x="496" y="563"/>
      <point x="486" y="588" type="curve" smooth="yes"/>
      <point x="482" y="598"/>
      <point x="473" y="608"/>
      <point x="460" y="611" type="curve" smooth="yes"/>
      <point x="438" y="618"/>
      <point x="405" y="627"/>
      <point x="363" y="630" type="curve" smooth="yes"/>
      <point x="359" y="630"/>
      <point x="358" y="634"/>
      <point x="358" y="637" type="curve" smooth="yes"/>
      <point x="359" y="646"/>
      <point x="365" y="688"/>
      <point x="366" y="697" type="curve"/>
      <point x="366" y="704"/>
      <point x="362" y="710"/>
      <point x="356" y="710" type="curve" smooth="yes"/>
      <point x="345" y="710"/>
      <point x="319" y="709"/>
      <point x="318" y="696" type="curve" smooth="yes"/>
      <point x="310" y="638" type="line" smooth="yes"/>
      <point x="310" y="635"/>
      <point x="307" y="632"/>
      <point x="302" y="632" type="curve" smooth="yes"/>
      <point x="153" y="629"/>
      <point x="74" y="552"/>
      <point x="74" y="465" type="curve" smooth="yes"/>
      <point x="74" y="394"/>
      <point x="143" y="349"/>
      <point x="248" y="310" type="curve" smooth="yes"/>
      <point x="260" y="304"/>
      <point x="261" y="298"/>
      <point x="260" y="293" type="curve" smooth="yes"/>
      <point x="227" y="66" type="line" smooth="yes"/>
      <point x="226" y="62"/>
      <point x="222" y="62"/>
      <point x="218" y="63" type="curve" smooth="yes"/>
      <point x="151" y="76"/>
      <point x="114" y="98"/>
      <point x="88" y="177" type="curve" smooth="yes"/>
      <point x="86" y="185"/>
      <point x="80" y="189"/>
      <point x="71" y="189" type="curve" smooth="yes"/>
      <point x="60" y="189"/>
      <point x="52" y="183"/>
      <point x="52" y="175" type="curve"/>
      <point x="54" y="150"/>
      <point x="55" y="103"/>
      <point x="63" y="78" type="curve" smooth="yes"/>
      <point x="66" y="71"/>
      <point x="73" y="65"/>
      <point x="79" y="60" type="curve" smooth="yes"/>
      <point x="117" y="38"/>
      <point x="168" y="21"/>
      <point x="213" y="18" type="curve" smooth="yes"/>
      <point x="216" y="18"/>
      <point x="221" y="15"/>
      <point x="220" y="9" type="curve"/>
      <point x="209" y="-64" type="line" smooth="yes"/>
      <point x="207" y="-75"/>
      <point x="216" y="-82"/>
    </contour>
    <contour>
      <point x="281" y="57" type="curve"/>
      <point x="275" y="57"/>
      <point x="273" y="59"/>
      <point x="273" y="66" type="curve"/>
      <point x="306" y="277" type="line" smooth="yes"/>
      <point x="306" y="281"/>
      <point x="309" y="284"/>
      <point x="313" y="282" type="curve" smooth="yes"/>
      <point x="391" y="256"/>
      <point x="436" y="226"/>
      <point x="436" y="166" type="curve" smooth="yes"/>
      <point x="436" y="100"/>
      <point x="360" y="58"/>
    </contour>
    <contour>
      <point x="266" y="402" type="curve"/>
      <point x="191" y="431"/>
      <point x="158" y="458"/>
      <point x="158" y="494" type="curve" smooth="yes"/>
      <point x="158" y="557"/>
      <point x="223" y="587"/>
      <point x="295" y="587" type="curve" smooth="yes"/>
      <point x="300" y="587"/>
      <point x="302" y="584"/>
      <point x="302" y="579" type="curve"/>
      <point x="275" y="404" type="line"/>
      <point x="275" y="401"/>
      <point x="274" y="399"/>
    </contour>
  </outline>
</glyph>
<glyph name="ampersand" format="1">
  <advance width="976"/>
  <unicode hex="0026"/>
  <outline>
    <contour>
      <point x="276" y="-15" type="curve" smooth="yes"/>
      <point x="397" y="-15"/>
      <point x="459" y="42"/>
      <point x="541" y="110" type="curve"/>
      <point x="549" y="116" type="line"/>
      <point x="566" y="97" type="line" smooth="yes"/>
      <point x="635" y="20"/>
      <point x="668" y="-15"/>
      <point x="764" y="-15" type="curve" smooth="yes"/>
      <point x="836" y="-15"/>
      <point x="922" y="36"/>
      <point x="922" y="53" type="curve" smooth="yes"/>
      <point x="922" y="60"/>
      <point x="918" y="65"/>
      <point x="908" y="65" type="curve" smooth="yes"/>
      <point x="901" y="65"/>
      <point x="893" y="62"/>
      <point x="886" y="58" type="curve" smooth="yes"/>
      <point x="858" y="45"/>
      <point x="835" y="38"/>
      <point x="796" y="38" type="curve" smooth="yes"/>
      <point x="730" y="38"/>
      <point x="676" y="79"/>
      <point x="620" y="139" type="curve" smooth="yes"/>
      <point x="600" y="160" type="line"/>
      <point x="600" y="160"/>
      <point x="805" y="330"/>
      <point x="822" y="341" type="curve"/>
      <point x="844" y="357"/>
      <point x="875" y="374"/>
      <point x="914" y="376" type="curve" smooth="yes"/>
      <point x="930" y="377"/>
      <point x="950" y="385"/>
      <point x="950" y="396" type="curve" smooth="yes"/>
      <point x="950" y="402"/>
      <point x="939" y="409"/>
      <point x="933" y="409" type="curve" smooth="yes"/>
      <point x="901" y="409"/>
      <point x="854" y="400"/>
      <point x="815" y="400" type="curve" smooth="yes"/>
      <point x="796" y="400"/>
      <point x="733" y="406"/>
      <point x="726" y="406" type="curve" smooth="yes"/>
      <point x="717" y="406"/>
      <point x="696" y="403"/>
      <point x="696" y="391" type="curve" smooth="yes"/>
      <point x="696" y="384"/>
      <point x="709" y="379"/>
      <point x="715" y="377" type="curve"/>
      <point x="740" y="375"/>
      <point x="746" y="363"/>
      <point x="746" y="355" type="curve" smooth="yes"/>
      <point x="746" y="338"/>
      <point x="664" y="256"/>
      <point x="604" y="205" type="curve" smooth="yes"/>
      <point x="577" y="183" type="line"/>
      <point x="559" y="201" type="line" smooth="yes"/>
      <point x="503" y="256"/>
      <point x="471" y="286"/>
      <point x="405" y="341" type="curve" smooth="yes"/>
      <point x="388" y="355" type="line"/>
      <point x="406" y="360" type="line" smooth="yes"/>
      <point x="491" y="386"/>
      <point x="540" y="426"/>
      <point x="539" y="477" type="curve" smooth="yes"/>
      <point x="539" y="529"/>
      <point x="485" y="599"/>
      <point x="373" y="599" type="curve" smooth="yes"/>
      <point x="282" y="599"/>
      <point x="190" y="554"/>
      <point x="190" y="484" type="curve" smooth="yes"/>
      <point x="190" y="425"/>
      <point x="253" y="394"/>
      <point x="278" y="373" type="curve"/>
      <point x="301" y="355" type="line"/>
      <point x="274" y="346" type="line" smooth="yes"/>
      <point x="133" y="300"/>
      <point x="49" y="234"/>
      <point x="49" y="127" type="curve" smooth="yes"/>
      <point x="49" y="45"/>
      <point x="142" y="-15"/>
    </contour>
    <contour>
      <point x="298" y="50" type="curve" smooth="yes"/>
      <point x="198" y="50"/>
      <point x="129" y="99"/>
      <point x="129" y="160" type="curve" smooth="yes"/>
      <point x="129" y="219"/>
      <point x="159" y="283"/>
      <point x="295" y="322" type="curve" smooth="yes"/>
      <point x="326" y="330" type="line"/>
      <point x="344" y="315" type="line" smooth="yes"/>
      <point x="418" y="253"/>
      <point x="461" y="209"/>
      <point x="509" y="162" type="curve" smooth="yes"/>
      <point x="528" y="144" type="line"/>
      <point x="514" y="134" type="line" smooth="yes"/>
      <point x="445" y="83"/>
      <point x="389" y="50"/>
    </contour>
    <contour>
      <point x="368" y="379" type="line"/>
      <point x="344" y="396" type="line" smooth="yes"/>
      <point x="265" y="448"/>
      <point x="252" y="468"/>
      <point x="252" y="501" type="curve" smooth="yes"/>
      <point x="252" y="539"/>
      <point x="307" y="567"/>
      <point x="369" y="567" type="curve" smooth="yes"/>
      <point x="439" y="567"/>
      <point x="473" y="522"/>
      <point x="473" y="479" type="curve" smooth="yes"/>
      <point x="473" y="443"/>
      <point x="445" y="405"/>
      <point x="391" y="387" type="curve" smooth="yes"/>
    </contour>
  </outline>
</glyph>
<glyph name="quotesingle" format="1">
  <advance width="203"/>
  <unicode hex="0027"/>
  <outline>
    <contour>
      <point x="71" y="452" type="curve" smooth="yes"/>
      <point x="73" y="448"/>
      <point x="80" y="450"/>
      <point x="89" y="457" type="curve" smooth="yes"/>
      <point x="104" y="480"/>
      <point x="133" y="535"/>
      <point x="134" y="573" type="curve" smooth="yes"/>
      <point x="136" y="599"/>
      <point x="138" y="642"/>
      <point x="132" y="663" type="curve" smooth="yes"/>
      <point x="122" y="670"/>
      <point x="113" y="671"/>
      <point x="99" y="663" type="curve" smooth="yes"/>
      <point x="88" y="659"/>
      <point x="76" y="648"/>
      <point x="70" y="634" type="curve"/>
      <point x="67" y="621"/>
      <point x="66" y="585"/>
      <point x="66" y="562" type="curve" smooth="yes"/>
      <point x="66" y="551"/>
      <point x="68" y="514"/>
      <point x="68" y="489" type="curve" smooth="yes"/>
      <point x="68" y="476"/>
      <point x="69" y="460"/>
    </contour>
  </outline>
</glyph>
<glyph name="parenleft" format="1">
  <advance width="383"/>
  <unicode hex="0028"/>
  <outline>
    <contour>
      <point x="310" y="-212" type="curve" smooth="yes"/>
      <point x="322" y="-212"/>
      <point x="334" y="-205"/>
      <point x="334" y="-193" type="curve" smooth="yes"/>
      <point x="334" y="-187"/>
      <point x="316" y="-176"/>
      <point x="310" y="-168" type="curve" smooth="yes"/>
      <point x="210" y="-80"/>
      <point x="126" y="117"/>
      <point x="126" y="278" type="curve" smooth="yes"/>
      <point x="126" y="433"/>
      <point x="207" y="577"/>
      <point x="311" y="661" type="curve" smooth="yes"/>
      <point x="317" y="668"/>
      <point x="335" y="680"/>
      <point x="335" y="686" type="curve" smooth="yes"/>
      <point x="335" y="697"/>
      <point x="323" y="705"/>
      <point x="311" y="705" type="curve" smooth="yes"/>
      <point x="304" y="705"/>
      <point x="292" y="699"/>
      <point x="284" y="692" type="curve" smooth="yes"/>
      <point x="190" y="626"/>
      <point x="40" y="435"/>
      <point x="40" y="269" type="curve" smooth="yes"/>
      <point x="40" y="99"/>
      <point x="183" y="-127"/>
      <point x="283" y="-200" type="curve" smooth="yes"/>
      <point x="291" y="-207"/>
      <point x="303" y="-212"/>
    </contour>
  </outline>
</glyph>
<glyph name="asterisk" format="1">
  <advance width="441"/>
  <unicode hex="002A"/>
  <outline>
    <contour>
      <point x="233" y="372" type="curve" smooth="yes"/>
      <point x="243" y="372"/>
      <point x="250" y="383"/>
      <point x="250" y="396" type="curve" smooth="yes"/>
      <point x="249" y="430"/>
      <point x="247" y="460"/>
      <point x="244" y="488" type="curve"/>
      <point x="287" y="477"/>
      <point x="323" y="466"/>
      <point x="364" y="454" type="curve" smooth="yes"/>
      <point x="375" y="452"/>
      <point x="397" y="454"/>
      <point x="397" y="465" type="curve" smooth="yes"/>
      <point x="397" y="471"/>
      <point x="392" y="479"/>
      <point x="383" y="482" type="curve" smooth="yes"/>
      <point x="341" y="500"/>
      <point x="301" y="513"/>
      <point x="267" y="526" type="curve"/>
      <point x="369" y="583" type="line" smooth="yes"/>
      <point x="376" y="587"/>
      <point x="380" y="595"/>
      <point x="380" y="601" type="curve" smooth="yes"/>
      <point x="380" y="609"/>
      <point x="371" y="614"/>
      <point x="362" y="614" type="curve" smooth="yes"/>
      <point x="357" y="614"/>
      <point x="346" y="610"/>
      <point x="338" y="606" type="curve" smooth="yes"/>
      <point x="303" y="590"/>
      <point x="272" y="576"/>
      <point x="237" y="560" type="curve"/>
      <point x="222" y="649" type="line" smooth="yes"/>
      <point x="220" y="660"/>
      <point x="213" y="670"/>
      <point x="205" y="670" type="curve" smooth="yes"/>
      <point x="195" y="670"/>
      <point x="188" y="659"/>
      <point x="189" y="644" type="curve" smooth="yes"/>
      <point x="190" y="612"/>
      <point x="192" y="583"/>
      <point x="195" y="554" type="curve"/>
      <point x="154" y="566"/>
      <point x="114" y="577"/>
      <point x="76" y="589" type="curve" smooth="yes"/>
      <point x="64" y="592"/>
      <point x="45" y="590"/>
      <point x="45" y="578" type="curve" smooth="yes"/>
      <point x="45" y="571"/>
      <point x="51" y="563"/>
      <point x="63" y="558" type="curve" smooth="yes"/>
      <point x="103" y="543"/>
      <point x="139" y="529"/>
      <point x="173" y="517" type="curve"/>
      <point x="76" y="460" type="line" smooth="yes"/>
      <point x="67" y="456"/>
      <point x="65" y="448"/>
      <point x="65" y="441" type="curve" smooth="yes"/>
      <point x="65" y="433"/>
      <point x="71" y="431"/>
      <point x="82" y="431" type="curve" smooth="yes"/>
      <point x="87" y="431"/>
      <point x="96" y="433"/>
      <point x="105" y="436" type="curve" smooth="yes"/>
      <point x="139" y="452"/>
      <point x="169" y="467"/>
      <point x="202" y="482" type="curve"/>
      <point x="215" y="390" type="line" smooth="yes"/>
      <point x="217" y="381"/>
      <point x="224" y="372"/>
    </contour>
  </outline>
</glyph>
<glyph name="plus" format="1">
  <advance width="590"/>
  <unicode hex="002B"/>
  <outline>
    <contour>
      <point x="280" y="-8" type="curve" smooth="yes"/>
      <point x="288" y="-8"/>
      <point x="321" y="-6"/>
      <point x="321" y="12" type="curve" smooth="yes"/>
      <point x="321" y="216" type="line" smooth="yes"/>
      <point x="321" y="220"/>
      <point x="322" y="221"/>
      <point x="325" y="221" type="curve" smooth="yes"/>
      <point x="514" y="221" type="line" smooth="yes"/>
      <point x="533" y="221"/>
      <point x="545" y="242"/>
      <point x="545" y="258" type="curve" smooth="yes"/>
      <point x="545" y="264"/>
      <point x="539" y="268"/>
      <point x="532" y="268" type="curve" smooth="yes"/>
      <point x="323" y="268" type="line" smooth="yes"/>
      <point x="321" y="268"/>
      <point x="321" y="269"/>
      <point x="321" y="274" type="curve" smooth="yes"/>
      <point x="321" y="472" type="line" smooth="yes"/>
      <point x="321" y="477"/>
      <point x="314" y="482"/>
      <point x="308" y="482" type="curve" smooth="yes"/>
      <point x="303" y="482"/>
      <point x="269" y="475"/>
      <point x="269" y="457" type="curve" smooth="yes"/>
      <point x="269" y="276" type="line" smooth="yes"/>
      <point x="269" y="270"/>
      <point x="268" y="268"/>
      <point x="262" y="268" type="curve" smooth="yes"/>
      <point x="69" y="268" type="line" smooth="yes"/>
      <point x="51" y="268"/>
      <point x="45" y="241"/>
      <point x="45" y="232" type="curve" smooth="yes"/>
      <point x="45" y="227"/>
      <point x="52" y="221"/>
      <point x="59" y="221" type="curve" smooth="yes"/>
      <point x="265" y="221" type="line" smooth="yes"/>
      <point x="268" y="221"/>
      <point x="269" y="219"/>
      <point x="269" y="216" type="curve" smooth="yes"/>
      <point x="269" y="3" type="line" smooth="yes"/>
      <point x="269" y="-2"/>
      <point x="274" y="-8"/>
    </contour>
  </outline>
</glyph>
<glyph name="period" format="1">
  <advance width="231"/>
  <unicode hex="002E"/>
  <outline>
    <contour>
      <point x="116" y="-14" type="curve" smooth="yes"/>
      <point x="146" y="-14"/>
      <point x="171" y="11"/>
      <point x="171" y="42" type="curve" smooth="yes"/>
      <point x="171" y="72"/>
      <point x="146" y="97"/>
      <point x="116" y="97" type="curve" smooth="yes"/>
      <point x="85" y="97"/>
      <point x="60" y="72"/>
      <point x="60" y="42" type="curve" smooth="yes"/>
      <point x="60" y="11"/>
      <point x="85" y="-14"/>
    </contour>
  </outline>
</glyph>
<glyph name="zero" format="1">
  <advance width="629"/>
  <unicode hex="0030"/>
  <outline>
    <contour>
      <point x="308" y="-14" type="curve" smooth="yes"/>
      <point x="503" y="-14"/>
      <point x="584" y="166"/>
      <point x="584" y="316" type="curve" smooth="yes"/>
      <point x="584" y="461"/>
      <point x="500" y="630"/>
      <point x="321" y="630" type="curve" smooth="yes"/>
      <point x="127" y="630"/>
      <point x="45" y="454"/>
      <point x="45" y="302" type="curve" smooth="yes"/>
      <point x="45" y="154"/>
      <point x="129" y="-14"/>
    </contour>
    <contour>
      <point x="333" y="30" type="curve" smooth="yes"/>
      <point x="198" y="30"/>
      <point x="133" y="178"/>
      <point x="133" y="319" type="curve" smooth="yes"/>
      <point x="133" y="460"/>
      <point x="174" y="584"/>
      <point x="294" y="584" type="curve" smooth="yes"/>
      <point x="428" y="584"/>
      <point x="498" y="440"/>
      <point x="498" y="299" type="curve" smooth="yes"/>
      <point x="498" y="158"/>
      <point x="452" y="30"/>
    </contour>
  </outline>
</glyph>
<glyph name="one" format="1">
  <advance width="629"/>
  <unicode hex="0031"/>
  <outline>
    <contour>
      <point x="160" y="-3" type="curve" smooth="yes"/>
      <point x="208" y="-3"/>
      <point x="280" y="2"/>
      <point x="335" y="2" type="curve" smooth="yes"/>
      <point x="388" y="2"/>
      <point x="455" y="-3"/>
      <point x="505" y="-3" type="curve" smooth="yes"/>
      <point x="522" y="-3"/>
      <point x="528" y="3"/>
      <point x="528" y="11" type="curve" smooth="yes"/>
      <point x="528" y="18"/>
      <point x="521" y="25"/>
      <point x="503" y="28" type="curve" smooth="yes"/>
      <point x="399" y="43"/>
      <point x="375" y="49"/>
      <point x="375" y="124" type="curve" smooth="yes"/>
      <point x="375" y="557" type="line" smooth="yes"/>
      <point x="375" y="585"/>
      <point x="376" y="604"/>
      <point x="379" y="622" type="curve" smooth="yes"/>
      <point x="380" y="631"/>
      <point x="373" y="637"/>
      <point x="364" y="637" type="curve" smooth="yes"/>
      <point x="356" y="637"/>
      <point x="349" y="634"/>
      <point x="332" y="616" type="curve" smooth="yes"/>
      <point x="305" y="586"/>
      <point x="269" y="575"/>
      <point x="178" y="571" type="curve" smooth="yes"/>
      <point x="163" y="569"/>
      <point x="152" y="562"/>
      <point x="152" y="553" type="curve" smooth="yes"/>
      <point x="152" y="542"/>
      <point x="165" y="537"/>
      <point x="178" y="536" type="curve" smooth="yes"/>
      <point x="264" y="531"/>
      <point x="292" y="523"/>
      <point x="292" y="464" type="curve" smooth="yes"/>
      <point x="292" y="126" type="line" smooth="yes"/>
      <point x="292" y="49"/>
      <point x="258" y="39"/>
      <point x="160" y="29" type="curve" smooth="yes"/>
      <point x="144" y="26"/>
      <point x="136" y="19"/>
      <point x="136" y="12" type="curve" smooth="yes"/>
      <point x="136" y="4"/>
      <point x="142" y="-3"/>
    </contour>
  </outline>
</glyph>
<glyph name="two" format="1">
  <advance width="631"/>
  <unicode hex="0032"/>
  <outline>
    <contour>
      <point x="553" y="-3" type="curve" smooth="yes"/>
      <point x="562" y="-3"/>
      <point x="576" y="0"/>
      <point x="582" y="21" type="curve" smooth="yes"/>
      <point x="594" y="72"/>
      <point x="615" y="129"/>
      <point x="615" y="140" type="curve" smooth="yes"/>
      <point x="615" y="146"/>
      <point x="613" y="157"/>
      <point x="602" y="157" type="curve" smooth="yes"/>
      <point x="589" y="157"/>
      <point x="581" y="143"/>
      <point x="576" y="131" type="curve" smooth="yes"/>
      <point x="557" y="87"/>
      <point x="536" y="67"/>
      <point x="478" y="65" type="curve" smooth="yes"/>
      <point x="405" y="64"/>
      <point x="353" y="63"/>
      <point x="310" y="63" type="curve" smooth="yes"/>
      <point x="261" y="63"/>
      <point x="227" y="63"/>
      <point x="199" y="66" type="curve" smooth="yes"/>
      <point x="188" y="67"/>
      <point x="181" y="68"/>
      <point x="181" y="73" type="curve" smooth="yes"/>
      <point x="195" y="90"/>
      <point x="354" y="211"/>
      <point x="414" y="261" type="curve" smooth="yes"/>
      <point x="485" y="324"/>
      <point x="536" y="401"/>
      <point x="536" y="472" type="curve" smooth="yes"/>
      <point x="536" y="562"/>
      <point x="458" y="630"/>
      <point x="327" y="630" type="curve" smooth="yes"/>
      <point x="175" y="630"/>
      <point x="81" y="539"/>
      <point x="75" y="497" type="curve" smooth="yes"/>
      <point x="74" y="482"/>
      <point x="81" y="465"/>
      <point x="92" y="465" type="curve" smooth="yes"/>
      <point x="103" y="465"/>
      <point x="111" y="475"/>
      <point x="117" y="482" type="curve" smooth="yes"/>
      <point x="159" y="533"/>
      <point x="221" y="566"/>
      <point x="297" y="566" type="curve" smooth="yes"/>
      <point x="382" y="566"/>
      <point x="444" y="521"/>
      <point x="444" y="450" type="curve" smooth="yes"/>
      <point x="444" y="367"/>
      <point x="367" y="275"/>
      <point x="271" y="200" type="curve" smooth="yes"/>
      <point x="52" y="28" type="line" smooth="yes"/>
      <point x="44" y="22"/>
      <point x="41" y="21"/>
      <point x="41" y="15" type="curve" smooth="yes"/>
      <point x="41" y="9"/>
      <point x="61" y="-2"/>
      <point x="67" y="-2" type="curve" smooth="yes"/>
      <point x="93" y="-2"/>
      <point x="305" y="3"/>
      <point x="371" y="3" type="curve" smooth="yes"/>
      <point x="436" y="3"/>
      <point x="527" y="-3"/>
    </contour>
  </outline>
</glyph>
<glyph name="three" format="1">
  <advance width="629"/>
  <unicode hex="0033"/>
  <outline>
    <contour>
      <point x="206" y="-38" type="curve" smooth="yes"/>
      <point x="384" y="-38"/>
      <point x="569" y="53"/>
      <point x="569" y="203" type="curve" smooth="yes"/>
      <point x="569" y="290"/>
      <point x="480" y="354"/>
      <point x="377" y="355" type="curve" smooth="yes"/>
      <point x="371" y="355"/>
      <point x="371" y="359"/>
      <point x="375" y="361" type="curve"/>
      <point x="472" y="406"/>
      <point x="507" y="466"/>
      <point x="507" y="516" type="curve" smooth="yes"/>
      <point x="507" y="584"/>
      <point x="423" y="630"/>
      <point x="336" y="630" type="curve" smooth="yes"/>
      <point x="161" y="630"/>
      <point x="83" y="535"/>
      <point x="83" y="500" type="curve" smooth="yes"/>
      <point x="83" y="490"/>
      <point x="95" y="472"/>
      <point x="114" y="472" type="curve" smooth="yes"/>
      <point x="132" y="472"/>
      <point x="161" y="567"/>
      <point x="294" y="567" type="curve" smooth="yes"/>
      <point x="372" y="567"/>
      <point x="421" y="528"/>
      <point x="421" y="473" type="curve" smooth="yes"/>
      <point x="421" y="400"/>
      <point x="300" y="353"/>
      <point x="247" y="334" type="curve" smooth="yes"/>
      <point x="219" y="327"/>
      <point x="201" y="317"/>
      <point x="197" y="295" type="curve" smooth="yes"/>
      <point x="195" y="284"/>
      <point x="210" y="277"/>
      <point x="225" y="282" type="curve" smooth="yes"/>
      <point x="256" y="295"/>
      <point x="295" y="297"/>
      <point x="316" y="297" type="curve" smooth="yes"/>
      <point x="428" y="297"/>
      <point x="479" y="223"/>
      <point x="479" y="150" type="curve" smooth="yes"/>
      <point x="479" y="71"/>
      <point x="383" y="8"/>
      <point x="274" y="8" type="curve" smooth="yes"/>
      <point x="222" y="8"/>
      <point x="188" y="25"/>
      <point x="164" y="41" type="curve" smooth="yes"/>
      <point x="148" y="52"/>
      <point x="133" y="62"/>
      <point x="114" y="62" type="curve" smooth="yes"/>
      <point x="92" y="62"/>
      <point x="60" y="30"/>
      <point x="60" y="14" type="curve" smooth="yes"/>
      <point x="60" y="-15"/>
      <point x="144" y="-38"/>
    </contour>
  </outline>
</glyph>
<glyph name="four" format="1">
  <advance width="631"/>
  <unicode hex="0034"/>
  <outline>
    <contour>
      <point x="316" y="-4" type="curve" smooth="yes"/>
      <point x="378" y="-4"/>
      <point x="391" y="3"/>
      <point x="446" y="3" type="curve" smooth="yes"/>
      <point x="499" y="3"/>
      <point x="513" y="-4"/>
      <point x="572" y="-4" type="curve" smooth="yes"/>
      <point x="584" y="-4"/>
      <point x="594" y="3"/>
      <point x="594" y="12" type="curve" smooth="yes"/>
      <point x="594" y="21"/>
      <point x="582" y="27"/>
      <point x="566" y="30" type="curve" smooth="yes"/>
      <point x="506" y="38"/>
      <point x="483" y="54"/>
      <point x="483" y="88" type="curve" smooth="yes"/>
      <point x="483" y="175" type="line" smooth="yes"/>
      <point x="483" y="176"/>
      <point x="493" y="180"/>
      <point x="499" y="181" type="curve"/>
      <point x="510" y="182"/>
      <point x="524" y="183"/>
      <point x="540" y="183" type="curve" smooth="yes"/>
      <point x="560" y="183"/>
      <point x="584" y="182"/>
      <point x="603" y="182" type="curve" smooth="yes"/>
      <point x="608" y="182"/>
      <point x="630" y="211"/>
      <point x="630" y="227" type="curve" smooth="yes"/>
      <point x="630" y="232"/>
      <point x="624" y="236"/>
      <point x="616" y="236" type="curve"/>
      <point x="587" y="235"/>
      <point x="564" y="234"/>
      <point x="540" y="234" type="curve" smooth="yes"/>
      <point x="524" y="234"/>
      <point x="508" y="234"/>
      <point x="488" y="235" type="curve"/>
      <point x="485" y="235"/>
      <point x="482" y="238"/>
      <point x="482" y="241" type="curve" smooth="yes"/>
      <point x="482" y="357" type="line" smooth="yes"/>
      <point x="482" y="399"/>
      <point x="482" y="421"/>
      <point x="467" y="421" type="curve" smooth="yes"/>
      <point x="457" y="421"/>
      <point x="428" y="419"/>
      <point x="407" y="408" type="curve"/>
      <point x="398" y="404"/>
      <point x="397" y="400"/>
      <point x="397" y="386" type="curve" smooth="yes"/>
      <point x="397" y="243" type="line" smooth="yes"/>
      <point x="397" y="239"/>
      <point x="390" y="235"/>
      <point x="385" y="235" type="curve" smooth="yes"/>
      <point x="139" y="235" type="line" smooth="yes"/>
      <point x="133" y="235"/>
      <point x="136" y="241"/>
      <point x="139" y="244" type="curve" smooth="yes"/>
      <point x="476" y="629" type="line"/>
      <point x="477" y="631"/>
      <point x="485" y="642"/>
      <point x="478" y="642" type="curve" smooth="yes"/>
      <point x="445" y="642" type="line" smooth="yes"/>
      <point x="434" y="642"/>
      <point x="420" y="628"/>
      <point x="410" y="616" type="curve" smooth="yes"/>
      <point x="75" y="235" type="line" smooth="yes"/>
      <point x="59" y="217"/>
      <point x="53" y="210"/>
      <point x="27" y="185" type="curve" smooth="yes"/>
      <point x="26" y="184"/>
      <point x="26" y="183"/>
      <point x="26" y="182" type="curve" smooth="yes"/>
      <point x="26" y="178"/>
      <point x="32" y="172"/>
      <point x="39" y="172" type="curve" smooth="yes"/>
      <point x="167" y="172"/>
      <point x="247" y="179"/>
      <point x="380" y="179" type="curve" smooth="yes"/>
      <point x="385" y="179"/>
      <point x="397" y="175"/>
      <point x="397" y="166" type="curve" smooth="yes"/>
      <point x="397" y="82" type="line" smooth="yes"/>
      <point x="397" y="49"/>
      <point x="383" y="35"/>
      <point x="317" y="30" type="curve" smooth="yes"/>
      <point x="301" y="28"/>
      <point x="291" y="23"/>
      <point x="291" y="12" type="curve" smooth="yes"/>
      <point x="291" y="2"/>
      <point x="304" y="-4"/>
    </contour>
  </outline>
</glyph>
<glyph name="five" format="1">
  <advance width="631"/>
  <unicode hex="0035"/>
  <outline>
    <contour>
      <point x="137" y="-38" type="curve" smooth="yes"/>
      <point x="230" y="-38"/>
      <point x="315" y="-20"/>
      <point x="384" y="10" type="curve" smooth="yes"/>
      <point x="481" y="53"/>
      <point x="544" y="120"/>
      <point x="544" y="193" type="curve" smooth="yes"/>
      <point x="544" y="275"/>
      <point x="496" y="324"/>
      <point x="397" y="362" type="curve" smooth="yes"/>
      <point x="337" y="386"/>
      <point x="246" y="408"/>
      <point x="167" y="424" type="curve" smooth="yes"/>
      <point x="153" y="428"/>
      <point x="150" y="434"/>
      <point x="151" y="443" type="curve" smooth="yes"/>
      <point x="154" y="459"/>
      <point x="183" y="524"/>
      <point x="200" y="526" type="curve" smooth="yes"/>
      <point x="237" y="531"/>
      <point x="364" y="538"/>
      <point x="429" y="544" type="curve" smooth="yes"/>
      <point x="449" y="546"/>
      <point x="464" y="556"/>
      <point x="476" y="576" type="curve" smooth="yes"/>
      <point x="482" y="586"/>
      <point x="490" y="599"/>
      <point x="497" y="610" type="curve" smooth="yes"/>
      <point x="504" y="619"/>
      <point x="496" y="628"/>
      <point x="483" y="627" type="curve" smooth="yes"/>
      <point x="380" y="620"/>
      <point x="292" y="608"/>
      <point x="211" y="592" type="curve" smooth="yes"/>
      <point x="184" y="587"/>
      <point x="167" y="576"/>
      <point x="158" y="556" type="curve" smooth="yes"/>
      <point x="139" y="512"/>
      <point x="95" y="433"/>
      <point x="95" y="395" type="curve" smooth="yes"/>
      <point x="95" y="378"/>
      <point x="103" y="365"/>
      <point x="127" y="350" type="curve"/>
      <point x="372" y="310"/>
      <point x="460" y="259"/>
      <point x="460" y="185" type="curve" smooth="yes"/>
      <point x="460" y="99"/>
      <point x="367" y="8"/>
      <point x="136" y="3" type="curve" smooth="yes"/>
      <point x="116" y="3"/>
      <point x="88" y="-9"/>
      <point x="88" y="-20" type="curve" smooth="yes"/>
      <point x="88" y="-31"/>
      <point x="115" y="-38"/>
    </contour>
  </outline>
</glyph>
<glyph name="six" format="1">
  <advance width="629"/>
  <unicode hex="0036"/>
  <outline>
    <contour>
      <point x="330" y="-16" type="curve" smooth="yes"/>
      <point x="458" y="-16"/>
      <point x="600" y="65"/>
      <point x="600" y="190" type="curve" smooth="yes"/>
      <point x="600" y="263"/>
      <point x="519" y="314"/>
      <point x="428" y="314" type="curve" smooth="yes"/>
      <point x="387" y="314"/>
      <point x="335" y="298"/>
      <point x="306" y="281" type="curve" smooth="yes"/>
      <point x="290" y="272"/>
      <point x="278" y="264"/>
      <point x="264" y="253" type="curve" smooth="yes"/>
      <point x="248" y="238"/>
      <point x="252" y="220"/>
      <point x="273" y="232" type="curve" smooth="yes"/>
      <point x="306" y="249"/>
      <point x="342" y="255"/>
      <point x="388" y="255" type="curve" smooth="yes"/>
      <point x="465" y="255"/>
      <point x="519" y="203"/>
      <point x="519" y="144" type="curve" smooth="yes"/>
      <point x="519" y="67"/>
      <point x="446" y="32"/>
      <point x="362" y="33" type="curve" smooth="yes"/>
      <point x="266" y="34"/>
      <point x="154" y="92"/>
      <point x="151" y="200" type="curve" smooth="yes"/>
      <point x="149" y="305"/>
      <point x="220" y="410"/>
      <point x="295" y="479" type="curve" smooth="yes"/>
      <point x="363" y="536"/>
      <point x="448" y="576"/>
      <point x="555" y="605" type="curve" smooth="yes"/>
      <point x="565" y="607"/>
      <point x="584" y="613"/>
      <point x="590" y="628" type="curve" smooth="yes"/>
      <point x="592" y="632"/>
      <point x="583" y="645"/>
      <point x="556" y="639" type="curve" smooth="yes"/>
      <point x="429" y="613"/>
      <point x="324" y="561"/>
      <point x="254" y="511" type="curve" smooth="yes"/>
      <point x="156" y="438"/>
      <point x="61" y="326"/>
      <point x="61" y="193" type="curve" smooth="yes"/>
      <point x="61" y="53"/>
      <point x="195" y="-16"/>
    </contour>
  </outline>
</glyph>
<glyph name="seven" format="1">
  <advance width="631"/>
  <unicode hex="0037"/>
  <outline>
    <contour>
      <point x="143" y="-32" type="curve" smooth="yes"/>
      <point x="149" y="-32"/>
      <point x="160" y="-16"/>
      <point x="168" y="-6" type="curve" smooth="yes"/>
      <point x="556" y="538" type="line" smooth="yes"/>
      <point x="569" y="555"/>
      <point x="606" y="592"/>
      <point x="606" y="608" type="curve" smooth="yes"/>
      <point x="606" y="613"/>
      <point x="602" y="621"/>
      <point x="598" y="621" type="curve" smooth="yes"/>
      <point x="573" y="619"/>
      <point x="435" y="616"/>
      <point x="305" y="616" type="curve" smooth="yes"/>
      <point x="244" y="616"/>
      <point x="216" y="617"/>
      <point x="177" y="617" type="curve" smooth="yes"/>
      <point x="122" y="617"/>
      <point x="72" y="626"/>
      <point x="68" y="626" type="curve" smooth="yes"/>
      <point x="64" y="626"/>
      <point x="56" y="624"/>
      <point x="55" y="615" type="curve" smooth="yes"/>
      <point x="51" y="589"/>
      <point x="42" y="543"/>
      <point x="33" y="513" type="curve"/>
      <point x="32" y="508"/>
      <point x="28" y="498"/>
      <point x="28" y="490" type="curve" smooth="yes"/>
      <point x="28" y="485"/>
      <point x="29" y="476"/>
      <point x="36" y="476" type="curve" smooth="yes"/>
      <point x="46" y="476"/>
      <point x="55" y="492"/>
      <point x="59" y="501" type="curve" smooth="yes"/>
      <point x="80" y="538"/>
      <point x="105" y="547"/>
      <point x="139" y="547" type="curve" smooth="yes"/>
      <point x="539" y="547" type="line"/>
      <point x="541" y="583" type="line"/>
      <point x="156" y="52" type="line" smooth="yes"/>
      <point x="141" y="31"/>
      <point x="118" y="3"/>
      <point x="118" y="-4" type="curve" smooth="yes"/>
      <point x="118" y="-20"/>
      <point x="126" y="-32"/>
    </contour>
  </outline>
</glyph>
<glyph name="eight" format="1">
  <advance width="631"/>
  <unicode hex="0038"/>
  <outline>
    <contour>
      <point x="302" y="-14" type="curve"/>
      <point x="431" y="-14"/>
      <point x="561" y="60"/>
      <point x="561" y="164" type="curve"/>
      <point x="561" y="241"/>
      <point x="495" y="291"/>
      <point x="405" y="333" type="curve" smooth="yes"/>
      <point x="391" y="340"/>
      <point x="389" y="343"/>
      <point x="411" y="354" type="curve"/>
      <point x="441" y="370"/>
      <point x="456" y="379"/>
      <point x="473" y="389" type="curve" smooth="yes"/>
      <point x="504" y="409"/>
      <point x="537" y="442"/>
      <point x="537" y="496" type="curve" smooth="yes"/>
      <point x="537" y="577"/>
      <point x="434" y="630"/>
      <point x="329" y="630" type="curve"/>
      <point x="212" y="630"/>
      <point x="90" y="567"/>
      <point x="90" y="489" type="curve"/>
      <point x="90" y="404"/>
      <point x="160" y="372"/>
      <point x="236" y="321" type="curve"/>
      <point x="247" y="315"/>
      <point x="252" y="313"/>
      <point x="240" y="308" type="curve" smooth="yes"/>
      <point x="177" y="279"/>
      <point x="70" y="233"/>
      <point x="70" y="141" type="curve" smooth="yes"/>
      <point x="70" y="49"/>
      <point x="182" y="-14"/>
    </contour>
    <contour>
      <point x="321" y="29" type="curve"/>
      <point x="215" y="29"/>
      <point x="152" y="98"/>
      <point x="152" y="160" type="curve" smooth="yes"/>
      <point x="152" y="215"/>
      <point x="195" y="247"/>
      <point x="264" y="281" type="curve" smooth="yes"/>
      <point x="272" y="284"/>
      <point x="278" y="286"/>
      <point x="282" y="286" type="curve"/>
      <point x="292" y="286"/>
      <point x="301" y="283"/>
      <point x="313" y="277" type="curve"/>
      <point x="391" y="246"/>
      <point x="477" y="190"/>
      <point x="477" y="132" type="curve" smooth="yes"/>
      <point x="477" y="77"/>
      <point x="411" y="29"/>
    </contour>
    <contour>
      <point x="359" y="366" type="curve"/>
      <point x="353" y="364"/>
      <point x="344" y="367"/>
      <point x="337" y="369" type="curve" smooth="yes"/>
      <point x="237" y="417"/>
      <point x="172" y="441"/>
      <point x="171" y="501" type="curve" smooth="yes"/>
      <point x="171" y="549"/>
      <point x="243" y="586"/>
      <point x="323" y="586" type="curve" smooth="yes"/>
      <point x="412" y="586"/>
      <point x="457" y="545"/>
      <point x="457" y="495" type="curve" smooth="yes"/>
      <point x="457" y="444"/>
      <point x="432" y="399"/>
    </contour>
  </outline>
</glyph>
<glyph name="equal" format="1">
  <advance width="566"/>
  <unicode hex="003D"/>
  <outline>
    <contour>
      <point x="64" y="315" type="curve"/>
      <point x="484" y="315" type="line"/>
      <point x="502" y="315"/>
      <point x="516" y="338"/>
      <point x="516" y="352" type="curve" smooth="yes"/>
      <point x="516" y="358"/>
      <point x="509" y="363"/>
      <point x="502" y="363" type="curve"/>
      <point x="74" y="363" type="line"/>
      <point x="56" y="363"/>
      <point x="50" y="336"/>
      <point x="50" y="327" type="curve" smooth="yes"/>
      <point x="50" y="321"/>
      <point x="57" y="315"/>
    </contour>
    <contour>
      <point x="64" y="144" type="curve"/>
      <point x="484" y="144" type="line"/>
      <point x="502" y="144"/>
      <point x="516" y="165"/>
      <point x="516" y="181" type="curve" smooth="yes"/>
      <point x="516" y="187"/>
      <point x="509" y="191"/>
      <point x="502" y="191" type="curve"/>
      <point x="74" y="191" type="line"/>
      <point x="56" y="191"/>
      <point x="50" y="165"/>
      <point x="50" y="156" type="curve" smooth="yes"/>
      <point x="50" y="150"/>
      <point x="57" y="144"/>
    </contour>
  </outline>
</glyph>
<glyph name="question" format="1">
  <advance width="488"/>
  <unicode hex="003F"/>
  <outline>
    <contour>
      <point x="167" y="180" type="curve" smooth="yes"/>
      <point x="179" y="180"/>
      <point x="186" y="194"/>
      <point x="187" y="203" type="curve" smooth="yes"/>
      <point x="189" y="235"/>
      <point x="197" y="262"/>
      <point x="244" y="284" type="curve" smooth="yes"/>
      <point x="284" y="305"/>
      <point x="297" y="309"/>
      <point x="351" y="333" type="curve" smooth="yes"/>
      <point x="376" y="344"/>
      <point x="402" y="368"/>
      <point x="402" y="417" type="curve" smooth="yes"/>
      <point x="402" y="468"/>
      <point x="354" y="555"/>
      <point x="282" y="611" type="curve" smooth="yes"/>
      <point x="239" y="644"/>
      <point x="186" y="661"/>
      <point x="143" y="661" type="curve" smooth="yes"/>
      <point x="117" y="661"/>
      <point x="91" y="644"/>
      <point x="91" y="623" type="curve" smooth="yes"/>
      <point x="91" y="595"/>
      <point x="110" y="565"/>
      <point x="139" y="565" type="curve" smooth="yes"/>
      <point x="150" y="565"/>
      <point x="159" y="567"/>
      <point x="167" y="570" type="curve" smooth="yes"/>
      <point x="177" y="572"/>
      <point x="186" y="575"/>
      <point x="197" y="575" type="curve" smooth="yes"/>
      <point x="290" y="574"/>
      <point x="345" y="520"/>
      <point x="345" y="456" type="curve" smooth="yes"/>
      <point x="345" y="428"/>
      <point x="302" y="399"/>
      <point x="263" y="386" type="curve" smooth="yes"/>
      <point x="179" y="355"/>
      <point x="126" y="330"/>
      <point x="126" y="291" type="curve" smooth="yes"/>
      <point x="126" y="250"/>
      <point x="133" y="231"/>
      <point x="140" y="209" type="curve" smooth="yes"/>
      <point x="145" y="193"/>
      <point x="156" y="180"/>
    </contour>
    <contour>
      <point x="175" y="-13" type="curve" smooth="yes"/>
      <point x="208" y="-15"/>
      <point x="237" y="10"/>
      <point x="239" y="42" type="curve" smooth="yes"/>
      <point x="241" y="75"/>
      <point x="216" y="103"/>
      <point x="183" y="106" type="curve" smooth="yes"/>
      <point x="149" y="109"/>
      <point x="120" y="83"/>
      <point x="118" y="50" type="curve" smooth="yes"/>
      <point x="116" y="17"/>
      <point x="141" y="-11"/>
    </contour>
  </outline>
</glyph>
<glyph name="at" format="1">
  <advance width="976"/>
  <unicode hex="0040"/>
  <outline>
    <contour>
      <point x="498" y="-136" type="curve" smooth="yes"/>
      <point x="652" y="-136"/>
      <point x="828" y="-54"/>
      <point x="828" y="-22" type="curve" smooth="yes"/>
      <point x="828" y="-10"/>
      <point x="823" y="-3"/>
      <point x="811" y="-3" type="curve" smooth="yes"/>
      <point x="802" y="-3"/>
      <point x="792" y="-10"/>
      <point x="782" y="-16" type="curve" smooth="yes"/>
      <point x="706" y="-61"/>
      <point x="593" y="-92"/>
      <point x="512" y="-92" type="curve" smooth="yes"/>
      <point x="304" y="-92"/>
      <point x="112" y="18"/>
      <point x="112" y="189" type="curve" smooth="yes"/>
      <point x="112" y="361"/>
      <point x="302" y="468"/>
      <point x="513" y="468" type="curve" smooth="yes"/>
      <point x="711" y="468"/>
      <point x="861" y="360"/>
      <point x="861" y="224" type="curve" smooth="yes"/>
      <point x="861" y="137"/>
      <point x="784" y="90"/>
      <point x="692" y="90" type="curve" smooth="yes"/>
      <point x="664" y="90"/>
      <point x="659" y="104"/>
      <point x="659" y="119" type="curve" smooth="yes"/>
      <point x="659" y="128"/>
      <point x="661" y="138"/>
      <point x="662" y="147" type="curve"/>
      <point x="682" y="272" type="line" smooth="yes"/>
      <point x="684" y="288"/>
      <point x="697" y="327"/>
      <point x="704" y="352" type="curve"/>
      <point x="708" y="356"/>
      <point x="691" y="359"/>
      <point x="687" y="359" type="curve" smooth="yes"/>
      <point x="677" y="359"/>
      <point x="671" y="340"/>
      <point x="654" y="340" type="curve" smooth="yes"/>
      <point x="650" y="340"/>
      <point x="644" y="342"/>
      <point x="624" y="347" type="curve" smooth="yes"/>
      <point x="608" y="351"/>
      <point x="565" y="355"/>
      <point x="539" y="355" type="curve" smooth="yes"/>
      <point x="396" y="355"/>
      <point x="264" y="277"/>
      <point x="264" y="156" type="curve" smooth="yes"/>
      <point x="264" y="86"/>
      <point x="337" y="47"/>
      <point x="429" y="47" type="curve" smooth="yes"/>
      <point x="520" y="47"/>
      <point x="577" y="84"/>
      <point x="591" y="84" type="curve" smooth="yes"/>
      <point x="606" y="84"/>
      <point x="604" y="47"/>
      <point x="660" y="45" type="curve" smooth="yes"/>
      <point x="787" y="45"/>
      <point x="912" y="117"/>
      <point x="912" y="238" type="curve" smooth="yes"/>
      <point x="912" y="387"/>
      <point x="737" y="512"/>
      <point x="540" y="512" type="curve" smooth="yes"/>
      <point x="288" y="512"/>
      <point x="62" y="399"/>
      <point x="62" y="181" type="curve" smooth="yes"/>
      <point x="62" y="-6"/>
      <point x="263" y="-136"/>
    </contour>
    <contour>
      <point x="466" y="85" type="curve" smooth="yes"/>
      <point x="408" y="85"/>
      <point x="340" y="106"/>
      <point x="340" y="175" type="curve" smooth="yes"/>
      <point x="340" y="268"/>
      <point x="428" y="318"/>
      <point x="512" y="318" type="curve" smooth="yes"/>
      <point x="581" y="318"/>
      <point x="615" y="304"/>
      <point x="615" y="263" type="curve" smooth="yes"/>
      <point x="615" y="258"/>
      <point x="615" y="253"/>
      <point x="614" y="248" type="curve"/>
      <point x="599" y="156" type="line" smooth="yes"/>
      <point x="593" y="122"/>
      <point x="576" y="114"/>
      <point x="558" y="106" type="curve" smooth="yes"/>
      <point x="527" y="93"/>
      <point x="502" y="85"/>
    </contour>
  </outline>
</glyph>
<glyph name="A" format="1">
  <advance width="898"/>
  <unicode hex="0041"/>
  <outline>
    <contour>
      <point x="30" y="-5" type="curve" smooth="yes"/>
      <point x="67" y="-5"/>
      <point x="125" y="2"/>
      <point x="179" y="2" type="curve" smooth="yes"/>
      <point x="206" y="2"/>
      <point x="250" y="0"/>
      <point x="270" y="0" type="curve" smooth="yes"/>
      <point x="289" y="0"/>
      <point x="303" y="3"/>
      <point x="303" y="13" type="curve" smooth="yes"/>
      <point x="303" y="24"/>
      <point x="291" y="30"/>
      <point x="266" y="37" type="curve" smooth="yes"/>
      <point x="229" y="45"/>
      <point x="201" y="60"/>
      <point x="201" y="87" type="curve" smooth="yes"/>
      <point x="201" y="106"/>
      <point x="250" y="201"/>
      <point x="261" y="227" type="curve" smooth="yes"/>
      <point x="268" y="241"/>
      <point x="275" y="245"/>
      <point x="283" y="245" type="curve" smooth="yes"/>
      <point x="571" y="245" type="line" smooth="yes"/>
      <point x="594" y="245"/>
      <point x="602" y="244"/>
      <point x="606" y="234" type="curve" smooth="yes"/>
      <point x="626" y="183"/>
      <point x="659" y="111"/>
      <point x="659" y="82" type="curve" smooth="yes"/>
      <point x="659" y="61"/>
      <point x="640" y="45"/>
      <point x="591" y="39" type="curve" smooth="yes"/>
      <point x="569" y="35"/>
      <point x="551" y="27"/>
      <point x="551" y="16" type="curve" smooth="yes"/>
      <point x="551" y="6"/>
      <point x="565" y="1"/>
      <point x="585" y="1" type="curve" smooth="yes"/>
      <point x="614" y="1"/>
      <point x="663" y="2"/>
      <point x="706" y="2" type="curve" smooth="yes"/>
      <point x="760" y="2"/>
      <point x="837" y="-5"/>
      <point x="871" y="-5" type="curve" smooth="yes"/>
      <point x="890" y="-5"/>
      <point x="905" y="-2"/>
      <point x="905" y="7" type="curve" smooth="yes"/>
      <point x="905" y="18"/>
      <point x="892" y="30"/>
      <point x="864" y="35" type="curve" smooth="yes"/>
      <point x="816" y="42"/>
      <point x="776" y="56"/>
      <point x="738" y="135" type="curve" smooth="yes"/>
      <point x="693" y="230"/>
      <point x="588" y="461"/>
      <point x="502" y="661" type="curve" smooth="yes"/>
      <point x="498" y="670"/>
      <point x="496" y="678"/>
      <point x="492" y="684" type="curve"/>
      <point x="491" y="686"/>
      <point x="486" y="686"/>
      <point x="484" y="685" type="curve"/>
      <point x="479" y="679"/>
      <point x="474" y="659"/>
      <point x="456" y="651" type="curve" smooth="yes"/>
      <point x="438" y="643"/>
      <point x="421" y="640"/>
      <point x="403" y="636" type="curve"/>
      <point x="400" y="615"/>
      <point x="394" y="597"/>
      <point x="385" y="578" type="curve" smooth="yes"/>
      <point x="297" y="393"/>
      <point x="246" y="289"/>
      <point x="150" y="118" type="curve" smooth="yes"/>
      <point x="117" y="60"/>
      <point x="80" y="45"/>
      <point x="42" y="38" type="curve" smooth="yes"/>
      <point x="10" y="31"/>
      <point x="-3" y="21"/>
      <point x="-3" y="10" type="curve" smooth="yes"/>
      <point x="-3" y="1"/>
      <point x="11" y="-5"/>
    </contour>
    <contour>
      <point x="325" y="288" type="line" smooth="yes"/>
      <point x="308" y="288"/>
      <point x="298" y="288"/>
      <point x="298" y="295" type="curve" smooth="yes"/>
      <point x="298" y="297"/>
      <point x="299" y="300"/>
      <point x="301" y="303" type="curve" smooth="yes"/>
      <point x="419" y="547" type="line" smooth="yes"/>
      <point x="428" y="563"/>
      <point x="437" y="573"/>
      <point x="443" y="573" type="curve" smooth="yes"/>
      <point x="455" y="573"/>
      <point x="464" y="561"/>
      <point x="471" y="547" type="curve" smooth="yes"/>
      <point x="574" y="303" type="line"/>
      <point x="576" y="299"/>
      <point x="577" y="295"/>
      <point x="577" y="293" type="curve" smooth="yes"/>
      <point x="577" y="288"/>
      <point x="572" y="288"/>
      <point x="559" y="288" type="curve" smooth="yes"/>
    </contour>
  </outline>
</glyph>
<glyph name="B" format="1">
  <advance width="769"/>
  <unicode hex="0042"/>
  <outline>
    <contour>
      <point x="62" y="-5" type="curve" smooth="yes"/>
      <point x="139" y="-5"/>
      <point x="165" y="0"/>
      <point x="234" y="0" type="curve" smooth="yes"/>
      <point x="287" y="0"/>
      <point x="336" y="-4"/>
      <point x="359" y="-4" type="curve" smooth="yes"/>
      <point x="451" y="-4"/>
      <point x="527" y="9"/>
      <point x="587" y="32" type="curve" smooth="yes"/>
      <point x="649" y="56"/>
      <point x="718" y="95"/>
      <point x="718" y="195" type="curve" smooth="yes"/>
      <point x="718" y="311"/>
      <point x="596" y="346"/>
      <point x="502" y="360" type="curve" smooth="yes"/>
      <point x="494" y="361"/>
      <point x="495" y="367"/>
      <point x="503" y="368" type="curve" smooth="yes"/>
      <point x="550" y="376"/>
      <point x="595" y="388"/>
      <point x="626" y="410" type="curve" smooth="yes"/>
      <point x="650" y="427"/>
      <point x="676" y="463"/>
      <point x="676" y="509" type="curve" smooth="yes"/>
      <point x="676" y="619"/>
      <point x="572" y="659"/>
      <point x="360" y="659" type="curve" smooth="yes"/>
      <point x="283" y="659"/>
      <point x="264" y="654"/>
      <point x="214" y="654" type="curve" smooth="yes"/>
      <point x="160" y="654"/>
      <point x="148" y="655"/>
      <point x="76" y="655" type="curve" smooth="yes"/>
      <point x="53" y="655"/>
      <point x="39" y="650"/>
      <point x="36" y="640" type="curve" smooth="yes"/>
      <point x="36" y="631"/>
      <point x="47" y="623"/>
      <point x="72" y="621" type="curve" smooth="yes"/>
      <point x="126" y="615"/>
      <point x="144" y="598"/>
      <point x="144" y="547" type="curve" smooth="yes"/>
      <point x="144" y="98" type="line" smooth="yes"/>
      <point x="144" y="50"/>
      <point x="116" y="36"/>
      <point x="60" y="29" type="curve" smooth="yes"/>
      <point x="35" y="24"/>
      <point x="25" y="19"/>
      <point x="25" y="9" type="curve" smooth="yes"/>
      <point x="25" y="0"/>
      <point x="40" y="-5"/>
    </contour>
    <contour>
      <point x="353" y="41" type="curve" smooth="yes"/>
      <point x="272" y="41"/>
      <point x="228" y="57"/>
      <point x="228" y="111" type="curve" smooth="yes"/>
      <point x="228" y="303" type="line" smooth="yes"/>
      <point x="228" y="316"/>
      <point x="250" y="338"/>
      <point x="318" y="338" type="curve" smooth="yes"/>
      <point x="423" y="338"/>
      <point x="492" y="328"/>
      <point x="535" y="311" type="curve" smooth="yes"/>
      <point x="583" y="291"/>
      <point x="618" y="253"/>
      <point x="618" y="189" type="curve" smooth="yes"/>
      <point x="618" y="102"/>
      <point x="523" y="41"/>
    </contour>
    <contour>
      <point x="305" y="378" type="curve" smooth="yes"/>
      <point x="278" y="378"/>
      <point x="228" y="380"/>
      <point x="228" y="412" type="curve" smooth="yes"/>
      <point x="228" y="576" type="line" smooth="yes"/>
      <point x="228" y="604"/>
      <point x="246" y="618"/>
      <point x="339" y="618" type="curve" smooth="yes"/>
      <point x="547" y="618"/>
      <point x="585" y="554"/>
      <point x="585" y="494" type="curve" smooth="yes"/>
      <point x="585" y="440"/>
      <point x="538" y="413"/>
      <point x="511" y="403" type="curve" smooth="yes"/>
      <point x="449" y="383"/>
      <point x="375" y="378"/>
    </contour>
  </outline>
</glyph>
<glyph name="C" format="1">
  <advance width="907"/>
  <unicode hex="0043"/>
  <outline>
    <contour>
      <point x="523" y="-16" type="curve" smooth="yes"/>
      <point x="605" y="-16"/>
      <point x="706" y="-6"/>
      <point x="768" y="13" type="curve" smooth="yes"/>
      <point x="795" y="21"/>
      <point x="798" y="21"/>
      <point x="809" y="43" type="curve" smooth="yes"/>
      <point x="823" y="74"/>
      <point x="835" y="134"/>
      <point x="836" y="151" type="curve" smooth="yes"/>
      <point x="837" y="178"/>
      <point x="805" y="183"/>
      <point x="790" y="157" type="curve" smooth="yes"/>
      <point x="745" y="68"/>
      <point x="688" y="29"/>
      <point x="530" y="29" type="curve" smooth="yes"/>
      <point x="303" y="29"/>
      <point x="166" y="188"/>
      <point x="166" y="346" type="curve" smooth="yes"/>
      <point x="166" y="486"/>
      <point x="314" y="617"/>
      <point x="521" y="617" type="curve" smooth="yes"/>
      <point x="629" y="617"/>
      <point x="688" y="605"/>
      <point x="724" y="582" type="curve" smooth="yes"/>
      <point x="760" y="559"/>
      <point x="775" y="528"/>
      <point x="791" y="479" type="curve" smooth="yes"/>
      <point x="801" y="450"/>
      <point x="834" y="461"/>
      <point x="832" y="480" type="curve" smooth="yes"/>
      <point x="829" y="532"/>
      <point x="823" y="573"/>
      <point x="820" y="604" type="curve" smooth="yes"/>
      <point x="818" y="622"/>
      <point x="809" y="632"/>
      <point x="783" y="638" type="curve" smooth="yes"/>
      <point x="699" y="656"/>
      <point x="652" y="664"/>
      <point x="555" y="664" type="curve" smooth="yes"/>
      <point x="292" y="664"/>
      <point x="59" y="518"/>
      <point x="59" y="323" type="curve" smooth="yes"/>
      <point x="59" y="118"/>
      <point x="283" y="-16"/>
    </contour>
  </outline>
</glyph>
<glyph name="D" format="1">
  <advance width="980"/>
  <unicode hex="0044"/>
  <outline>
    <contour>
      <point x="482" y="-7" type="curve" smooth="yes"/>
      <point x="731" y="-7"/>
      <point x="935" y="150"/>
      <point x="935" y="342" type="curve" smooth="yes"/>
      <point x="935" y="517"/>
      <point x="794" y="659"/>
      <point x="442" y="659" type="curve" smooth="yes"/>
      <point x="407" y="659"/>
      <point x="275" y="651"/>
      <point x="219" y="651" type="curve" smooth="yes"/>
      <point x="157" y="651"/>
      <point x="142" y="653"/>
      <point x="75" y="653" type="curve" smooth="yes"/>
      <point x="53" y="653"/>
      <point x="37" y="649"/>
      <point x="37" y="638" type="curve" smooth="yes"/>
      <point x="37" y="626"/>
      <point x="49" y="623"/>
      <point x="74" y="618" type="curve" smooth="yes"/>
      <point x="134" y="610"/>
      <point x="148" y="595"/>
      <point x="148" y="548" type="curve" smooth="yes"/>
      <point x="148" y="120" type="line" smooth="yes"/>
      <point x="148" y="57"/>
      <point x="131" y="40"/>
      <point x="74" y="30" type="curve" smooth="yes"/>
      <point x="49" y="26"/>
      <point x="37" y="25"/>
      <point x="37" y="11" type="curve" smooth="yes"/>
      <point x="37" y="-2"/>
      <point x="53" y="-5"/>
      <point x="75" y="-5" type="curve" smooth="yes"/>
      <point x="144" y="-5"/>
      <point x="160" y="0"/>
      <point x="212" y="0" type="curve" smooth="yes"/>
      <point x="315" y="0"/>
      <point x="456" y="-7"/>
    </contour>
    <contour>
      <point x="451" y="40" type="curve" smooth="yes"/>
      <point x="313" y="40"/>
      <point x="234" y="56"/>
      <point x="234" y="129" type="curve" smooth="yes"/>
      <point x="234" y="539" type="line" smooth="yes"/>
      <point x="234" y="610"/>
      <point x="280" y="616"/>
      <point x="431" y="616" type="curve" smooth="yes"/>
      <point x="640" y="616"/>
      <point x="835" y="514"/>
      <point x="835" y="325" type="curve" smooth="yes"/>
      <point x="835" y="158"/>
      <point x="677" y="40"/>
    </contour>
  </outline>
</glyph>
<glyph name="E" format="1">
  <advance width="730"/>
  <unicode hex="0045"/>
  <outline>
    <contour>
      <point x="86" y="-5" type="curve" smooth="yes"/>
      <point x="156" y="-5"/>
      <point x="161" y="1"/>
      <point x="236" y="1" type="curve" smooth="yes"/>
      <point x="366" y="1"/>
      <point x="482" y="-5"/>
      <point x="649" y="-5" type="curve" smooth="yes"/>
      <point x="659" y="-5"/>
      <point x="661" y="2"/>
      <point x="666" y="12" type="curve" smooth="yes"/>
      <point x="678" y="39"/>
      <point x="697" y="132"/>
      <point x="697" y="150" type="curve" smooth="yes"/>
      <point x="697" y="158"/>
      <point x="693" y="164"/>
      <point x="681" y="165" type="curve" smooth="yes"/>
      <point x="671" y="166"/>
      <point x="663" y="158"/>
      <point x="659" y="149" type="curve" smooth="yes"/>
      <point x="639" y="106"/>
      <point x="625" y="77"/>
      <point x="605" y="61" type="curve" smooth="yes"/>
      <point x="585" y="46"/>
      <point x="557" y="43"/>
      <point x="515" y="43" type="curve" smooth="yes"/>
      <point x="323" y="43" type="line" smooth="yes"/>
      <point x="276" y="43"/>
      <point x="254" y="59"/>
      <point x="254" y="110" type="curve" smooth="yes"/>
      <point x="254" y="288" type="line" smooth="yes"/>
      <point x="254" y="311"/>
      <point x="266" y="314"/>
      <point x="290" y="314" type="curve" smooth="yes"/>
      <point x="471" y="314" type="line" smooth="yes"/>
      <point x="500" y="314"/>
      <point x="508" y="300"/>
      <point x="516" y="267" type="curve" smooth="yes"/>
      <point x="522" y="245"/>
      <point x="534" y="234"/>
      <point x="547" y="234" type="curve" smooth="yes"/>
      <point x="559" y="234"/>
      <point x="560" y="243"/>
      <point x="560" y="252" type="curve" smooth="yes"/>
      <point x="560" y="260"/>
      <point x="557" y="317"/>
      <point x="557" y="337" type="curve" smooth="yes"/>
      <point x="557" y="353"/>
      <point x="561" y="405"/>
      <point x="561" y="414" type="curve" smooth="yes"/>
      <point x="561" y="424"/>
      <point x="552" y="432"/>
      <point x="543" y="432" type="curve" smooth="yes"/>
      <point x="532" y="432"/>
      <point x="525" y="423"/>
      <point x="520" y="408" type="curve" smooth="yes"/>
      <point x="510" y="376"/>
      <point x="500" y="358"/>
      <point x="468" y="358" type="curve" smooth="yes"/>
      <point x="273" y="358" type="line" smooth="yes"/>
      <point x="263" y="358"/>
      <point x="254" y="368"/>
      <point x="254" y="380" type="curve" smooth="yes"/>
      <point x="254" y="574" type="line" smooth="yes"/>
      <point x="254" y="596"/>
      <point x="275" y="607"/>
      <point x="296" y="607" type="curve" smooth="yes"/>
      <point x="530" y="607" type="line" smooth="yes"/>
      <point x="564" y="607"/>
      <point x="582" y="599"/>
      <point x="599" y="576" type="curve" smooth="yes"/>
      <point x="608" y="564"/>
      <point x="616" y="537"/>
      <point x="622" y="519" type="curve" smooth="yes"/>
      <point x="625" y="508"/>
      <point x="631" y="502"/>
      <point x="641" y="502" type="curve" smooth="yes"/>
      <point x="650" y="502"/>
      <point x="658" y="508"/>
      <point x="658" y="520" type="curve" smooth="yes"/>
      <point x="658" y="547"/>
      <point x="650" y="606"/>
      <point x="642" y="642" type="curve"/>
      <point x="640" y="650"/>
      <point x="628" y="653"/>
      <point x="618" y="653" type="curve" smooth="yes"/>
      <point x="612" y="653"/>
      <point x="563" y="652"/>
      <point x="504" y="651" type="curve" smooth="yes"/>
      <point x="450" y="651"/>
      <point x="383" y="650"/>
      <point x="326" y="650" type="curve" smooth="yes"/>
      <point x="234" y="650"/>
      <point x="193" y="653"/>
      <point x="95" y="653" type="curve" smooth="yes"/>
      <point x="73" y="653"/>
      <point x="57" y="648"/>
      <point x="56" y="638" type="curve" smooth="yes"/>
      <point x="56" y="627"/>
      <point x="66" y="619"/>
      <point x="93" y="615" type="curve" smooth="yes"/>
      <point x="149" y="606"/>
      <point x="169" y="594"/>
      <point x="169" y="555" type="curve" smooth="yes"/>
      <point x="169" y="101" type="line" smooth="yes"/>
      <point x="169" y="54"/>
      <point x="145" y="40"/>
      <point x="85" y="31" type="curve" smooth="yes"/>
      <point x="59" y="27"/>
      <point x="48" y="20"/>
      <point x="48" y="9" type="curve" smooth="yes"/>
      <point x="48" y="-1"/>
      <point x="64" y="-5"/>
    </contour>
  </outline>
</glyph>
<glyph name="F" format="1">
  <advance width="661"/>
  <unicode hex="0046"/>
  <outline>
    <contour>
      <point x="81" y="-4" type="curve" smooth="yes"/>
      <point x="142" y="-4"/>
      <point x="165" y="0"/>
      <point x="220" y="1" type="curve" smooth="yes"/>
      <point x="264" y="0"/>
      <point x="277" y="-4"/>
      <point x="338" y="-4" type="curve" smooth="yes"/>
      <point x="357" y="-4"/>
      <point x="371" y="-1"/>
      <point x="371" y="9" type="curve" smooth="yes"/>
      <point x="371" y="21"/>
      <point x="360" y="29"/>
      <point x="333" y="32" type="curve" smooth="yes"/>
      <point x="270" y="41"/>
      <point x="253" y="60"/>
      <point x="252" y="99" type="curve" smooth="yes"/>
      <point x="249" y="179"/>
      <point x="249" y="225"/>
      <point x="249" y="287" type="curve" smooth="yes"/>
      <point x="249" y="306"/>
      <point x="261" y="312"/>
      <point x="278" y="312" type="curve" smooth="yes"/>
      <point x="312" y="313"/>
      <point x="345" y="314"/>
      <point x="380" y="314" type="curve" smooth="yes"/>
      <point x="409" y="314"/>
      <point x="441" y="313"/>
      <point x="470" y="313" type="curve" smooth="yes"/>
      <point x="489" y="313"/>
      <point x="499" y="301"/>
      <point x="510" y="266" type="curve" smooth="yes"/>
      <point x="515" y="251"/>
      <point x="524" y="238"/>
      <point x="541" y="238" type="curve" smooth="yes"/>
      <point x="552" y="238"/>
      <point x="554" y="248"/>
      <point x="554" y="257" type="curve" smooth="yes"/>
      <point x="554" y="279"/>
      <point x="551" y="318"/>
      <point x="551" y="337" type="curve" smooth="yes"/>
      <point x="551" y="353"/>
      <point x="553" y="389"/>
      <point x="555" y="408" type="curve" smooth="yes"/>
      <point x="556" y="419"/>
      <point x="547" y="427"/>
      <point x="537" y="427" type="curve" smooth="yes"/>
      <point x="528" y="427"/>
      <point x="519" y="415"/>
      <point x="514" y="403" type="curve" smooth="yes"/>
      <point x="504" y="373"/>
      <point x="492" y="358"/>
      <point x="469" y="358" type="curve" smooth="yes"/>
      <point x="409" y="358"/>
      <point x="332" y="356"/>
      <point x="263" y="356" type="curve" smooth="yes"/>
      <point x="253" y="356"/>
      <point x="249" y="367"/>
      <point x="249" y="378" type="curve"/>
      <point x="249" y="405"/>
      <point x="249" y="428"/>
      <point x="249" y="461" type="curve" smooth="yes"/>
      <point x="249" y="496"/>
      <point x="249" y="530"/>
      <point x="249" y="558" type="curve" smooth="yes"/>
      <point x="250" y="587"/>
      <point x="258" y="607"/>
      <point x="289" y="607" type="curve" smooth="yes"/>
      <point x="507" y="607" type="line" smooth="yes"/>
      <point x="544" y="607"/>
      <point x="560" y="598"/>
      <point x="574" y="580" type="curve" smooth="yes"/>
      <point x="582" y="570"/>
      <point x="589" y="546"/>
      <point x="594" y="527" type="curve" smooth="yes"/>
      <point x="597" y="516"/>
      <point x="604" y="511"/>
      <point x="615" y="511" type="curve" smooth="yes"/>
      <point x="623" y="511"/>
      <point x="628" y="520"/>
      <point x="628" y="532" type="curve" smooth="yes"/>
      <point x="628" y="549"/>
      <point x="624" y="622"/>
      <point x="619" y="649" type="curve" smooth="yes"/>
      <point x="618" y="656"/>
      <point x="605" y="658"/>
      <point x="596" y="658" type="curve" smooth="yes"/>
      <point x="575" y="658"/>
      <point x="529" y="651"/>
      <point x="472" y="650" type="curve"/>
      <point x="418" y="650"/>
      <point x="334" y="650"/>
      <point x="280" y="650" type="curve" smooth="yes"/>
      <point x="206" y="650"/>
      <point x="160" y="653"/>
      <point x="94" y="653" type="curve" smooth="yes"/>
      <point x="72" y="653"/>
      <point x="56" y="649"/>
      <point x="55" y="639" type="curve" smooth="yes"/>
      <point x="55" y="628"/>
      <point x="66" y="619"/>
      <point x="92" y="615" type="curve" smooth="yes"/>
      <point x="149" y="606"/>
      <point x="164" y="589"/>
      <point x="164" y="544" type="curve" smooth="yes"/>
      <point x="164" y="97" type="line" smooth="yes"/>
      <point x="164" y="54"/>
      <point x="141" y="39"/>
      <point x="85" y="31" type="curve" smooth="yes"/>
      <point x="59" y="27"/>
      <point x="48" y="20"/>
      <point x="48" y="9" type="curve" smooth="yes"/>
      <point x="48" y="-1"/>
      <point x="62" y="-4"/>
    </contour>
  </outline>
</glyph>
<glyph name="G" format="1">
  <advance width="951"/>
  <unicode hex="0047"/>
  <outline>
    <contour>
      <point x="512" y="-15" type="curve" smooth="yes"/>
      <point x="679" y="-15"/>
      <point x="797" y="49"/>
      <point x="823" y="52" type="curve" smooth="yes"/>
      <point x="841" y="54"/>
      <point x="841" y="66"/>
      <point x="841" y="71" type="curve" smooth="yes"/>
      <point x="841" y="76"/>
      <point x="829" y="81"/>
      <point x="824" y="88" type="curve"/>
      <point x="820" y="94"/>
      <point x="817" y="97"/>
      <point x="817" y="104" type="curve" smooth="yes"/>
      <point x="817" y="131" type="line" smooth="yes"/>
      <point x="817" y="158"/>
      <point x="819" y="188"/>
      <point x="825" y="210" type="curve" smooth="yes"/>
      <point x="832" y="235"/>
      <point x="845" y="248"/>
      <point x="877" y="254" type="curve" smooth="yes"/>
      <point x="884" y="254"/>
      <point x="904" y="264"/>
      <point x="904" y="273" type="curve" smooth="yes"/>
      <point x="904" y="287"/>
      <point x="886" y="290"/>
      <point x="880" y="290" type="curve" smooth="yes"/>
      <point x="838" y="290"/>
      <point x="818" y="286"/>
      <point x="777" y="286" type="curve" smooth="yes"/>
      <point x="713" y="286"/>
      <point x="688" y="290"/>
      <point x="631" y="290" type="curve" smooth="yes"/>
      <point x="622" y="290"/>
      <point x="603" y="283"/>
      <point x="603" y="270" type="curve" smooth="yes"/>
      <point x="603" y="256"/>
      <point x="623" y="249"/>
      <point x="631" y="249" type="curve" smooth="yes"/>
      <point x="653" y="249"/>
      <point x="718" y="242"/>
      <point x="738" y="229" type="curve" smooth="yes"/>
      <point x="744" y="226"/>
      <point x="746" y="214"/>
      <point x="746" y="197" type="curve" smooth="yes"/>
      <point x="746" y="174"/>
      <point x="744" y="156"/>
      <point x="744" y="142" type="curve" smooth="yes"/>
      <point x="744" y="108"/>
      <point x="727" y="83"/>
      <point x="709" y="68" type="curve" smooth="yes"/>
      <point x="693" y="55"/>
      <point x="643" y="33"/>
      <point x="530" y="33" type="curve" smooth="yes"/>
      <point x="343" y="33"/>
      <point x="162" y="140"/>
      <point x="162" y="324" type="curve" smooth="yes"/>
      <point x="162" y="477"/>
      <point x="310" y="615"/>
      <point x="529" y="615" type="curve" smooth="yes"/>
      <point x="659" y="615"/>
      <point x="730" y="578"/>
      <point x="751" y="558" type="curve" smooth="yes"/>
      <point x="767" y="540"/>
      <point x="773" y="522"/>
      <point x="781" y="500" type="curve" smooth="yes"/>
      <point x="785" y="487"/>
      <point x="791" y="471"/>
      <point x="805" y="471" type="curve" smooth="yes"/>
      <point x="818" y="471"/>
      <point x="826" y="481"/>
      <point x="826" y="491" type="curve" smooth="yes"/>
      <point x="826" y="522"/>
      <point x="819" y="573"/>
      <point x="813" y="619" type="curve" smooth="yes"/>
      <point x="811" y="626"/>
      <point x="809" y="628"/>
      <point x="801" y="631" type="curve" smooth="yes"/>
      <point x="766" y="644"/>
      <point x="601" y="664"/>
      <point x="541" y="664" type="curve" smooth="yes"/>
      <point x="280" y="664"/>
      <point x="58" y="510"/>
      <point x="58" y="311" type="curve" smooth="yes"/>
      <point x="58" y="126"/>
      <point x="270" y="-15"/>
    </contour>
  </outline>
</glyph>
<glyph name="H" format="1">
  <advance width="1060"/>
  <unicode hex="0048"/>
  <outline>
    <contour>
      <point x="80" y="-4" type="curve" smooth="yes"/>
      <point x="144" y="-4"/>
      <point x="154" y="1"/>
      <point x="202" y="1" type="curve" smooth="yes"/>
      <point x="253" y="1"/>
      <point x="268" y="-4"/>
      <point x="328" y="-4" type="curve" smooth="yes"/>
      <point x="347" y="-4"/>
      <point x="359" y="1"/>
      <point x="359" y="11" type="curve" smooth="yes"/>
      <point x="359" y="22"/>
      <point x="349" y="26"/>
      <point x="322" y="32" type="curve" smooth="yes"/>
      <point x="268" y="39"/>
      <point x="239" y="61"/>
      <point x="239" y="101" type="curve" smooth="yes"/>
      <point x="239" y="291" type="line" smooth="yes"/>
      <point x="239" y="300"/>
      <point x="241" y="304"/>
      <point x="246" y="304" type="curve" smooth="yes"/>
      <point x="813" y="304" type="line" smooth="yes"/>
      <point x="819" y="304"/>
      <point x="821" y="299"/>
      <point x="821" y="290" type="curve" smooth="yes"/>
      <point x="821" y="100" type="line" smooth="yes"/>
      <point x="821" y="56"/>
      <point x="797" y="39"/>
      <point x="745" y="30" type="curve" smooth="yes"/>
      <point x="719" y="26"/>
      <point x="709" y="22"/>
      <point x="709" y="11" type="curve" smooth="yes"/>
      <point x="709" y="1"/>
      <point x="720" y="-4"/>
      <point x="740" y="-4" type="curve" smooth="yes"/>
      <point x="800" y="-4"/>
      <point x="810" y="1"/>
      <point x="858" y="1" type="curve" smooth="yes"/>
      <point x="905" y="1"/>
      <point x="913" y="-4"/>
      <point x="976" y="-4" type="curve" smooth="yes"/>
      <point x="996" y="-4"/>
      <point x="1008" y="1"/>
      <point x="1008" y="11" type="curve" smooth="yes"/>
      <point x="1008" y="22"/>
      <point x="997" y="26"/>
      <point x="970" y="32" type="curve" smooth="yes"/>
      <point x="913" y="39"/>
      <point x="906" y="53"/>
      <point x="906" y="97" type="curve" smooth="yes"/>
      <point x="906" y="554" type="line" smooth="yes"/>
      <point x="906" y="596"/>
      <point x="912" y="611"/>
      <point x="969" y="618" type="curve" smooth="yes"/>
      <point x="997" y="622"/>
      <point x="1008" y="627"/>
      <point x="1008" y="638" type="curve" smooth="yes"/>
      <point x="1008" y="648"/>
      <point x="996" y="654"/>
      <point x="975" y="654" type="curve" smooth="yes"/>
      <point x="912" y="654"/>
      <point x="907" y="649"/>
      <point x="862" y="649" type="curve" smooth="yes"/>
      <point x="813" y="649"/>
      <point x="800" y="654"/>
      <point x="740" y="654" type="curve" smooth="yes"/>
      <point x="721" y="654"/>
      <point x="709" y="648"/>
      <point x="709" y="638" type="curve" smooth="yes"/>
      <point x="709" y="627"/>
      <point x="720" y="623"/>
      <point x="746" y="619" type="curve" smooth="yes"/>
      <point x="801" y="613"/>
      <point x="821" y="595"/>
      <point x="821" y="557" type="curve" smooth="yes"/>
      <point x="821" y="361" type="line" smooth="yes"/>
      <point x="821" y="351"/>
      <point x="815" y="349"/>
      <point x="809" y="349" type="curve" smooth="yes"/>
      <point x="253" y="349" type="line" smooth="yes"/>
      <point x="246" y="349"/>
      <point x="239" y="350"/>
      <point x="239" y="360" type="curve" smooth="yes"/>
      <point x="239" y="557" type="line" smooth="yes"/>
      <point x="239" y="593"/>
      <point x="263" y="611"/>
      <point x="319" y="618" type="curve" smooth="yes"/>
      <point x="345" y="622"/>
      <point x="356" y="627"/>
      <point x="356" y="638" type="curve" smooth="yes"/>
      <point x="356" y="648"/>
      <point x="345" y="654"/>
      <point x="324" y="654" type="curve" smooth="yes"/>
      <point x="265" y="654"/>
      <point x="252" y="649"/>
      <point x="202" y="649" type="curve" smooth="yes"/>
      <point x="155" y="649"/>
      <point x="146" y="654"/>
      <point x="82" y="654" type="curve" smooth="yes"/>
      <point x="62" y="654"/>
      <point x="50" y="648"/>
      <point x="50" y="638" type="curve" smooth="yes"/>
      <point x="50" y="627"/>
      <point x="61" y="623"/>
      <point x="89" y="618" type="curve" smooth="yes"/>
      <point x="145" y="608"/>
      <point x="154" y="597"/>
      <point x="154" y="554" type="curve" smooth="yes"/>
      <point x="154" y="96" type="line" smooth="yes"/>
      <point x="154" y="53"/>
      <point x="144" y="39"/>
      <point x="86" y="32" type="curve" smooth="yes"/>
      <point x="59" y="26"/>
      <point x="48" y="22"/>
      <point x="48" y="11" type="curve" smooth="yes"/>
      <point x="48" y="1"/>
      <point x="60" y="-4"/>
    </contour>
  </outline>
</glyph>
<glyph name="I" format="1">
  <advance width="382"/>
  <unicode hex="0049"/>
  <outline>
    <contour>
      <point x="57" y="-4" type="curve" smooth="yes"/>
      <point x="118" y="-4"/>
      <point x="142" y="1"/>
      <point x="197" y="1" type="curve" smooth="yes"/>
      <point x="248" y="1"/>
      <point x="265" y="-4"/>
      <point x="326" y="-4" type="curve" smooth="yes"/>
      <point x="345" y="-4"/>
      <point x="359" y="-1"/>
      <point x="359" y="9" type="curve" smooth="yes"/>
      <point x="359" y="20"/>
      <point x="347" y="27"/>
      <point x="321" y="32" type="curve" smooth="yes"/>
      <point x="263" y="40"/>
      <point x="233" y="55"/>
      <point x="233" y="98" type="curve" smooth="yes"/>
      <point x="233" y="545" type="line" smooth="yes"/>
      <point x="233" y="590"/>
      <point x="257" y="606"/>
      <point x="315" y="614" type="curve" smooth="yes"/>
      <point x="341" y="620"/>
      <point x="353" y="628"/>
      <point x="353" y="639" type="curve" smooth="yes"/>
      <point x="353" y="649"/>
      <point x="339" y="653"/>
      <point x="321" y="653" type="curve" smooth="yes"/>
      <point x="260" y="653"/>
      <point x="246" y="649"/>
      <point x="197" y="649" type="curve" smooth="yes"/>
      <point x="145" y="649"/>
      <point x="126" y="653"/>
      <point x="65" y="653" type="curve" smooth="yes"/>
      <point x="46" y="653"/>
      <point x="32" y="649"/>
      <point x="32" y="639" type="curve" smooth="yes"/>
      <point x="32" y="628"/>
      <point x="44" y="620"/>
      <point x="70" y="614" type="curve" smooth="yes"/>
      <point x="128" y="606"/>
      <point x="148" y="590"/>
      <point x="148" y="545" type="curve" smooth="yes"/>
      <point x="148" y="98" type="line" smooth="yes"/>
      <point x="148" y="55"/>
      <point x="120" y="40"/>
      <point x="63" y="32" type="curve" smooth="yes"/>
      <point x="36" y="27"/>
      <point x="25" y="20"/>
      <point x="25" y="9" type="curve" smooth="yes"/>
      <point x="25" y="-1"/>
      <point x="38" y="-4"/>
    </contour>
  </outline>
</glyph>
<glyph name="J" format="1">
  <advance width="345"/>
  <unicode hex="004A"/>
  <outline>
    <contour>
      <point x="8" y="-200" type="curve" smooth="yes"/>
      <point x="65" y="-200"/>
      <point x="102" y="-179"/>
      <point x="142" y="-147" type="curve" smooth="yes"/>
      <point x="187" y="-105"/>
      <point x="233" y="-35"/>
      <point x="233" y="65" type="curve" smooth="yes"/>
      <point x="233" y="545" type="line" smooth="yes"/>
      <point x="233" y="590"/>
      <point x="257" y="606"/>
      <point x="315" y="614" type="curve" smooth="yes"/>
      <point x="341" y="620"/>
      <point x="353" y="628"/>
      <point x="353" y="639" type="curve" smooth="yes"/>
      <point x="353" y="649"/>
      <point x="339" y="653"/>
      <point x="321" y="653" type="curve" smooth="yes"/>
      <point x="260" y="653"/>
      <point x="246" y="649"/>
      <point x="197" y="649" type="curve" smooth="yes"/>
      <point x="145" y="649"/>
      <point x="126" y="653"/>
      <point x="65" y="653" type="curve" smooth="yes"/>
      <point x="46" y="653"/>
      <point x="32" y="649"/>
      <point x="32" y="639" type="curve" smooth="yes"/>
      <point x="32" y="628"/>
      <point x="44" y="620"/>
      <point x="70" y="614" type="curve" smooth="yes"/>
      <point x="128" y="606"/>
      <point x="148" y="590"/>
      <point x="148" y="545" type="curve" smooth="yes"/>
      <point x="148" y="17" type="line" smooth="yes"/>
      <point x="148" y="-87"/>
      <point x="104" y="-154"/>
      <point x="39" y="-154" type="curve" smooth="yes"/>
      <point x="7" y="-154"/>
      <point x="-14" y="-143"/>
      <point x="-32" y="-126" type="curve" smooth="yes"/>
      <point x="-47" y="-113"/>
      <point x="-61" y="-104"/>
      <point x="-80" y="-104" type="curve" smooth="yes"/>
      <point x="-101" y="-104"/>
      <point x="-122" y="-126"/>
      <point x="-122" y="-149" type="curve" smooth="yes"/>
      <point x="-122" y="-183"/>
      <point x="-86" y="-200"/>
    </contour>
  </outline>
</glyph>
<glyph name="K" format="1">
  <advance width="896"/>
  <unicode hex="004B"/>
  <outline>
    <contour>
      <point x="80" y="-5" type="curve" smooth="yes"/>
      <point x="142" y="-5"/>
      <point x="156" y="2"/>
      <point x="206" y="2" type="curve" smooth="yes"/>
      <point x="254" y="2"/>
      <point x="265" y="-5"/>
      <point x="325" y="-5" type="curve" smooth="yes"/>
      <point x="345" y="-5"/>
      <point x="357" y="1"/>
      <point x="357" y="11" type="curve" smooth="yes"/>
      <point x="357" y="22"/>
      <point x="346" y="26"/>
      <point x="320" y="31" type="curve" smooth="yes"/>
      <point x="265" y="41"/>
      <point x="242" y="61"/>
      <point x="242" y="102" type="curve"/>
      <point x="241" y="183"/>
      <point x="240" y="235"/>
      <point x="240" y="299" type="curve" smooth="yes"/>
      <point x="240" y="306"/>
      <point x="239" y="320"/>
      <point x="247" y="320" type="curve" smooth="yes"/>
      <point x="254" y="320"/>
      <point x="269" y="312"/>
      <point x="280" y="304" type="curve"/>
      <point x="629" y="60" type="line" smooth="yes"/>
      <point x="636" y="55"/>
      <point x="640" y="51"/>
      <point x="639" y="48" type="curve" smooth="yes"/>
      <point x="639" y="43"/>
      <point x="631" y="40"/>
      <point x="615" y="38" type="curve"/>
      <point x="594" y="33"/>
      <point x="583" y="27"/>
      <point x="583" y="14" type="curve" smooth="yes"/>
      <point x="583" y="3"/>
      <point x="597" y="-1"/>
      <point x="617" y="-1" type="curve" smooth="yes"/>
      <point x="669" y="-1"/>
      <point x="681" y="0"/>
      <point x="710" y="0" type="curve" smooth="yes"/>
      <point x="774" y="0"/>
      <point x="803" y="-5"/>
      <point x="872" y="-5" type="curve" smooth="yes"/>
      <point x="891" y="-5"/>
      <point x="905" y="-1"/>
      <point x="905" y="10" type="curve" smooth="yes"/>
      <point x="905" y="23"/>
      <point x="892" y="29"/>
      <point x="859" y="34" type="curve" smooth="yes"/>
      <point x="816" y="41"/>
      <point x="775" y="51"/>
      <point x="718" y="95" type="curve" smooth="yes"/>
      <point x="362" y="346" type="line" smooth="yes"/>
      <point x="353" y="353"/>
      <point x="349" y="359"/>
      <point x="356" y="364" type="curve"/>
      <point x="461" y="442"/>
      <point x="573" y="511"/>
      <point x="682" y="569" type="curve" smooth="yes"/>
      <point x="733" y="600"/>
      <point x="777" y="610"/>
      <point x="836" y="615" type="curve" smooth="yes"/>
      <point x="873" y="619"/>
      <point x="888" y="629"/>
      <point x="888" y="641" type="curve" smooth="yes"/>
      <point x="888" y="650"/>
      <point x="874" y="655"/>
      <point x="855" y="655" type="curve" smooth="yes"/>
      <point x="839" y="655"/>
      <point x="749" y="651"/>
      <point x="680" y="651" type="curve" smooth="yes"/>
      <point x="611" y="651" type="line" smooth="yes"/>
      <point x="590" y="651"/>
      <point x="574" y="647"/>
      <point x="574" y="637" type="curve" smooth="yes"/>
      <point x="574" y="626"/>
      <point x="581" y="620"/>
      <point x="606" y="614" type="curve"/>
      <point x="625" y="613"/>
      <point x="633" y="609"/>
      <point x="633" y="603" type="curve" smooth="yes"/>
      <point x="633" y="597"/>
      <point x="627" y="590"/>
      <point x="613" y="581" type="curve" smooth="yes"/>
      <point x="287" y="368" type="line"/>
      <point x="276" y="360"/>
      <point x="257" y="350"/>
      <point x="247" y="350" type="curve" smooth="yes"/>
      <point x="240" y="350"/>
      <point x="240" y="364"/>
      <point x="240" y="369" type="curve" smooth="yes"/>
      <point x="240" y="547" type="line" smooth="yes"/>
      <point x="240" y="588"/>
      <point x="250" y="609"/>
      <point x="305" y="616" type="curve" smooth="yes"/>
      <point x="331" y="620"/>
      <point x="342" y="629"/>
      <point x="342" y="638" type="curve" smooth="yes"/>
      <point x="342" y="647"/>
      <point x="330" y="653"/>
      <point x="310" y="653" type="curve" smooth="yes"/>
      <point x="251" y="653"/>
      <point x="245" y="650"/>
      <point x="200" y="650" type="curve" smooth="yes"/>
      <point x="151" y="650"/>
      <point x="140" y="653"/>
      <point x="77" y="653" type="curve" smooth="yes"/>
      <point x="56" y="653"/>
      <point x="44" y="649"/>
      <point x="44" y="640" type="curve" smooth="yes"/>
      <point x="44" y="630"/>
      <point x="55" y="623"/>
      <point x="83" y="619" type="curve" smooth="yes"/>
      <point x="142" y="610"/>
      <point x="155" y="598"/>
      <point x="155" y="552" type="curve" smooth="yes"/>
      <point x="155" y="98" type="line" smooth="yes"/>
      <point x="155" y="53"/>
      <point x="143" y="38"/>
      <point x="85" y="31" type="curve" smooth="yes"/>
      <point x="57" y="27"/>
      <point x="46" y="22"/>
      <point x="46" y="11" type="curve" smooth="yes"/>
      <point x="46" y="1"/>
      <point x="59" y="-5"/>
    </contour>
  </outline>
</glyph>
<glyph name="L" format="1">
  <advance width="755"/>
  <unicode hex="004C"/>
  <outline>
    <contour>
      <point x="85" y="-5" type="curve"/>
      <point x="117" y="-5"/>
      <point x="170" y="0"/>
      <point x="249" y="0" type="curve" smooth="yes"/>
      <point x="379" y="0"/>
      <point x="526" y="-5"/>
      <point x="697" y="-5" type="curve" smooth="yes"/>
      <point x="709" y="-5"/>
      <point x="712" y="2"/>
      <point x="714" y="12" type="curve" smooth="yes"/>
      <point x="721" y="54"/>
      <point x="732" y="103"/>
      <point x="743" y="151" type="curve" smooth="yes"/>
      <point x="744" y="155"/>
      <point x="745" y="159"/>
      <point x="745" y="163" type="curve" smooth="yes"/>
      <point x="745" y="171"/>
      <point x="739" y="179"/>
      <point x="726" y="180" type="curve" smooth="yes"/>
      <point x="715" y="180"/>
      <point x="706" y="167"/>
      <point x="697" y="146" type="curve" smooth="yes"/>
      <point x="681" y="111"/>
      <point x="672" y="92"/>
      <point x="651" y="71" type="curve" smooth="yes"/>
      <point x="635" y="54"/>
      <point x="607" y="43"/>
      <point x="570" y="43" type="curve" smooth="yes"/>
      <point x="328" y="43" type="line" smooth="yes"/>
      <point x="266" y="43"/>
      <point x="252" y="62"/>
      <point x="252" y="106" type="curve" smooth="yes"/>
      <point x="252" y="563" type="line" smooth="yes"/>
      <point x="252" y="601"/>
      <point x="286" y="608"/>
      <point x="342" y="616" type="curve" smooth="yes"/>
      <point x="372" y="620"/>
      <point x="384" y="629"/>
      <point x="384" y="640" type="curve" smooth="yes"/>
      <point x="384" y="650"/>
      <point x="370" y="653"/>
      <point x="351" y="653" type="curve" smooth="yes"/>
      <point x="290" y="653"/>
      <point x="269" y="650"/>
      <point x="216" y="650" type="curve" smooth="yes"/>
      <point x="166" y="650"/>
      <point x="148" y="653"/>
      <point x="88" y="653" type="curve" smooth="yes"/>
      <point x="68" y="653"/>
      <point x="55" y="650"/>
      <point x="55" y="640" type="curve" smooth="yes"/>
      <point x="55" y="629"/>
      <point x="66" y="619"/>
      <point x="93" y="616" type="curve" smooth="yes"/>
      <point x="150" y="607"/>
      <point x="166" y="602"/>
      <point x="166" y="558" type="curve" smooth="yes"/>
      <point x="166" y="94" type="line" smooth="yes"/>
      <point x="166" y="54"/>
      <point x="140" y="39"/>
      <point x="82" y="31" type="curve" smooth="yes"/>
      <point x="65" y="28"/>
      <point x="48" y="23"/>
      <point x="48" y="9" type="curve" smooth="yes"/>
      <point x="48" y="1"/>
      <point x="62" y="-5"/>
    </contour>
  </outline>
</glyph>
<glyph name="M" format="1">
  <advance width="1153"/>
  <unicode hex="004D"/>
  <outline>
    <contour>
      <point x="64" y="-5" type="curve" smooth="yes"/>
      <point x="127" y="-5"/>
      <point x="128" y="0"/>
      <point x="170" y="0" type="curve" smooth="yes"/>
      <point x="211" y="0"/>
      <point x="214" y="-5"/>
      <point x="275" y="-5" type="curve" smooth="yes"/>
      <point x="294" y="-5"/>
      <point x="307" y="-1"/>
      <point x="307" y="9" type="curve" smooth="yes"/>
      <point x="307" y="21"/>
      <point x="296" y="27"/>
      <point x="269" y="32" type="curve" smooth="yes"/>
      <point x="218" y="41"/>
      <point x="195" y="70"/>
      <point x="195" y="112" type="curve" smooth="yes"/>
      <point x="198" y="233"/>
      <point x="219" y="365"/>
      <point x="242" y="498" type="curve" smooth="yes"/>
      <point x="243" y="505"/>
      <point x="252" y="505"/>
      <point x="256" y="498" type="curve" smooth="yes"/>
      <point x="345" y="321"/>
      <point x="436" y="152"/>
      <point x="503" y="-3" type="curve" smooth="yes"/>
      <point x="507" y="-13"/>
      <point x="527" y="-13"/>
      <point x="532" y="-4" type="curve" smooth="yes"/>
      <point x="851" y="497" type="line" smooth="yes"/>
      <point x="860" y="510"/>
      <point x="868" y="511"/>
      <point x="870" y="497" type="curve"/>
      <point x="880" y="367"/>
      <point x="885" y="247"/>
      <point x="885" y="90" type="curve" smooth="yes"/>
      <point x="885" y="52"/>
      <point x="871" y="38"/>
      <point x="825" y="33" type="curve" smooth="yes"/>
      <point x="797" y="30"/>
      <point x="786" y="21"/>
      <point x="786" y="10" type="curve" smooth="yes"/>
      <point x="786" y="-1"/>
      <point x="800" y="-5"/>
      <point x="819" y="-5" type="curve" smooth="yes"/>
      <point x="881" y="-5"/>
      <point x="893" y="0"/>
      <point x="940" y="0" type="curve" smooth="yes"/>
      <point x="992" y="0"/>
      <point x="1012" y="-5"/>
      <point x="1073" y="-5" type="curve" smooth="yes"/>
      <point x="1093" y="-5"/>
      <point x="1107" y="-1"/>
      <point x="1107" y="10" type="curve" smooth="yes"/>
      <point x="1107" y="21"/>
      <point x="1095" y="30"/>
      <point x="1068" y="33" type="curve" smooth="yes"/>
      <point x="1009" y="40"/>
      <point x="980" y="57"/>
      <point x="978" y="89" type="curve" smooth="yes"/>
      <point x="972" y="253"/>
      <point x="956" y="386"/>
      <point x="956" y="552" type="curve" smooth="yes"/>
      <point x="956" y="575"/>
      <point x="967" y="592"/>
      <point x="987" y="598" type="curve" smooth="yes"/>
      <point x="1010" y="605"/>
      <point x="1040" y="613"/>
      <point x="1053" y="621" type="curve"/>
      <point x="1078" y="630"/>
      <point x="1086" y="635"/>
      <point x="1086" y="645" type="curve" smooth="yes"/>
      <point x="1086" y="655"/>
      <point x="1066" y="656"/>
      <point x="1058" y="656" type="curve" smooth="yes"/>
      <point x="1027" y="656"/>
      <point x="960" y="648"/>
      <point x="907" y="648" type="curve" smooth="yes"/>
      <point x="860" y="648" type="line" smooth="yes"/>
      <point x="853" y="648"/>
      <point x="850" y="643"/>
      <point x="847" y="635" type="curve" smooth="yes"/>
      <point x="841" y="614"/>
      <point x="830" y="570"/>
      <point x="823" y="548" type="curve"/>
      <point x="563" y="131" type="line" smooth="yes"/>
      <point x="557" y="121"/>
      <point x="546" y="123"/>
      <point x="541" y="133" type="curve" smooth="yes"/>
      <point x="334" y="554" type="line" smooth="yes"/>
      <point x="322" y="579"/>
      <point x="315" y="607"/>
      <point x="306" y="631" type="curve" smooth="yes"/>
      <point x="302" y="641"/>
      <point x="292" y="647"/>
      <point x="281" y="647" type="curve" smooth="yes"/>
      <point x="246" y="647"/>
      <point x="132" y="655"/>
      <point x="100" y="655" type="curve" smooth="yes"/>
      <point x="75" y="655"/>
      <point x="58" y="652"/>
      <point x="58" y="641" type="curve" smooth="yes"/>
      <point x="58" y="630"/>
      <point x="69" y="624"/>
      <point x="85" y="621" type="curve" smooth="yes"/>
      <point x="120" y="616"/>
      <point x="145" y="611"/>
      <point x="166" y="597" type="curve" smooth="yes"/>
      <point x="180" y="587"/>
      <point x="185" y="573"/>
      <point x="185" y="556" type="curve" smooth="yes"/>
      <point x="186" y="544"/>
      <point x="186" y="530"/>
      <point x="186" y="517" type="curve" smooth="yes"/>
      <point x="186" y="428"/>
      <point x="167" y="291"/>
      <point x="141" y="110" type="curve" smooth="yes"/>
      <point x="134" y="60"/>
      <point x="112" y="38"/>
      <point x="70" y="32" type="curve" smooth="yes"/>
      <point x="42" y="26"/>
      <point x="30" y="20"/>
      <point x="30" y="9" type="curve" smooth="yes"/>
      <point x="30" y="-1"/>
      <point x="44" y="-5"/>
    </contour>
  </outline>
</glyph>
<glyph name="N" format="1">
  <advance width="1001"/>
  <unicode hex="004E"/>
  <outline>
    <contour>
      <point x="851" y="-17" type="curve" smooth="yes"/>
      <point x="864" y="-17"/>
      <point x="879" y="-13"/>
      <point x="879" y="8" type="curve" smooth="yes"/>
      <point x="879" y="21"/>
      <point x="873" y="57"/>
      <point x="873" y="105" type="curve" smooth="yes"/>
      <point x="873" y="272"/>
      <point x="876" y="480"/>
      <point x="879" y="542" type="curve" smooth="yes"/>
      <point x="883" y="588"/>
      <point x="901" y="606"/>
      <point x="951" y="614" type="curve" smooth="yes"/>
      <point x="977" y="619"/>
      <point x="988" y="627"/>
      <point x="988" y="638" type="curve" smooth="yes"/>
      <point x="988" y="648"/>
      <point x="975" y="651"/>
      <point x="957" y="651" type="curve" smooth="yes"/>
      <point x="891" y="651"/>
      <point x="883" y="647"/>
      <point x="844" y="647" type="curve" smooth="yes"/>
      <point x="795" y="647"/>
      <point x="782" y="651"/>
      <point x="748" y="651" type="curve" smooth="yes"/>
      <point x="732" y="651"/>
      <point x="717" y="647"/>
      <point x="717" y="637" type="curve" smooth="yes"/>
      <point x="717" y="625"/>
      <point x="733" y="619"/>
      <point x="760" y="614" type="curve" smooth="yes"/>
      <point x="807" y="605"/>
      <point x="829" y="581"/>
      <point x="829" y="541" type="curve" smooth="yes"/>
      <point x="829" y="413"/>
      <point x="828" y="220"/>
      <point x="827" y="146" type="curve"/>
      <point x="826" y="131"/>
      <point x="821" y="125"/>
      <point x="814" y="125" type="curve" smooth="yes"/>
      <point x="804" y="125"/>
      <point x="788" y="139"/>
      <point x="782" y="145" type="curve" smooth="yes"/>
      <point x="756" y="169"/>
      <point x="274" y="609"/>
      <point x="249" y="636" type="curve"/>
      <point x="240" y="645"/>
      <point x="233" y="653"/>
      <point x="217" y="653" type="curve" smooth="yes"/>
      <point x="125" y="653"/>
      <point x="135" y="656"/>
      <point x="42" y="658" type="curve" smooth="yes"/>
      <point x="34" y="658"/>
      <point x="16" y="656"/>
      <point x="16" y="643" type="curve" smooth="yes"/>
      <point x="16" y="631"/>
      <point x="38" y="621"/>
      <point x="56" y="616" type="curve" smooth="yes"/>
      <point x="122" y="603"/>
      <point x="158" y="581"/>
      <point x="158" y="518" type="curve" smooth="yes"/>
      <point x="158" y="345"/>
      <point x="150" y="194"/>
      <point x="143" y="113" type="curve" smooth="yes"/>
      <point x="138" y="64"/>
      <point x="120" y="40"/>
      <point x="75" y="32" type="curve" smooth="yes"/>
      <point x="48" y="27"/>
      <point x="37" y="20"/>
      <point x="37" y="9" type="curve" smooth="yes"/>
      <point x="37" y="-1"/>
      <point x="49" y="-5"/>
      <point x="66" y="-5" type="curve" smooth="yes"/>
      <point x="128" y="-5"/>
      <point x="129" y="0"/>
      <point x="168" y="0" type="curve" smooth="yes"/>
      <point x="209" y="0"/>
      <point x="212" y="-5"/>
      <point x="274" y="-5" type="curve" smooth="yes"/>
      <point x="292" y="-5"/>
      <point x="304" y="-1"/>
      <point x="304" y="9" type="curve" smooth="yes"/>
      <point x="304" y="20"/>
      <point x="294" y="27"/>
      <point x="268" y="31" type="curve" smooth="yes"/>
      <point x="210" y="41"/>
      <point x="196" y="72"/>
      <point x="196" y="113" type="curve" smooth="yes"/>
      <point x="196" y="239"/>
      <point x="204" y="408"/>
      <point x="204" y="500" type="curve" smooth="yes"/>
      <point x="204" y="508"/>
      <point x="207" y="521"/>
      <point x="216" y="521" type="curve" smooth="yes"/>
      <point x="222" y="521"/>
      <point x="230" y="517"/>
      <point x="243" y="505" type="curve" smooth="yes"/>
      <point x="273" y="477"/>
      <point x="721" y="71"/>
      <point x="743" y="46" type="curve" smooth="yes"/>
      <point x="781" y="2"/>
      <point x="834" y="-17"/>
    </contour>
  </outline>
</glyph>
<glyph name="O" format="1">
  <advance width="997"/>
  <unicode hex="004F"/>
  <outline>
    <contour>
      <point x="493" y="-14" type="curve" smooth="yes"/>
      <point x="783" y="-14"/>
      <point x="939" y="155"/>
      <point x="939" y="335" type="curve" smooth="yes"/>
      <point x="939" y="532"/>
      <point x="735" y="664"/>
      <point x="504" y="664" type="curve" smooth="yes"/>
      <point x="214" y="664"/>
      <point x="58" y="495"/>
      <point x="58" y="315" type="curve" smooth="yes"/>
      <point x="58" y="118"/>
      <point x="262" y="-14"/>
    </contour>
    <contour>
      <point x="513" y="34" type="curve" smooth="yes"/>
      <point x="295" y="34"/>
      <point x="159" y="176"/>
      <point x="159" y="364" type="curve" smooth="yes"/>
      <point x="159" y="511"/>
      <point x="276" y="614"/>
      <point x="482" y="614" type="curve" smooth="yes"/>
      <point x="709" y="614"/>
      <point x="838" y="467"/>
      <point x="838" y="287" type="curve" smooth="yes"/>
      <point x="838" y="141"/>
      <point x="719" y="34"/>
    </contour>
  </outline>
</glyph>
<glyph name="P" format="1">
  <advance width="712"/>
  <unicode hex="0050"/>
  <outline>
    <contour>
      <point x="62" y="-5" type="curve" smooth="yes"/>
      <point x="126" y="-5"/>
      <point x="151" y="3"/>
      <point x="202" y="3" type="curve" smooth="yes"/>
      <point x="244" y="3"/>
      <point x="255" y="-5"/>
      <point x="320" y="-5" type="curve" smooth="yes"/>
      <point x="339" y="-5"/>
      <point x="353" y="-1"/>
      <point x="353" y="9" type="curve" smooth="yes"/>
      <point x="353" y="20"/>
      <point x="342" y="26"/>
      <point x="316" y="31" type="curve" smooth="yes"/>
      <point x="252" y="39"/>
      <point x="234" y="58"/>
      <point x="234" y="119" type="curve" smooth="yes"/>
      <point x="234" y="579" type="line" smooth="yes"/>
      <point x="234" y="607"/>
      <point x="274" y="618"/>
      <point x="332" y="618" type="curve" smooth="yes"/>
      <point x="480" y="618"/>
      <point x="588" y="574"/>
      <point x="588" y="471" type="curve" smooth="yes"/>
      <point x="588" y="361"/>
      <point x="514" y="297"/>
      <point x="365" y="297" type="curve" smooth="yes"/>
      <point x="345" y="297"/>
      <point x="315" y="299"/>
      <point x="307" y="299" type="curve" smooth="yes"/>
      <point x="297" y="299"/>
      <point x="287" y="288"/>
      <point x="287" y="280" type="curve" smooth="yes"/>
      <point x="287" y="268"/>
      <point x="317" y="254"/>
      <point x="352" y="254" type="curve" smooth="yes"/>
      <point x="576" y="254"/>
      <point x="679" y="357"/>
      <point x="679" y="480" type="curve" smooth="yes"/>
      <point x="679" y="592"/>
      <point x="543" y="658"/>
      <point x="337" y="658" type="curve" smooth="yes"/>
      <point x="300" y="658"/>
      <point x="241" y="652"/>
      <point x="187" y="652" type="curve" smooth="yes"/>
      <point x="145" y="652"/>
      <point x="141" y="653"/>
      <point x="78" y="653" type="curve" smooth="yes"/>
      <point x="57" y="653"/>
      <point x="43" y="648"/>
      <point x="43" y="638" type="curve" smooth="yes"/>
      <point x="43" y="627"/>
      <point x="56" y="620"/>
      <point x="81" y="615" type="curve" smooth="yes"/>
      <point x="139" y="604"/>
      <point x="149" y="583"/>
      <point x="149" y="528" type="curve" smooth="yes"/>
      <point x="149" y="113" type="line" smooth="yes"/>
      <point x="149" y="54"/>
      <point x="130" y="38"/>
      <point x="66" y="30" type="curve" smooth="yes"/>
      <point x="40" y="26"/>
      <point x="29" y="20"/>
      <point x="29" y="9" type="curve" smooth="yes"/>
      <point x="29" y="-1"/>
      <point x="43" y="-5"/>
    </contour>
  </outline>
</glyph>
<glyph name="Q" format="1">
  <advance width="997"/>
  <unicode hex="0051"/>
  <outline>
    <contour>
      <point x="970" y="-248" type="curve" smooth="yes"/>
      <point x="1019" y="-248"/>
      <point x="1074" y="-238"/>
      <point x="1124" y="-214" type="curve" smooth="yes"/>
      <point x="1143" y="-204"/>
      <point x="1147" y="-197"/>
      <point x="1147" y="-185" type="curve" smooth="yes"/>
      <point x="1147" y="-179"/>
      <point x="1139" y="-174"/>
      <point x="1133" y="-174" type="curve" smooth="yes"/>
      <point x="1124" y="-174"/>
      <point x="1114" y="-176"/>
      <point x="1106" y="-179" type="curve"/>
      <point x="1088" y="-185"/>
      <point x="1054" y="-189"/>
      <point x="1018" y="-189" type="curve" smooth="yes"/>
      <point x="934" y="-189"/>
      <point x="853" y="-167"/>
      <point x="780" y="-128" type="curve" smooth="yes"/>
      <point x="717" y="-94"/>
      <point x="666" y="-59"/>
      <point x="618" y="-17" type="curve"/>
      <point x="615" y="-14"/>
      <point x="614" y="-11"/>
      <point x="614" y="-8" type="curve" smooth="yes"/>
      <point x="614" y="-6"/>
      <point x="615" y="-3"/>
      <point x="622" y="-1" type="curve" smooth="yes"/>
      <point x="828" y="41"/>
      <point x="939" y="184"/>
      <point x="939" y="335" type="curve" smooth="yes"/>
      <point x="939" y="532"/>
      <point x="735" y="664"/>
      <point x="504" y="664" type="curve" smooth="yes"/>
      <point x="214" y="664"/>
      <point x="58" y="495"/>
      <point x="58" y="315" type="curve" smooth="yes"/>
      <point x="58" y="162"/>
      <point x="177" y="57"/>
      <point x="330" y="9" type="curve"/>
      <point x="389" y="-7"/>
      <point x="449" y="-26"/>
      <point x="513" y="-65" type="curve" smooth="yes"/>
      <point x="621" y="-125"/>
      <point x="661" y="-149"/>
      <point x="722" y="-182" type="curve" smooth="yes"/>
      <point x="796" y="-223"/>
      <point x="868" y="-248"/>
    </contour>
    <contour>
      <point x="513" y="34" type="curve" smooth="yes"/>
      <point x="295" y="34"/>
      <point x="159" y="176"/>
      <point x="159" y="364" type="curve" smooth="yes"/>
      <point x="159" y="511"/>
      <point x="276" y="614"/>
      <point x="482" y="614" type="curve" smooth="yes"/>
      <point x="709" y="614"/>
      <point x="838" y="467"/>
      <point x="838" y="287" type="curve" smooth="yes"/>
      <point x="838" y="141"/>
      <point x="719" y="34"/>
    </contour>
  </outline>
</glyph>
<glyph name="R" format="1">
  <advance width="932"/>
  <unicode hex="0052"/>
  <outline>
    <contour>
      <point x="845" y="-21" type="curve" smooth="yes"/>
      <point x="876" y="-21"/>
      <point x="946" y="-16"/>
      <point x="946" y="16" type="curve" smooth="yes"/>
      <point x="946" y="25"/>
      <point x="939" y="27"/>
      <point x="926" y="27" type="curve" smooth="yes"/>
      <point x="870" y="27"/>
      <point x="831" y="32"/>
      <point x="788" y="59" type="curve" smooth="yes"/>
      <point x="650" y="145"/>
      <point x="591" y="223"/>
      <point x="511" y="313" type="curve" smooth="yes"/>
      <point x="506" y="319"/>
      <point x="505" y="324"/>
      <point x="511" y="326" type="curve"/>
      <point x="582" y="354"/>
      <point x="668" y="403"/>
      <point x="668" y="493" type="curve" smooth="yes"/>
      <point x="668" y="602"/>
      <point x="564" y="657"/>
      <point x="370" y="657" type="curve" smooth="yes"/>
      <point x="294" y="657"/>
      <point x="269" y="652"/>
      <point x="220" y="652" type="curve" smooth="yes"/>
      <point x="168" y="652"/>
      <point x="155" y="655"/>
      <point x="81" y="655" type="curve" smooth="yes"/>
      <point x="62" y="655"/>
      <point x="49" y="649"/>
      <point x="49" y="639" type="curve" smooth="yes"/>
      <point x="49" y="628"/>
      <point x="59" y="622"/>
      <point x="84" y="618" type="curve" smooth="yes"/>
      <point x="143" y="609"/>
      <point x="154" y="597"/>
      <point x="154" y="533" type="curve" smooth="yes"/>
      <point x="154" y="106" type="line" smooth="yes"/>
      <point x="154" y="54"/>
      <point x="144" y="40"/>
      <point x="79" y="31" type="curve" smooth="yes"/>
      <point x="54" y="26"/>
      <point x="44" y="21"/>
      <point x="44" y="10" type="curve" smooth="yes"/>
      <point x="44" y="0"/>
      <point x="57" y="-5"/>
      <point x="76" y="-5" type="curve" smooth="yes"/>
      <point x="132" y="-5"/>
      <point x="156" y="3"/>
      <point x="202" y="3" type="curve" smooth="yes"/>
      <point x="241" y="3"/>
      <point x="276" y="-5"/>
      <point x="322" y="-5" type="curve" smooth="yes"/>
      <point x="342" y="-5"/>
      <point x="355" y="0"/>
      <point x="355" y="10" type="curve" smooth="yes"/>
      <point x="355" y="21"/>
      <point x="344" y="26"/>
      <point x="319" y="31" type="curve" smooth="yes"/>
      <point x="261" y="39"/>
      <point x="239" y="64"/>
      <point x="239" y="112" type="curve" smooth="yes"/>
      <point x="239" y="281" type="line" smooth="yes"/>
      <point x="239" y="293"/>
      <point x="246" y="302"/>
      <point x="267" y="301" type="curve" smooth="yes"/>
      <point x="333" y="298"/>
      <point x="376" y="294"/>
      <point x="416" y="280" type="curve" smooth="yes"/>
      <point x="443" y="270"/>
      <point x="459" y="260"/>
      <point x="473" y="241" type="curve" smooth="yes"/>
      <point x="553" y="137"/>
      <point x="593" y="95"/>
      <point x="671" y="33" type="curve" smooth="yes"/>
      <point x="716" y="-7"/>
      <point x="774" y="-21"/>
    </contour>
    <contour>
      <point x="326" y="340" type="curve" smooth="yes"/>
      <point x="272" y="340"/>
      <point x="239" y="342"/>
      <point x="239" y="372" type="curve" smooth="yes"/>
      <point x="239" y="445"/>
      <point x="240" y="496"/>
      <point x="242" y="526" type="curve" smooth="yes"/>
      <point x="247" y="590"/>
      <point x="260" y="611"/>
      <point x="331" y="611" type="curve" smooth="yes"/>
      <point x="536" y="611"/>
      <point x="573" y="554"/>
      <point x="573" y="475" type="curve" smooth="yes"/>
      <point x="573" y="398"/>
      <point x="488" y="340"/>
    </contour>
  </outline>
</glyph>
<glyph name="S" format="1">
  <advance width="594"/>
  <unicode hex="0053"/>
  <outline>
    <contour>
      <point x="266" y="-16" type="curve" smooth="yes"/>
      <point x="437" y="-16"/>
      <point x="550" y="61"/>
      <point x="550" y="181" type="curve" smooth="yes"/>
      <point x="550" y="272"/>
      <point x="479" y="320"/>
      <point x="350" y="371" type="curve" smooth="yes"/>
      <point x="232" y="418"/>
      <point x="165" y="456"/>
      <point x="165" y="505" type="curve" smooth="yes"/>
      <point x="165" y="582"/>
      <point x="233" y="616"/>
      <point x="318" y="616" type="curve" smooth="yes"/>
      <point x="396" y="616"/>
      <point x="463" y="591"/>
      <point x="494" y="512" type="curve" smooth="yes"/>
      <point x="498" y="501"/>
      <point x="511" y="497"/>
      <point x="522" y="497" type="curve" smooth="yes"/>
      <point x="530" y="497"/>
      <point x="541" y="499"/>
      <point x="541" y="511" type="curve" smooth="yes"/>
      <point x="541" y="542"/>
      <point x="526" y="585"/>
      <point x="515" y="616" type="curve" smooth="yes"/>
      <point x="512" y="627"/>
      <point x="501" y="638"/>
      <point x="488" y="642" type="curve" smooth="yes"/>
      <point x="459" y="651"/>
      <point x="414" y="664"/>
      <point x="351" y="664" type="curve" smooth="yes"/>
      <point x="166" y="664"/>
      <point x="78" y="583"/>
      <point x="78" y="481" type="curve" smooth="yes"/>
      <point x="78" y="392"/>
      <point x="163" y="348"/>
      <point x="296" y="293" type="curve"/>
      <point x="405" y="249"/>
      <point x="460" y="225"/>
      <point x="460" y="150" type="curve" smooth="yes"/>
      <point x="460" y="80"/>
      <point x="394" y="30"/>
      <point x="299" y="30" type="curve" smooth="yes"/>
      <point x="190" y="30"/>
      <point x="125" y="58"/>
      <point x="94" y="160" type="curve" smooth="yes"/>
      <point x="91" y="168"/>
      <point x="83" y="173"/>
      <point x="74" y="173" type="curve" smooth="yes"/>
      <point x="62" y="173"/>
      <point x="51" y="166"/>
      <point x="52" y="157" type="curve" smooth="yes"/>
      <point x="54" y="129"/>
      <point x="56" y="79"/>
      <point x="65" y="52" type="curve" smooth="yes"/>
      <point x="67" y="44"/>
      <point x="75" y="37"/>
      <point x="82" y="32" type="curve"/>
      <point x="130" y="1"/>
      <point x="193" y="-16"/>
    </contour>
  </outline>
</glyph>
<glyph name="T" format="1">
  <advance width="857"/>
  <unicode hex="0054"/>
  <outline>
    <contour>
      <point x="292" y="-4" type="curve" smooth="yes"/>
      <point x="353" y="-4"/>
      <point x="377" y="-1"/>
      <point x="432" y="-1" type="curve" smooth="yes"/>
      <point x="483" y="-1"/>
      <point x="504" y="-4"/>
      <point x="564" y="-4" type="curve" smooth="yes"/>
      <point x="584" y="-4"/>
      <point x="597" y="-1"/>
      <point x="597" y="9" type="curve" smooth="yes"/>
      <point x="597" y="20"/>
      <point x="586" y="27"/>
      <point x="554" y="32" type="curve" smooth="yes"/>
      <point x="497" y="40"/>
      <point x="468" y="56"/>
      <point x="468" y="100" type="curve" smooth="yes"/>
      <point x="468" y="504" type="line" smooth="yes"/>
      <point x="468" y="592"/>
      <point x="478" y="599"/>
      <point x="519" y="599" type="curve" smooth="yes"/>
      <point x="692" y="599" type="line" smooth="yes"/>
      <point x="761" y="599"/>
      <point x="784" y="578"/>
      <point x="790" y="546" type="curve"/>
      <point x="797" y="517"/>
      <point x="803" y="500"/>
      <point x="818" y="500" type="curve" smooth="yes"/>
      <point x="833" y="500"/>
      <point x="841" y="521"/>
      <point x="841" y="537" type="curve" smooth="yes"/>
      <point x="841" y="551" type="line" smooth="yes"/>
      <point x="841" y="582"/>
      <point x="846" y="577"/>
      <point x="853" y="621" type="curve" smooth="yes"/>
      <point x="854" y="628"/>
      <point x="857" y="646"/>
      <point x="857" y="654" type="curve" smooth="yes"/>
      <point x="857" y="664"/>
      <point x="852" y="677"/>
      <point x="846" y="677" type="curve" smooth="yes"/>
      <point x="823" y="677"/>
      <point x="813" y="666"/>
      <point x="789" y="657" type="curve" smooth="yes"/>
      <point x="765" y="648"/>
      <point x="737" y="642"/>
      <point x="688" y="642" type="curve" smooth="yes"/>
      <point x="194" y="642" type="line" smooth="yes"/>
      <point x="165" y="642"/>
      <point x="134" y="648"/>
      <point x="123" y="662" type="curve" smooth="yes"/>
      <point x="113" y="673"/>
      <point x="94" y="694"/>
      <point x="85" y="694" type="curve" smooth="yes"/>
      <point x="77" y="694"/>
      <point x="65" y="690"/>
      <point x="62" y="667" type="curve" smooth="yes"/>
      <point x="55" y="619"/>
      <point x="49" y="590"/>
      <point x="27" y="546" type="curve" smooth="yes"/>
      <point x="25" y="539"/>
      <point x="23" y="528"/>
      <point x="23" y="522" type="curve" smooth="yes"/>
      <point x="23" y="513"/>
      <point x="29" y="507"/>
      <point x="36" y="507" type="curve" smooth="yes"/>
      <point x="55" y="507"/>
      <point x="77" y="536"/>
      <point x="86" y="554" type="curve" smooth="yes"/>
      <point x="102" y="584"/>
      <point x="134" y="599"/>
      <point x="165" y="599" type="curve" smooth="yes"/>
      <point x="302" y="599" type="line" smooth="yes"/>
      <point x="331" y="599"/>
      <point x="348" y="598"/>
      <point x="364" y="593" type="curve" smooth="yes"/>
      <point x="378" y="589"/>
      <point x="383" y="570"/>
      <point x="383" y="501" type="curve" smooth="yes"/>
      <point x="383" y="99" type="line" smooth="yes"/>
      <point x="383" y="54"/>
      <point x="353" y="38"/>
      <point x="300" y="30" type="curve" smooth="yes"/>
      <point x="270" y="26"/>
      <point x="259" y="19"/>
      <point x="259" y="9" type="curve" smooth="yes"/>
      <point x="259" y="-1"/>
      <point x="273" y="-4"/>
    </contour>
  </outline>
</glyph>
<glyph name="U" format="1">
  <advance width="938"/>
  <unicode hex="0055"/>
  <outline>
    <contour>
      <point x="474" y="-14" type="curve" smooth="yes"/>
      <point x="667" y="-14"/>
      <point x="810" y="95"/>
      <point x="817" y="255" type="curve" smooth="yes"/>
      <point x="820" y="342"/>
      <point x="821" y="419"/>
      <point x="830" y="545" type="curve" smooth="yes"/>
      <point x="832" y="587"/>
      <point x="846" y="603"/>
      <point x="889" y="613" type="curve" smooth="yes"/>
      <point x="915" y="621"/>
      <point x="926" y="627"/>
      <point x="926" y="638" type="curve" smooth="yes"/>
      <point x="926" y="648"/>
      <point x="913" y="651"/>
      <point x="896" y="651" type="curve" smooth="yes"/>
      <point x="863" y="651"/>
      <point x="837" y="648"/>
      <point x="800" y="648" type="curve" smooth="yes"/>
      <point x="764" y="648"/>
      <point x="747" y="650"/>
      <point x="708" y="650" type="curve" smooth="yes"/>
      <point x="691" y="650"/>
      <point x="678" y="648"/>
      <point x="678" y="638" type="curve" smooth="yes"/>
      <point x="678" y="627"/>
      <point x="696" y="618"/>
      <point x="715" y="613" type="curve" smooth="yes"/>
      <point x="752" y="603"/>
      <point x="769" y="574"/>
      <point x="771" y="521" type="curve" smooth="yes"/>
      <point x="773" y="427"/>
      <point x="775" y="341"/>
      <point x="775" y="295" type="curve" smooth="yes"/>
      <point x="775" y="150"/>
      <point x="693" y="47"/>
      <point x="500" y="47" type="curve" smooth="yes"/>
      <point x="329" y="47"/>
      <point x="209" y="115"/>
      <point x="209" y="269" type="curve" smooth="yes"/>
      <point x="209" y="546" type="line" smooth="yes"/>
      <point x="209" y="588"/>
      <point x="232" y="606"/>
      <point x="274" y="613" type="curve" smooth="yes"/>
      <point x="299" y="620"/>
      <point x="312" y="627"/>
      <point x="312" y="638" type="curve" smooth="yes"/>
      <point x="312" y="648"/>
      <point x="298" y="651"/>
      <point x="279" y="651" type="curve" smooth="yes"/>
      <point x="242" y="651"/>
      <point x="212" y="649"/>
      <point x="173" y="649" type="curve" smooth="yes"/>
      <point x="127" y="649"/>
      <point x="99" y="652"/>
      <point x="55" y="652" type="curve" smooth="yes"/>
      <point x="36" y="652"/>
      <point x="22" y="649"/>
      <point x="22" y="639" type="curve" smooth="yes"/>
      <point x="22" y="628"/>
      <point x="33" y="621"/>
      <point x="59" y="613" type="curve" smooth="yes"/>
      <point x="100" y="605"/>
      <point x="123" y="592"/>
      <point x="123" y="543" type="curve" smooth="yes"/>
      <point x="123" y="240" type="line" smooth="yes"/>
      <point x="123" y="87"/>
      <point x="240" y="-14"/>
    </contour>
  </outline>
</glyph>
<glyph name="V" format="1">
  <advance width="830"/>
  <unicode hex="0056"/>
  <outline>
    <contour>
      <point x="402" y="-12" type="curve" smooth="yes"/>
      <point x="408" y="-12"/>
      <point x="417" y="-9"/>
      <point x="420" y="-5" type="curve" smooth="yes"/>
      <point x="437" y="19"/>
      <point x="457" y="62"/>
      <point x="464" y="79" type="curve" smooth="yes"/>
      <point x="695" y="538" type="line" smooth="yes"/>
      <point x="716" y="582"/>
      <point x="746" y="610"/>
      <point x="806" y="619" type="curve" smooth="yes"/>
      <point x="833" y="622"/>
      <point x="844" y="629"/>
      <point x="844" y="639" type="curve" smooth="yes"/>
      <point x="844" y="648"/>
      <point x="831" y="653"/>
      <point x="813" y="653" type="curve" smooth="yes"/>
      <point x="785" y="653"/>
      <point x="732" y="650"/>
      <point x="690" y="650" type="curve" smooth="yes"/>
      <point x="649" y="650"/>
      <point x="612" y="651"/>
      <point x="584" y="651" type="curve" smooth="yes"/>
      <point x="566" y="651"/>
      <point x="553" y="648"/>
      <point x="553" y="639" type="curve" smooth="yes"/>
      <point x="553" y="629"/>
      <point x="566" y="622"/>
      <point x="599" y="618" type="curve" smooth="yes"/>
      <point x="647" y="613"/>
      <point x="673" y="592"/>
      <point x="637" y="520" type="curve" smooth="yes"/>
      <point x="435" y="124" type="line" smooth="yes"/>
      <point x="430" y="115"/>
      <point x="423" y="118"/>
      <point x="421" y="123" type="curve" smooth="yes"/>
      <point x="224" y="534" type="line" smooth="yes"/>
      <point x="220" y="543"/>
      <point x="211" y="559"/>
      <point x="211" y="581" type="curve" smooth="yes"/>
      <point x="211" y="603"/>
      <point x="240" y="615"/>
      <point x="277" y="618" type="curve" smooth="yes"/>
      <point x="307" y="620"/>
      <point x="318" y="629"/>
      <point x="318" y="639" type="curve" smooth="yes"/>
      <point x="318" y="648"/>
      <point x="304" y="652"/>
      <point x="284" y="652" type="curve" smooth="yes"/>
      <point x="261" y="652"/>
      <point x="216" y="650"/>
      <point x="170" y="650" type="curve" smooth="yes"/>
      <point x="117" y="650"/>
      <point x="69" y="653"/>
      <point x="33" y="653" type="curve" smooth="yes"/>
      <point x="14" y="653"/>
      <point x="0" y="650"/>
      <point x="0" y="641" type="curve" smooth="yes"/>
      <point x="0" y="632"/>
      <point x="15" y="625"/>
      <point x="44" y="618" type="curve" smooth="yes"/>
      <point x="89" y="607"/>
      <point x="110" y="577"/>
      <point x="126" y="542" type="curve" smooth="yes"/>
      <point x="352" y="56" type="line" smooth="yes"/>
      <point x="360" y="38"/>
      <point x="372" y="10"/>
      <point x="381" y="-5" type="curve" smooth="yes"/>
      <point x="384" y="-10"/>
      <point x="395" y="-12"/>
    </contour>
  </outline>
</glyph>
<glyph name="W" format="1">
  <advance width="1182"/>
  <unicode hex="0057"/>
  <outline>
    <contour>
      <point x="426" y="-17" type="curve" smooth="yes"/>
      <point x="439" y="-17"/>
      <point x="454" y="0"/>
      <point x="461" y="14" type="curve" smooth="yes"/>
      <point x="518" y="127"/>
      <point x="551" y="186"/>
      <point x="610" y="300" type="curve" smooth="yes"/>
      <point x="616" y="313"/>
      <point x="619" y="315"/>
      <point x="624" y="306" type="curve"/>
      <point x="685" y="189"/>
      <point x="713" y="126"/>
      <point x="776" y="6" type="curve" smooth="yes"/>
      <point x="781" y="-3"/>
      <point x="795" y="-13"/>
      <point x="804" y="-13" type="curve" smooth="yes"/>
      <point x="816" y="-13"/>
      <point x="829" y="2"/>
      <point x="833" y="11" type="curve" smooth="yes"/>
      <point x="1054" y="537" type="line" smooth="yes"/>
      <point x="1075" y="581"/>
      <point x="1096" y="610"/>
      <point x="1149" y="619" type="curve" smooth="yes"/>
      <point x="1179" y="623"/>
      <point x="1191" y="630"/>
      <point x="1191" y="641" type="curve" smooth="yes"/>
      <point x="1191" y="650"/>
      <point x="1176" y="654"/>
      <point x="1154" y="654" type="curve" smooth="yes"/>
      <point x="1123" y="654"/>
      <point x="1094" y="650"/>
      <point x="1051" y="650" type="curve" smooth="yes"/>
      <point x="1022" y="650"/>
      <point x="1007" y="651"/>
      <point x="975" y="651" type="curve" smooth="yes"/>
      <point x="954" y="651"/>
      <point x="940" y="648"/>
      <point x="940" y="639" type="curve" smooth="yes"/>
      <point x="940" y="628"/>
      <point x="959" y="621"/>
      <point x="975" y="617" type="curve" smooth="yes"/>
      <point x="1004" y="611"/>
      <point x="1011" y="600"/>
      <point x="1012" y="579" type="curve" smooth="yes"/>
      <point x="1012" y="569"/>
      <point x="1009" y="557"/>
      <point x="1004" y="544" type="curve" smooth="yes"/>
      <point x="943" y="387"/>
      <point x="872" y="223"/>
      <point x="829" y="134" type="curve"/>
      <point x="824" y="125"/>
      <point x="819" y="121"/>
      <point x="815" y="128" type="curve" smooth="yes"/>
      <point x="681" y="389" type="line" smooth="yes"/>
      <point x="677" y="396"/>
      <point x="684" y="417"/>
      <point x="689" y="427" type="curve" smooth="yes"/>
      <point x="711" y="470"/>
      <point x="753" y="543"/>
      <point x="766" y="562" type="curve" smooth="yes"/>
      <point x="792" y="600"/>
      <point x="806" y="613"/>
      <point x="848" y="620" type="curve" smooth="yes"/>
      <point x="877" y="624"/>
      <point x="890" y="631"/>
      <point x="890" y="642" type="curve" smooth="yes"/>
      <point x="890" y="651"/>
      <point x="875" y="654"/>
      <point x="854" y="654" type="curve" smooth="yes"/>
      <point x="826" y="654"/>
      <point x="808" y="650"/>
      <point x="778" y="650" type="curve" smooth="yes"/>
      <point x="754" y="650"/>
      <point x="750" y="652"/>
      <point x="713" y="652" type="curve" smooth="yes"/>
      <point x="691" y="652"/>
      <point x="675" y="650"/>
      <point x="675" y="639" type="curve" smooth="yes"/>
      <point x="675" y="623"/>
      <point x="722" y="623"/>
      <point x="722" y="597" type="curve" smooth="yes"/>
      <point x="722" y="591"/>
      <point x="719" y="582"/>
      <point x="717" y="577" type="curve" smooth="yes"/>
      <point x="708" y="557"/>
      <point x="684" y="511"/>
      <point x="660" y="470" type="curve" smooth="yes"/>
      <point x="650" y="452"/>
      <point x="646" y="454"/>
      <point x="637" y="470" type="curve" smooth="yes"/>
      <point x="626" y="490"/>
      <point x="579" y="569"/>
      <point x="570" y="593" type="curve" smooth="yes"/>
      <point x="568" y="596"/>
      <point x="567" y="599"/>
      <point x="567" y="602" type="curve" smooth="yes"/>
      <point x="567" y="625"/>
      <point x="621" y="625"/>
      <point x="621" y="639" type="curve" smooth="yes"/>
      <point x="621" y="649"/>
      <point x="604" y="653"/>
      <point x="580" y="653" type="curve" smooth="yes"/>
      <point x="561" y="653"/>
      <point x="528" y="651"/>
      <point x="492" y="651" type="curve" smooth="yes"/>
      <point x="452" y="651"/>
      <point x="429" y="654"/>
      <point x="393" y="654" type="curve" smooth="yes"/>
      <point x="372" y="654"/>
      <point x="357" y="650"/>
      <point x="357" y="641" type="curve" smooth="yes"/>
      <point x="357" y="631"/>
      <point x="371" y="622"/>
      <point x="401" y="616" type="curve" smooth="yes"/>
      <point x="449" y="609"/>
      <point x="479" y="588"/>
      <point x="501" y="550" type="curve" smooth="yes"/>
      <point x="581" y="396" type="line" smooth="yes"/>
      <point x="587" y="383"/>
      <point x="591" y="375"/>
      <point x="591" y="366" type="curve" smooth="yes"/>
      <point x="591" y="360"/>
      <point x="589" y="353"/>
      <point x="584" y="343" type="curve" smooth="yes"/>
      <point x="472" y="141" type="line" smooth="yes"/>
      <point x="466" y="130"/>
      <point x="461" y="127"/>
      <point x="452" y="142" type="curve" smooth="yes"/>
      <point x="366" y="292"/>
      <point x="310" y="381"/>
      <point x="226" y="551" type="curve" smooth="yes"/>
      <point x="222" y="560"/>
      <point x="216" y="576"/>
      <point x="216" y="590" type="curve" smooth="yes"/>
      <point x="216" y="603"/>
      <point x="220" y="614"/>
      <point x="240" y="617" type="curve"/>
      <point x="273" y="624"/>
      <point x="287" y="629"/>
      <point x="287" y="640" type="curve" smooth="yes"/>
      <point x="287" y="650"/>
      <point x="271" y="653"/>
      <point x="248" y="653" type="curve" smooth="yes"/>
      <point x="224" y="653"/>
      <point x="181" y="651"/>
      <point x="136" y="651" type="curve" smooth="yes"/>
      <point x="94" y="651"/>
      <point x="73" y="654"/>
      <point x="33" y="654" type="curve" smooth="yes"/>
      <point x="14" y="654"/>
      <point x="0" y="650"/>
      <point x="0" y="641" type="curve" smooth="yes"/>
      <point x="0" y="631"/>
      <point x="13" y="623"/>
      <point x="46" y="615" type="curve" smooth="yes"/>
      <point x="84" y="607"/>
      <point x="105" y="592"/>
      <point x="124" y="561" type="curve"/>
      <point x="403" y="12" type="line" smooth="yes"/>
      <point x="410" y="-2"/>
      <point x="421" y="-17"/>
    </contour>
  </outline>
</glyph>
<glyph name="X" format="1">
  <advance width="920"/>
  <unicode hex="0058"/>
  <outline>
    <contour>
      <point x="31" y="-5" type="curve" smooth="yes"/>
      <point x="74" y="-5"/>
      <point x="136" y="1"/>
      <point x="194" y="1" type="curve" smooth="yes"/>
      <point x="228" y="1"/>
      <point x="263" y="-1"/>
      <point x="281" y="-1" type="curve" smooth="yes"/>
      <point x="297" y="-1"/>
      <point x="309" y="5"/>
      <point x="309" y="14" type="curve" smooth="yes"/>
      <point x="309" y="25"/>
      <point x="299" y="29"/>
      <point x="279" y="36" type="curve" smooth="yes"/>
      <point x="254" y="42"/>
      <point x="241" y="49"/>
      <point x="240" y="61" type="curve" smooth="yes"/>
      <point x="240" y="69"/>
      <point x="246" y="80"/>
      <point x="261" y="94" type="curve" smooth="yes"/>
      <point x="438" y="268" type="line" smooth="yes"/>
      <point x="447" y="277"/>
      <point x="453" y="277"/>
      <point x="466" y="263" type="curve" smooth="yes"/>
      <point x="625" y="108" type="line"/>
      <point x="634" y="96"/>
      <point x="639" y="86"/>
      <point x="639" y="76" type="curve" smooth="yes"/>
      <point x="638" y="56"/>
      <point x="623" y="42"/>
      <point x="595" y="36" type="curve" smooth="yes"/>
      <point x="578" y="32"/>
      <point x="555" y="27"/>
      <point x="555" y="17" type="curve" smooth="yes"/>
      <point x="555" y="7"/>
      <point x="570" y="1"/>
      <point x="591" y="1" type="curve" smooth="yes"/>
      <point x="621" y="1"/>
      <point x="647" y="2"/>
      <point x="696" y="2" type="curve" smooth="yes"/>
      <point x="754" y="2"/>
      <point x="839" y="-4"/>
      <point x="874" y="-4" type="curve" smooth="yes"/>
      <point x="895" y="-4"/>
      <point x="910" y="-1"/>
      <point x="910" y="8" type="curve" smooth="yes"/>
      <point x="910" y="19"/>
      <point x="897" y="25"/>
      <point x="863" y="32" type="curve" smooth="yes"/>
      <point x="819" y="40"/>
      <point x="765" y="74"/>
      <point x="725" y="116" type="curve" smooth="yes"/>
      <point x="522" y="328" type="line"/>
      <point x="513" y="343"/>
      <point x="518" y="347"/>
      <point x="540" y="368" type="curve" smooth="yes"/>
      <point x="696" y="522" type="line" smooth="yes"/>
      <point x="752" y="577"/>
      <point x="817" y="610"/>
      <point x="864" y="618" type="curve" smooth="yes"/>
      <point x="897" y="624"/>
      <point x="909" y="630"/>
      <point x="909" y="640" type="curve" smooth="yes"/>
      <point x="909" y="649"/>
      <point x="894" y="655"/>
      <point x="872" y="655" type="curve" smooth="yes"/>
      <point x="835" y="655"/>
      <point x="772" y="650"/>
      <point x="720" y="650" type="curve" smooth="yes"/>
      <point x="688" y="650"/>
      <point x="650" y="652"/>
      <point x="621" y="652" type="curve" smooth="yes"/>
      <point x="599" y="652"/>
      <point x="584" y="646"/>
      <point x="584" y="636" type="curve" smooth="yes"/>
      <point x="584" y="626"/>
      <point x="605" y="617"/>
      <point x="624" y="615" type="curve" smooth="yes"/>
      <point x="658" y="613"/>
      <point x="678" y="602"/>
      <point x="678" y="587" type="curve" smooth="yes"/>
      <point x="678" y="578"/>
      <point x="670" y="566"/>
      <point x="658" y="553" type="curve" smooth="yes"/>
      <point x="501" y="393" type="line" smooth="yes"/>
      <point x="487" y="379"/>
      <point x="482" y="376"/>
      <point x="463" y="396" type="curve" smooth="yes"/>
      <point x="317" y="542" type="line"/>
      <point x="296" y="563"/>
      <point x="288" y="576"/>
      <point x="288" y="586" type="curve" smooth="yes"/>
      <point x="288" y="604"/>
      <point x="313" y="612"/>
      <point x="337" y="617" type="curve" smooth="yes"/>
      <point x="356" y="621"/>
      <point x="371" y="626"/>
      <point x="371" y="636" type="curve" smooth="yes"/>
      <point x="371" y="646"/>
      <point x="358" y="652"/>
      <point x="340" y="652" type="curve" smooth="yes"/>
      <point x="319" y="652"/>
      <point x="279" y="651"/>
      <point x="240" y="651" type="curve" smooth="yes"/>
      <point x="178" y="651"/>
      <point x="100" y="655"/>
      <point x="60" y="655" type="curve" smooth="yes"/>
      <point x="39" y="655"/>
      <point x="24" y="652"/>
      <point x="24" y="643" type="curve" smooth="yes"/>
      <point x="24" y="633"/>
      <point x="38" y="625"/>
      <point x="71" y="619" type="curve" smooth="yes"/>
      <point x="114" y="610"/>
      <point x="159" y="586"/>
      <point x="216" y="529" type="curve" smooth="yes"/>
      <point x="393" y="346" type="line" smooth="yes"/>
      <point x="418" y="319"/>
      <point x="404" y="304"/>
      <point x="386" y="284" type="curve"/>
      <point x="218" y="126" type="line" smooth="yes"/>
      <point x="165" y="76"/>
      <point x="79" y="42"/>
      <point x="41" y="35" type="curve" smooth="yes"/>
      <point x="7" y="27"/>
      <point x="-6" y="21"/>
      <point x="-6" y="10" type="curve" smooth="yes"/>
      <point x="-6" y="1"/>
      <point x="9" y="-5"/>
    </contour>
  </outline>
</glyph>
<glyph name="Y" format="1">
  <advance width="721"/>
  <unicode hex="0059"/>
  <outline>
    <contour>
      <point x="248" y="-5" type="curve" smooth="yes"/>
      <point x="307" y="-5"/>
      <point x="334" y="-1"/>
      <point x="389" y="-1" type="curve" smooth="yes"/>
      <point x="440" y="-1"/>
      <point x="459" y="-5"/>
      <point x="518" y="-5" type="curve" smooth="yes"/>
      <point x="537" y="-5"/>
      <point x="550" y="-1"/>
      <point x="550" y="8" type="curve" smooth="yes"/>
      <point x="550" y="19"/>
      <point x="539" y="25"/>
      <point x="513" y="29" type="curve" smooth="yes"/>
      <point x="457" y="36"/>
      <point x="424" y="62"/>
      <point x="424" y="105" type="curve" smooth="yes"/>
      <point x="424" y="255" type="line" smooth="yes"/>
      <point x="424" y="294"/>
      <point x="423" y="302"/>
      <point x="457" y="345" type="curve" smooth="yes"/>
      <point x="516" y="420"/>
      <point x="541" y="453"/>
      <point x="610" y="537" type="curve" smooth="yes"/>
      <point x="649" y="585"/>
      <point x="673" y="606"/>
      <point x="707" y="614" type="curve" smooth="yes"/>
      <point x="733" y="621"/>
      <point x="763" y="627"/>
      <point x="763" y="637" type="curve" smooth="yes"/>
      <point x="763" y="648"/>
      <point x="751" y="653"/>
      <point x="729" y="653" type="curve" smooth="yes"/>
      <point x="702" y="653"/>
      <point x="661" y="651"/>
      <point x="612" y="651" type="curve" smooth="yes"/>
      <point x="578" y="651"/>
      <point x="550" y="651"/>
      <point x="515" y="651" type="curve" smooth="yes"/>
      <point x="494" y="651"/>
      <point x="480" y="648"/>
      <point x="480" y="639" type="curve" smooth="yes"/>
      <point x="480" y="628"/>
      <point x="503" y="618"/>
      <point x="519" y="615" type="curve" smooth="yes"/>
      <point x="547" y="613"/>
      <point x="569" y="605"/>
      <point x="569" y="582" type="curve" smooth="yes"/>
      <point x="569" y="572"/>
      <point x="564" y="557"/>
      <point x="551" y="539" type="curve" smooth="yes"/>
      <point x="508" y="479"/>
      <point x="480" y="439"/>
      <point x="442" y="395" type="curve" smooth="yes"/>
      <point x="421" y="370"/>
      <point x="411" y="355"/>
      <point x="401" y="355" type="curve" smooth="yes"/>
      <point x="393" y="355"/>
      <point x="383" y="367"/>
      <point x="365" y="393" type="curve" smooth="yes"/>
      <point x="245" y="561" type="line" smooth="yes"/>
      <point x="235" y="576"/>
      <point x="229" y="587"/>
      <point x="229" y="594" type="curve" smooth="yes"/>
      <point x="229" y="608"/>
      <point x="246" y="612"/>
      <point x="272" y="616" type="curve" smooth="yes"/>
      <point x="300" y="621"/>
      <point x="313" y="628"/>
      <point x="313" y="638" type="curve" smooth="yes"/>
      <point x="313" y="648"/>
      <point x="298" y="652"/>
      <point x="275" y="652" type="curve" smooth="yes"/>
      <point x="248" y="652"/>
      <point x="216" y="650"/>
      <point x="176" y="650" type="curve" smooth="yes"/>
      <point x="117" y="650"/>
      <point x="77" y="652"/>
      <point x="38" y="652" type="curve" smooth="yes"/>
      <point x="16" y="652"/>
      <point x="0" y="649"/>
      <point x="0" y="640" type="curve" smooth="yes"/>
      <point x="0" y="629"/>
      <point x="13" y="623"/>
      <point x="45" y="615" type="curve" smooth="yes"/>
      <point x="84" y="605"/>
      <point x="130" y="561"/>
      <point x="147" y="539" type="curve" smooth="yes"/>
      <point x="309" y="330" type="line"/>
      <point x="317" y="320"/>
      <point x="339" y="283"/>
      <point x="339" y="256" type="curve" smooth="yes"/>
      <point x="339" y="105" type="line" smooth="yes"/>
      <point x="339" y="60"/>
      <point x="308" y="36"/>
      <point x="252" y="29" type="curve" smooth="yes"/>
      <point x="227" y="25"/>
      <point x="215" y="19"/>
      <point x="215" y="8" type="curve" smooth="yes"/>
      <point x="215" y="-1"/>
      <point x="229" y="-5"/>
    </contour>
  </outline>
</glyph>
<glyph name="Z" format="1">
  <advance width="786"/>
  <unicode hex="005A"/>
  <outline>
    <contour>
      <point x="695" y="-5" type="curve" smooth="yes"/>
      <point x="708" y="-5"/>
      <point x="714" y="4"/>
      <point x="719" y="12" type="curve" smooth="yes"/>
      <point x="733" y="36"/>
      <point x="767" y="147"/>
      <point x="767" y="158" type="curve" smooth="yes"/>
      <point x="767" y="171"/>
      <point x="762" y="177"/>
      <point x="751" y="177" type="curve" smooth="yes"/>
      <point x="733" y="177"/>
      <point x="717" y="158"/>
      <point x="710" y="142" type="curve" smooth="yes"/>
      <point x="681" y="84"/>
      <point x="635" y="52"/>
      <point x="565" y="48" type="curve" smooth="yes"/>
      <point x="505" y="45"/>
      <point x="443" y="43"/>
      <point x="386" y="43" type="curve" smooth="yes"/>
      <point x="330" y="43"/>
      <point x="255" y="45"/>
      <point x="221" y="48" type="curve"/>
      <point x="210" y="49"/>
      <point x="205" y="57"/>
      <point x="205" y="65" type="curve" smooth="yes"/>
      <point x="205" y="69"/>
      <point x="206" y="74"/>
      <point x="209" y="77" type="curve" smooth="yes"/>
      <point x="371" y="259"/>
      <point x="494" y="372"/>
      <point x="665" y="550" type="curve" smooth="yes"/>
      <point x="743" y="631" type="line" smooth="yes"/>
      <point x="749" y="636"/>
      <point x="737" y="649"/>
      <point x="729" y="649" type="curve" smooth="yes"/>
      <point x="632" y="647"/>
      <point x="535" y="646"/>
      <point x="426" y="646" type="curve" smooth="yes"/>
      <point x="367" y="646"/>
      <point x="304" y="646"/>
      <point x="261" y="646" type="curve" smooth="yes"/>
      <point x="217" y="646"/>
      <point x="167" y="656"/>
      <point x="150" y="662" type="curve" smooth="yes"/>
      <point x="136" y="667"/>
      <point x="116" y="676"/>
      <point x="110" y="676" type="curve" smooth="yes"/>
      <point x="103" y="676"/>
      <point x="92" y="674"/>
      <point x="91" y="659" type="curve" smooth="yes"/>
      <point x="87" y="617"/>
      <point x="65" y="563"/>
      <point x="58" y="546" type="curve"/>
      <point x="53" y="535"/>
      <point x="47" y="518"/>
      <point x="47" y="509" type="curve" smooth="yes"/>
      <point x="48" y="500"/>
      <point x="56" y="495"/>
      <point x="66" y="496" type="curve" smooth="yes"/>
      <point x="90" y="496"/>
      <point x="100" y="519"/>
      <point x="108" y="536" type="curve" smooth="yes"/>
      <point x="128" y="575"/>
      <point x="174" y="598"/>
      <point x="229" y="601" type="curve" smooth="yes"/>
      <point x="258" y="603"/>
      <point x="304" y="603"/>
      <point x="351" y="603" type="curve" smooth="yes"/>
      <point x="417" y="603"/>
      <point x="517" y="602"/>
      <point x="562" y="601" type="curve"/>
      <point x="580" y="600"/>
      <point x="585" y="597"/>
      <point x="585" y="593" type="curve" smooth="yes"/>
      <point x="585" y="590"/>
      <point x="583" y="588"/>
      <point x="580" y="585" type="curve" smooth="yes"/>
      <point x="415" y="401"/>
      <point x="282" y="283"/>
      <point x="111" y="104" type="curve" smooth="yes"/>
      <point x="81" y="73"/>
      <point x="36" y="21"/>
      <point x="36" y="11" type="curve"/>
      <point x="36" y="11"/>
      <point x="38" y="-3"/>
      <point x="45" y="-3" type="curve" smooth="yes"/>
      <point x="146" y="-3" type="line" smooth="yes"/>
      <point x="195" y="-3"/>
      <point x="249" y="-2"/>
      <point x="301" y="-2" type="curve" smooth="yes"/>
      <point x="417" y="-2"/>
      <point x="547" y="-5"/>
    </contour>
  </outline>
</glyph>
<glyph name="bracketleft" format="1">
  <advance width="392"/>
  <unicode hex="005B"/>
  <outline>
    <contour>
      <point x="144" y="-200" type="curve" smooth="yes"/>
      <point x="346" y="-200" type="line" smooth="yes"/>
      <point x="358" y="-200"/>
      <point x="372" y="-196"/>
      <point x="372" y="-180" type="curve" smooth="yes"/>
      <point x="372" y="-166"/>
      <point x="356" y="-159"/>
      <point x="341" y="-158" type="curve" smooth="yes"/>
      <point x="214" y="-153" type="line" smooth="yes"/>
      <point x="195" y="-152"/>
      <point x="185" y="-139"/>
      <point x="185" y="-105" type="curve" smooth="yes"/>
      <point x="185" y="614" type="line" smooth="yes"/>
      <point x="185" y="644"/>
      <point x="194" y="657"/>
      <point x="214" y="658" type="curve" smooth="yes"/>
      <point x="341" y="661" type="line" smooth="yes"/>
      <point x="356" y="661"/>
      <point x="372" y="669"/>
      <point x="372" y="683" type="curve" smooth="yes"/>
      <point x="372" y="697"/>
      <point x="361" y="701"/>
      <point x="350" y="701" type="curve" smooth="yes"/>
      <point x="148" y="702" type="line" smooth="yes"/>
      <point x="116" y="702"/>
      <point x="110" y="702"/>
      <point x="110" y="668" type="curve" smooth="yes"/>
      <point x="110" y="-171" type="line" smooth="yes"/>
      <point x="110" y="-199"/>
      <point x="117" y="-200"/>
    </contour>
  </outline>
</glyph>
<glyph name="backslash" format="1">
  <advance width="517"/>
  <unicode hex="005C"/>
  <outline>
    <contour>
      <point x="474" y="-62" type="curve" smooth="yes"/>
      <point x="486" y="-62"/>
      <point x="494" y="-55"/>
      <point x="490" y="-48" type="curve" smooth="yes"/>
      <point x="88" y="649" type="line" smooth="yes"/>
      <point x="80" y="663"/>
      <point x="67" y="665"/>
      <point x="51" y="665" type="curve" smooth="yes"/>
      <point x="39" y="665"/>
      <point x="33" y="657"/>
      <point x="38" y="649" type="curve" smooth="yes"/>
      <point x="440" y="-48" type="line" smooth="yes"/>
      <point x="447" y="-60"/>
      <point x="460" y="-62"/>
    </contour>
  </outline>
</glyph>
<glyph name="asciicircum" format="1">
  <advance width="647"/>
  <unicode hex="005E"/>
  <outline>
    <contour>
      <point x="74" y="283" type="curve" smooth="yes"/>
      <point x="87" y="283"/>
      <point x="110" y="292"/>
      <point x="121" y="304" type="curve" smooth="yes"/>
      <point x="315" y="515" type="line"/>
      <point x="321" y="521"/>
      <point x="322" y="521"/>
      <point x="329" y="515" type="curve"/>
      <point x="527" y="303" type="line" smooth="yes"/>
      <point x="535" y="294"/>
      <point x="558" y="284"/>
      <point x="574" y="284" type="curve" smooth="yes"/>
      <point x="585" y="284"/>
      <point x="587" y="298"/>
      <point x="581" y="306" type="curve"/>
      <point x="325" y="604" type="line"/>
      <point x="321" y="604" type="line"/>
      <point x="67" y="305" type="line"/>
      <point x="64" y="303"/>
      <point x="63" y="298"/>
      <point x="63" y="294" type="curve" smooth="yes"/>
      <point x="63" y="288"/>
      <point x="68" y="283"/>
    </contour>
  </outline>
</glyph>
<glyph name="underscore" format="1">
  <advance width="647"/>
  <unicode hex="005F"/>
  <outline>
    <contour>
      <point x="13" y="-182" type="curve" smooth="yes"/>
      <point x="616" y="-182" type="line" smooth="yes"/>
      <point x="631" y="-182"/>
      <point x="647" y="-157"/>
      <point x="647" y="-144" type="curve" smooth="yes"/>
      <point x="647" y="-138"/>
      <point x="639" y="-133"/>
      <point x="633" y="-133" type="curve" smooth="yes"/>
      <point x="23" y="-133" type="line" smooth="yes"/>
      <point x="6" y="-133"/>
      <point x="0" y="-162"/>
      <point x="0" y="-170" type="curve" smooth="yes"/>
      <point x="0" y="-176"/>
      <point x="7" y="-182"/>
    </contour>
  </outline>
</glyph>
<glyph name="grave" format="1">
  <advance width="256"/>
  <unicode hex="0060"/>
  <outline>
    <contour>
      <point x="219" y="456" type="curve" smooth="yes"/>
      <point x="228" y="456"/>
      <point x="230" y="458"/>
      <point x="227" y="472" type="curve" smooth="yes"/>
      <point x="226" y="479"/>
      <point x="221" y="491"/>
      <point x="214" y="502" type="curve" smooth="yes"/>
      <point x="192" y="534"/>
      <point x="138" y="601"/>
      <point x="114" y="629" type="curve" smooth="yes"/>
      <point x="102" y="645"/>
      <point x="90" y="651"/>
      <point x="72" y="651" type="curve" smooth="yes"/>
      <point x="47" y="651"/>
      <point x="26" y="640"/>
      <point x="28" y="624" type="curve" smooth="yes"/>
      <point x="29" y="617"/>
      <point x="34" y="608"/>
      <point x="40" y="601" type="curve" smooth="yes"/>
      <point x="77" y="558"/>
      <point x="143" y="509"/>
      <point x="181" y="477" type="curve" smooth="yes"/>
      <point x="195" y="463"/>
      <point x="211" y="456"/>
    </contour>
  </outline>
</glyph>
<glyph name="a" format="1">
  <advance width="519"/>
  <unicode hex="0061"/>
  <outline>
    <contour>
      <point x="160" y="-15" type="curve" smooth="yes"/>
      <point x="220" y="-15"/>
      <point x="277" y="5"/>
      <point x="335" y="43" type="curve"/>
      <point x="338" y="43" type="line"/>
      <point x="357" y="5"/>
      <point x="388" y="-15"/>
      <point x="425" y="-15" type="curve" smooth="yes"/>
      <point x="451" y="-15"/>
      <point x="480" y="1"/>
      <point x="506" y="24" type="curve" smooth="yes"/>
      <point x="513" y="30"/>
      <point x="518" y="38"/>
      <point x="518" y="44" type="curve" smooth="yes"/>
      <point x="518" y="50"/>
      <point x="512" y="57"/>
      <point x="503" y="57" type="curve" smooth="yes"/>
      <point x="499" y="57"/>
      <point x="496" y="54"/>
      <point x="490" y="48" type="curve" smooth="yes"/>
      <point x="479" y="39"/>
      <point x="467" y="35"/>
      <point x="447" y="35" type="curve" smooth="yes"/>
      <point x="419" y="35"/>
      <point x="401" y="53"/>
      <point x="402" y="80" type="curve" smooth="yes"/>
      <point x="409" y="325" type="line" smooth="yes"/>
      <point x="410" y="377"/>
      <point x="364" y="415"/>
      <point x="301" y="415" type="curve" smooth="yes"/>
      <point x="248" y="415"/>
      <point x="165" y="385"/>
      <point x="106" y="344" type="curve" smooth="yes"/>
      <point x="73" y="322"/>
      <point x="52" y="295"/>
      <point x="52" y="274" type="curve" smooth="yes"/>
      <point x="52" y="269"/>
      <point x="56" y="265"/>
      <point x="64" y="265" type="curve" smooth="yes"/>
      <point x="85" y="265"/>
      <point x="133" y="290"/>
      <point x="133" y="300" type="curve" smooth="yes"/>
      <point x="133" y="305"/>
      <point x="132" y="313"/>
      <point x="132" y="315" type="curve" smooth="yes"/>
      <point x="132" y="329"/>
      <point x="136" y="338"/>
      <point x="149" y="344" type="curve" smooth="yes"/>
      <point x="170" y="354"/>
      <point x="203" y="361"/>
      <point x="237" y="361" type="curve" smooth="yes"/>
      <point x="299" y="361"/>
      <point x="335" y="336"/>
      <point x="334" y="304" type="curve" smooth="yes"/>
      <point x="331" y="251" type="line" smooth="yes"/>
      <point x="330" y="223"/>
      <point x="329" y="220"/>
      <point x="295" y="209" type="curve" smooth="yes"/>
      <point x="141" y="164" type="line" smooth="yes"/>
      <point x="76" y="144"/>
      <point x="47" y="119"/>
      <point x="47" y="74" type="curve" smooth="yes"/>
      <point x="47" y="33"/>
      <point x="111" y="-15"/>
    </contour>
    <contour>
      <point x="212" y="41" type="curve" smooth="yes"/>
      <point x="166" y="41"/>
      <point x="132" y="58"/>
      <point x="132" y="91" type="curve" smooth="yes"/>
      <point x="132" y="117"/>
      <point x="159" y="140"/>
      <point x="285" y="167" type="curve" smooth="yes"/>
      <point x="303" y="171"/>
      <point x="312" y="171"/>
      <point x="318" y="171" type="curve" smooth="yes"/>
      <point x="330" y="171"/>
      <point x="332" y="166"/>
      <point x="332" y="152" type="curve" smooth="yes"/>
      <point x="330" y="100" type="line" smooth="yes"/>
      <point x="329" y="79"/>
      <point x="319" y="70"/>
      <point x="307" y="63" type="curve" smooth="yes"/>
      <point x="283" y="49"/>
      <point x="252" y="41"/>
    </contour>
  </outline>
</glyph>
<glyph name="b" format="1">
  <advance width="661"/>
  <unicode hex="0062"/>
  <outline>
    <contour>
      <point x="328" y="-14" type="curve" smooth="yes"/>
      <point x="499" y="-14"/>
      <point x="616" y="80"/>
      <point x="616" y="217" type="curve" smooth="yes"/>
      <point x="616" y="328"/>
      <point x="513" y="414"/>
      <point x="381" y="414" type="curve" smooth="yes"/>
      <point x="324" y="414"/>
      <point x="244" y="389"/>
      <point x="169" y="355" type="curve"/>
      <point x="161" y="356"/>
      <point x="159" y="362"/>
      <point x="159" y="388" type="curve" smooth="yes"/>
      <point x="159" y="593" type="line" smooth="yes"/>
      <point x="159" y="649"/>
      <point x="162" y="693"/>
      <point x="162" y="698" type="curve" smooth="yes"/>
      <point x="162" y="702"/>
      <point x="159" y="705"/>
      <point x="155" y="705" type="curve" smooth="yes"/>
      <point x="153" y="705"/>
      <point x="150" y="705"/>
      <point x="145" y="702" type="curve" smooth="yes"/>
      <point x="127" y="693"/>
      <point x="63" y="676"/>
      <point x="35" y="670" type="curve" smooth="yes"/>
      <point x="27" y="669"/>
      <point x="21" y="664"/>
      <point x="21" y="657" type="curve" smooth="yes"/>
      <point x="21" y="651"/>
      <point x="28" y="643"/>
      <point x="35" y="641" type="curve" smooth="yes"/>
      <point x="75" y="630"/>
      <point x="85" y="619"/>
      <point x="85" y="578" type="curve" smooth="yes"/>
      <point x="85" y="81" type="line" smooth="yes"/>
      <point x="85" y="56"/>
      <point x="76" y="21"/>
      <point x="76" y="9" type="curve" smooth="yes"/>
      <point x="76" y="2"/>
      <point x="83" y="-4"/>
      <point x="90" y="-4" type="curve" smooth="yes"/>
      <point x="93" y="-4"/>
      <point x="96" y="-1"/>
      <point x="99" y="2" type="curve" smooth="yes"/>
      <point x="106" y="9"/>
      <point x="116" y="15"/>
      <point x="127" y="15" type="curve" smooth="yes"/>
      <point x="137" y="15"/>
      <point x="173" y="7"/>
      <point x="212" y="-1" type="curve" smooth="yes"/>
      <point x="247" y="-8"/>
      <point x="289" y="-14"/>
    </contour>
    <contour>
      <point x="358" y="24" type="curve" smooth="yes"/>
      <point x="254" y="24"/>
      <point x="159" y="64"/>
      <point x="159" y="132" type="curve" smooth="yes"/>
      <point x="159" y="316" type="line"/>
      <point x="201" y="341"/>
      <point x="259" y="359"/>
      <point x="336" y="359" type="curve" smooth="yes"/>
      <point x="476" y="359"/>
      <point x="537" y="271"/>
      <point x="537" y="192" type="curve" smooth="yes"/>
      <point x="537" y="97"/>
      <point x="469" y="24"/>
    </contour>
  </outline>
</glyph>
<glyph name="c" format="1">
  <advance width="524"/>
  <unicode hex="0063"/>
  <outline>
    <contour>
      <point x="279" y="-15" type="curve" smooth="yes"/>
      <point x="358" y="-15"/>
      <point x="422" y="7"/>
      <point x="463" y="49" type="curve" smooth="yes"/>
      <point x="477" y="62"/>
      <point x="485" y="78"/>
      <point x="485" y="87" type="curve" smooth="yes"/>
      <point x="485" y="94"/>
      <point x="482" y="98"/>
      <point x="476" y="98" type="curve" smooth="yes"/>
      <point x="473" y="98"/>
      <point x="468" y="96"/>
      <point x="464" y="93" type="curve" smooth="yes"/>
      <point x="420" y="59"/>
      <point x="385" y="48"/>
      <point x="330" y="48" type="curve" smooth="yes"/>
      <point x="211" y="48"/>
      <point x="118" y="119"/>
      <point x="118" y="209" type="curve" smooth="yes"/>
      <point x="118" y="307"/>
      <point x="181" y="375"/>
      <point x="270" y="375" type="curve" smooth="yes"/>
      <point x="309" y="375"/>
      <point x="354" y="352"/>
      <point x="389" y="329" type="curve" smooth="yes"/>
      <point x="412" y="319"/>
      <point x="427" y="311"/>
      <point x="439" y="311" type="curve" smooth="yes"/>
      <point x="458" y="311"/>
      <point x="486" y="333"/>
      <point x="486" y="354" type="curve" smooth="yes"/>
      <point x="486" y="366"/>
      <point x="479" y="374"/>
      <point x="469" y="380" type="curve" smooth="yes"/>
      <point x="428" y="403"/>
      <point x="372" y="415"/>
      <point x="316" y="415" type="curve" smooth="yes"/>
      <point x="163" y="415"/>
      <point x="45" y="310"/>
      <point x="45" y="180" type="curve" smooth="yes"/>
      <point x="45" y="69"/>
      <point x="146" y="-15"/>
    </contour>
  </outline>
</glyph>
<glyph name="d" format="1">
  <advance width="661"/>
  <unicode hex="0064"/>
  <outline>
    <contour>
      <point x="506" y="-19" type="curve" smooth="yes"/>
      <point x="512" y="-19"/>
      <point x="517" y="-16"/>
      <point x="529" y="-10" type="curve" smooth="yes"/>
      <point x="570" y="7"/>
      <point x="606" y="17"/>
      <point x="637" y="20" type="curve" smooth="yes"/>
      <point x="649" y="21"/>
      <point x="658" y="31"/>
      <point x="658" y="44" type="curve" smooth="yes"/>
      <point x="658" y="53"/>
      <point x="651" y="57"/>
      <point x="637" y="56" type="curve" smooth="yes"/>
      <point x="619" y="54"/>
      <point x="603" y="53"/>
      <point x="596" y="53" type="curve" smooth="yes"/>
      <point x="580" y="53"/>
      <point x="575" y="75"/>
      <point x="575" y="108" type="curve" smooth="yes"/>
      <point x="575" y="562" type="line" smooth="yes"/>
      <point x="575" y="652"/>
      <point x="582" y="686"/>
      <point x="581" y="698" type="curve" smooth="yes"/>
      <point x="580" y="702"/>
      <point x="578" y="704"/>
      <point x="574" y="704" type="curve" smooth="yes"/>
      <point x="571" y="704"/>
      <point x="566" y="703"/>
      <point x="561" y="701" type="curve" smooth="yes"/>
      <point x="533" y="692"/>
      <point x="500" y="683"/>
      <point x="446" y="671" type="curve" smooth="yes"/>
      <point x="436" y="668"/>
      <point x="432" y="663"/>
      <point x="432" y="656" type="curve" smooth="yes"/>
      <point x="432" y="650"/>
      <point x="437" y="643"/>
      <point x="445" y="641" type="curve" smooth="yes"/>
      <point x="484" y="631"/>
      <point x="501" y="623"/>
      <point x="501" y="576" type="curve" smooth="yes"/>
      <point x="501" y="424" type="line" smooth="yes"/>
      <point x="501" y="406"/>
      <point x="495" y="400"/>
      <point x="491" y="400" type="curve" smooth="yes"/>
      <point x="486" y="400"/>
      <point x="481" y="401"/>
      <point x="472" y="403" type="curve" smooth="yes"/>
      <point x="451" y="408"/>
      <point x="407" y="414"/>
      <point x="369" y="414" type="curve" smooth="yes"/>
      <point x="167" y="414"/>
      <point x="45" y="306"/>
      <point x="45" y="190" type="curve" smooth="yes"/>
      <point x="45" y="89"/>
      <point x="147" y="-14"/>
      <point x="311" y="-14" type="curve" smooth="yes"/>
      <point x="406" y="-14"/>
      <point x="471" y="28"/>
      <point x="499" y="59" type="curve"/>
      <point x="499" y="51" type="line" smooth="yes"/>
      <point x="499" y="34"/>
      <point x="492" y="4"/>
      <point x="492" y="-9" type="curve" smooth="yes"/>
      <point x="492" y="-12"/>
      <point x="501" y="-19"/>
    </contour>
    <contour>
      <point x="354" y="38" type="curve" smooth="yes"/>
      <point x="286" y="38"/>
      <point x="123" y="65"/>
      <point x="123" y="212" type="curve" smooth="yes"/>
      <point x="123" y="342"/>
      <point x="241" y="375"/>
      <point x="312" y="375" type="curve" smooth="yes"/>
      <point x="472" y="375"/>
      <point x="501" y="342"/>
      <point x="501" y="280" type="curve" smooth="yes"/>
      <point x="499" y="89" type="line"/>
      <point x="462" y="61"/>
      <point x="407" y="38"/>
    </contour>
  </outline>
</glyph>
<glyph name="e" format="1">
  <advance width="510"/>
  <unicode hex="0065"/>
  <outline>
    <contour>
      <point x="279" y="-16" type="curve" smooth="yes"/>
      <point x="344" y="-16"/>
      <point x="407" y="4"/>
      <point x="447" y="39" type="curve" smooth="yes"/>
      <point x="468" y="55"/>
      <point x="481" y="75"/>
      <point x="481" y="96" type="curve" smooth="yes"/>
      <point x="481" y="103"/>
      <point x="478" y="108"/>
      <point x="470" y="108" type="curve" smooth="yes"/>
      <point x="464" y="108"/>
      <point x="462" y="107"/>
      <point x="452" y="95" type="curve" smooth="yes"/>
      <point x="420" y="63"/>
      <point x="372" y="45"/>
      <point x="318" y="45" type="curve" smooth="yes"/>
      <point x="192" y="45"/>
      <point x="106" y="120"/>
      <point x="106" y="214" type="curve" smooth="yes"/>
      <point x="106" y="242"/>
      <point x="115" y="250"/>
      <point x="141" y="250" type="curve" smooth="yes"/>
      <point x="432" y="250" type="line" smooth="yes"/>
      <point x="459" y="250"/>
      <point x="471" y="260"/>
      <point x="471" y="283" type="curve" smooth="yes"/>
      <point x="471" y="362"/>
      <point x="399" y="415"/>
      <point x="292" y="415" type="curve" smooth="yes"/>
      <point x="151" y="415"/>
      <point x="39" y="321"/>
      <point x="39" y="203" type="curve" smooth="yes"/>
      <point x="39" y="72"/>
      <point x="135" y="-16"/>
    </contour>
    <contour>
      <point x="147" y="282" type="line" smooth="yes"/>
      <point x="135" y="282"/>
      <point x="129" y="285"/>
      <point x="129" y="292" type="curve" smooth="yes"/>
      <point x="129" y="332"/>
      <point x="207" y="378"/>
      <point x="274" y="378" type="curve" smooth="yes"/>
      <point x="348" y="378"/>
      <point x="400" y="347"/>
      <point x="400" y="309" type="curve" smooth="yes"/>
      <point x="400" y="295"/>
      <point x="397" y="288"/>
      <point x="388" y="287" type="curve" smooth="yes"/>
      <point x="356" y="283"/>
      <point x="326" y="282"/>
      <point x="280" y="282" type="curve" smooth="yes"/>
    </contour>
  </outline>
</glyph>
<glyph name="f" format="1">
  <advance width="405"/>
  <unicode hex="0066"/>
  <outline>
    <contour>
      <point x="55" y="-4" type="curve" smooth="yes"/>
      <point x="103" y="-4"/>
      <point x="105" y="1"/>
      <point x="147" y="1" type="curve" smooth="yes"/>
      <point x="189" y="1"/>
      <point x="213" y="-4"/>
      <point x="261" y="-4" type="curve" smooth="yes"/>
      <point x="274" y="-4"/>
      <point x="285" y="-2"/>
      <point x="285" y="8" type="curve" smooth="yes"/>
      <point x="285" y="20"/>
      <point x="272" y="24"/>
      <point x="255" y="28" type="curve" smooth="yes"/>
      <point x="199" y="36"/>
      <point x="181" y="42"/>
      <point x="181" y="73" type="curve" smooth="yes"/>
      <point x="181" y="340" type="line" smooth="yes"/>
      <point x="181" y="346"/>
      <point x="185" y="350"/>
      <point x="206" y="350" type="curve" smooth="yes"/>
      <point x="328" y="350" type="line" smooth="yes"/>
      <point x="338" y="350"/>
      <point x="346" y="353"/>
      <point x="350" y="359" type="curve" smooth="yes"/>
      <point x="355" y="366"/>
      <point x="362" y="384"/>
      <point x="362" y="391" type="curve" smooth="yes"/>
      <point x="362" y="395"/>
      <point x="354" y="400"/>
      <point x="345" y="400" type="curve" smooth="yes"/>
      <point x="195" y="400" type="line" smooth="yes"/>
      <point x="187" y="400"/>
      <point x="181" y="402"/>
      <point x="181" y="410" type="curve" smooth="yes"/>
      <point x="181" y="498" type="line" smooth="yes"/>
      <point x="181" y="606"/>
      <point x="246" y="661"/>
      <point x="327" y="661" type="curve" smooth="yes"/>
      <point x="386" y="661"/>
      <point x="413" y="645"/>
      <point x="440" y="623" type="curve" smooth="yes"/>
      <point x="457" y="611"/>
      <point x="473" y="599"/>
      <point x="489" y="599" type="curve" smooth="yes"/>
      <point x="515" y="599"/>
      <point x="538" y="613"/>
      <point x="538" y="637" type="curve" smooth="yes"/>
      <point x="538" y="677"/>
      <point x="491" y="706"/>
      <point x="394" y="706" type="curve" smooth="yes"/>
      <point x="275" y="706"/>
      <point x="108" y="654"/>
      <point x="108" y="431" type="curve" smooth="yes"/>
      <point x="108" y="406" type="line"/>
      <point x="82" y="398"/>
      <point x="65" y="388"/>
      <point x="43" y="377" type="curve" smooth="yes"/>
      <point x="37" y="373"/>
      <point x="31" y="369"/>
      <point x="31" y="364" type="curve" smooth="yes"/>
      <point x="31" y="359"/>
      <point x="44" y="350"/>
      <point x="49" y="350" type="curve" smooth="yes"/>
      <point x="76" y="349"/>
      <point x="91" y="349"/>
      <point x="108" y="349" type="curve"/>
      <point x="108" y="73" type="line" smooth="yes"/>
      <point x="108" y="42"/>
      <point x="90" y="34"/>
      <point x="61" y="28" type="curve" smooth="yes"/>
      <point x="44" y="24"/>
      <point x="31" y="20"/>
      <point x="31" y="8" type="curve" smooth="yes"/>
      <point x="31" y="-2"/>
      <point x="42" y="-4"/>
    </contour>
  </outline>
</glyph>
<glyph name="g" format="1">
  <advance width="569"/>
  <unicode hex="0067"/>
  <outline>
    <contour>
      <point x="255" y="-290" type="curve" smooth="yes"/>
      <point x="397" y="-290"/>
      <point x="547" y="-180"/>
      <point x="547" y="-77" type="curve" smooth="yes"/>
      <point x="547" y="-15"/>
      <point x="470" y="17"/>
      <point x="309" y="25" type="curve" smooth="yes"/>
      <point x="200" y="30"/>
      <point x="120" y="42"/>
      <point x="124" y="74" type="curve" smooth="yes"/>
      <point x="124" y="88"/>
      <point x="160" y="110"/>
      <point x="202" y="123" type="curve"/>
      <point x="153" y="144" type="line"/>
      <point x="140" y="125"/>
      <point x="135" y="121"/>
      <point x="80" y="84" type="curve" smooth="yes"/>
      <point x="61" y="70"/>
      <point x="52" y="58"/>
      <point x="52" y="44" type="curve" smooth="yes"/>
      <point x="52" y="-7"/>
      <point x="107" y="-29"/>
      <point x="271" y="-38" type="curve" smooth="yes"/>
      <point x="423" y="-45"/>
      <point x="482" y="-56"/>
      <point x="482" y="-108" type="curve" smooth="yes"/>
      <point x="482" y="-153"/>
      <point x="453" y="-195"/>
      <point x="407" y="-219" type="curve" smooth="yes"/>
      <point x="375" y="-237"/>
      <point x="327" y="-246"/>
      <point x="269" y="-246" type="curve" smooth="yes"/>
      <point x="169" y="-246"/>
      <point x="94" y="-208"/>
      <point x="94" y="-153" type="curve" smooth="yes"/>
      <point x="94" y="-101"/>
      <point x="126" y="-69"/>
      <point x="212" y="-29" type="curve"/>
      <point x="166" y="-14" type="line"/>
      <point x="124" y="-44"/>
      <point x="81" y="-72"/>
      <point x="57" y="-90" type="curve" smooth="yes"/>
      <point x="27" y="-110"/>
      <point x="14" y="-133"/>
      <point x="14" y="-170" type="curve" smooth="yes"/>
      <point x="14" y="-244"/>
      <point x="106" y="-290"/>
    </contour>
    <contour>
      <point x="272" y="147" type="curve" smooth="yes"/>
      <point x="190" y="147"/>
      <point x="126" y="195"/>
      <point x="126" y="269" type="curve" smooth="yes"/>
      <point x="126" y="332"/>
      <point x="189" y="379"/>
      <point x="261" y="379" type="curve" smooth="yes"/>
      <point x="345" y="379"/>
      <point x="405" y="340"/>
      <point x="405" y="274" type="curve" smooth="yes"/>
      <point x="405" y="199"/>
      <point x="349" y="147"/>
    </contour>
    <contour>
      <point x="263" y="106" type="curve" smooth="yes"/>
      <point x="377" y="106"/>
      <point x="472" y="188"/>
      <point x="472" y="285" type="curve" smooth="yes"/>
      <point x="472" y="302"/>
      <point x="475" y="322"/>
      <point x="479" y="333" type="curve" smooth="yes"/>
      <point x="482" y="338"/>
      <point x="495" y="342"/>
      <point x="518" y="342" type="curve" smooth="yes"/>
      <point x="553" y="342" type="line" smooth="yes"/>
      <point x="556" y="342"/>
      <point x="560" y="344"/>
      <point x="564" y="348" type="curve" smooth="yes"/>
      <point x="571" y="355"/>
      <point x="577" y="363"/>
      <point x="577" y="370" type="curve" smooth="yes"/>
      <point x="577" y="380"/>
      <point x="569" y="387"/>
      <point x="560" y="387" type="curve" smooth="yes"/>
      <point x="547" y="387"/>
      <point x="509" y="385"/>
      <point x="488" y="385" type="curve" smooth="yes"/>
      <point x="462" y="385"/>
      <point x="442" y="386"/>
      <point x="400" y="395" type="curve" smooth="yes"/>
      <point x="363" y="403"/>
      <point x="329" y="416"/>
      <point x="278" y="416" type="curve" smooth="yes"/>
      <point x="159" y="416"/>
      <point x="51" y="351"/>
      <point x="51" y="258" type="curve" smooth="yes"/>
      <point x="51" y="176"/>
      <point x="155" y="106"/>
    </contour>
  </outline>
</glyph>
<glyph name="h" format="1">
  <advance width="678"/>
  <unicode hex="0068"/>
  <outline>
    <contour>
      <point x="46" y="-3" type="curve" smooth="yes"/>
      <point x="90" y="-3"/>
      <point x="96" y="3"/>
      <point x="135" y="3" type="curve" smooth="yes"/>
      <point x="173" y="3"/>
      <point x="177" y="-3"/>
      <point x="221" y="-3" type="curve" smooth="yes"/>
      <point x="237" y="-3"/>
      <point x="243" y="1"/>
      <point x="243" y="11" type="curve" smooth="yes"/>
      <point x="243" y="20"/>
      <point x="234" y="25"/>
      <point x="217" y="30" type="curve" smooth="yes"/>
      <point x="195" y="36"/>
      <point x="171" y="42"/>
      <point x="171" y="68" type="curve" smooth="yes"/>
      <point x="171" y="277" type="line" smooth="yes"/>
      <point x="171" y="303"/>
      <point x="178" y="314"/>
      <point x="197" y="325" type="curve" smooth="yes"/>
      <point x="234" y="342"/>
      <point x="295" y="353"/>
      <point x="356" y="353" type="curve" smooth="yes"/>
      <point x="438" y="353"/>
      <point x="502" y="317"/>
      <point x="502" y="260" type="curve" smooth="yes"/>
      <point x="502" y="68" type="line" smooth="yes"/>
      <point x="502" y="42"/>
      <point x="478" y="36"/>
      <point x="456" y="30" type="curve" smooth="yes"/>
      <point x="440" y="26"/>
      <point x="430" y="20"/>
      <point x="430" y="9" type="curve" smooth="yes"/>
      <point x="430" y="-1"/>
      <point x="440" y="-3"/>
      <point x="452" y="-3" type="curve" smooth="yes"/>
      <point x="495" y="-3"/>
      <point x="501" y="3"/>
      <point x="539" y="3" type="curve" smooth="yes"/>
      <point x="578" y="3"/>
      <point x="583" y="-3"/>
      <point x="626" y="-3" type="curve" smooth="yes"/>
      <point x="639" y="-3"/>
      <point x="648" y="-1"/>
      <point x="648" y="9" type="curve" smooth="yes"/>
      <point x="648" y="21"/>
      <point x="637" y="25"/>
      <point x="623" y="30" type="curve" smooth="yes"/>
      <point x="601" y="37"/>
      <point x="576" y="42"/>
      <point x="576" y="68" type="curve" smooth="yes"/>
      <point x="576" y="277" type="line" smooth="yes"/>
      <point x="576" y="355"/>
      <point x="504" y="414"/>
      <point x="408" y="414" type="curve" smooth="yes"/>
      <point x="307" y="414"/>
      <point x="220" y="368"/>
      <point x="164" y="341" type="curve"/>
      <point x="183" y="343" type="line"/>
      <point x="174" y="358"/>
      <point x="171" y="361"/>
      <point x="171" y="388" type="curve" smooth="yes"/>
      <point x="171" y="562" type="line" smooth="yes"/>
      <point x="171" y="669"/>
      <point x="180" y="686"/>
      <point x="180" y="698" type="curve" smooth="yes"/>
      <point x="180" y="702"/>
      <point x="177" y="705"/>
      <point x="173" y="705" type="curve" smooth="yes"/>
      <point x="171" y="705"/>
      <point x="169" y="704"/>
      <point x="167" y="703" type="curve"/>
      <point x="131" y="690"/>
      <point x="77" y="677"/>
      <point x="51" y="671" type="curve" smooth="yes"/>
      <point x="40" y="668"/>
      <point x="38" y="663"/>
      <point x="38" y="656" type="curve" smooth="yes"/>
      <point x="38" y="647"/>
      <point x="41" y="641"/>
      <point x="51" y="640" type="curve" smooth="yes"/>
      <point x="86" y="635"/>
      <point x="98" y="613"/>
      <point x="98" y="587" type="curve" smooth="yes"/>
      <point x="98" y="68" type="line" smooth="yes"/>
      <point x="98" y="42"/>
      <point x="72" y="35"/>
      <point x="50" y="30" type="curve" smooth="yes"/>
      <point x="32" y="25"/>
      <point x="25" y="22"/>
      <point x="25" y="11" type="curve" smooth="yes"/>
      <point x="25" y="1"/>
      <point x="33" y="-3"/>
    </contour>
  </outline>
</glyph>
<glyph name="i" format="1">
  <advance width="276"/>
  <unicode hex="0069"/>
  <outline>
    <contour>
      <point x="53" y="-3" type="curve" smooth="yes"/>
      <point x="96" y="-3"/>
      <point x="103" y="2"/>
      <point x="141" y="2" type="curve" smooth="yes"/>
      <point x="179" y="4"/>
      <point x="187" y="-3"/>
      <point x="229" y="-3" type="curve" smooth="yes"/>
      <point x="243" y="-3"/>
      <point x="251" y="1"/>
      <point x="251" y="11" type="curve" smooth="yes"/>
      <point x="251" y="21"/>
      <point x="240" y="26"/>
      <point x="225" y="30" type="curve" smooth="yes"/>
      <point x="198" y="37"/>
      <point x="178" y="44"/>
      <point x="178" y="71" type="curve" smooth="yes"/>
      <point x="178" y="297" type="line" smooth="yes"/>
      <point x="178" y="338"/>
      <point x="186" y="404"/>
      <point x="186" y="422" type="curve" smooth="yes"/>
      <point x="186" y="427"/>
      <point x="183" y="433"/>
      <point x="177" y="433" type="curve" smooth="yes"/>
      <point x="171" y="433"/>
      <point x="163" y="429"/>
      <point x="158" y="424" type="curve" smooth="yes"/>
      <point x="138" y="407"/>
      <point x="111" y="390"/>
      <point x="56" y="378" type="curve" smooth="yes"/>
      <point x="48" y="377"/>
      <point x="45" y="372"/>
      <point x="45" y="365" type="curve" smooth="yes"/>
      <point x="45" y="358"/>
      <point x="49" y="352"/>
      <point x="57" y="350" type="curve" smooth="yes"/>
      <point x="91" y="343"/>
      <point x="104" y="320"/>
      <point x="104" y="279" type="curve" smooth="yes"/>
      <point x="104" y="71" type="line" smooth="yes"/>
      <point x="104" y="43"/>
      <point x="84" y="37"/>
      <point x="57" y="30" type="curve" smooth="yes"/>
      <point x="43" y="26"/>
      <point x="31" y="22"/>
      <point x="31" y="11" type="curve" smooth="yes"/>
      <point x="31" y="1"/>
      <point x="40" y="-3"/>
    </contour>
    <contour>
      <point x="140" y="516" type="curve" smooth="yes"/>
      <point x="170" y="516"/>
      <point x="193" y="538"/>
      <point x="193" y="566" type="curve" smooth="yes"/>
      <point x="193" y="595"/>
      <point x="170" y="617"/>
      <point x="140" y="617" type="curve" smooth="yes"/>
      <point x="111" y="617"/>
      <point x="88" y="595"/>
      <point x="88" y="566" type="curve" smooth="yes"/>
      <point x="88" y="538"/>
      <point x="111" y="516"/>
    </contour>
  </outline>
</glyph>
<glyph name="j" format="1">
  <advance width="247"/>
  <unicode hex="006A"/>
  <outline>
    <contour>
      <point x="2" y="-287" type="curve" smooth="yes"/>
      <point x="43" y="-287"/>
      <point x="107" y="-220"/>
      <point x="132" y="-152" type="curve" smooth="yes"/>
      <point x="161" y="-72"/>
      <point x="162" y="29"/>
      <point x="162" y="91" type="curve" smooth="yes"/>
      <point x="162" y="275" type="line" smooth="yes"/>
      <point x="162" y="320"/>
      <point x="165" y="388"/>
      <point x="169" y="429" type="curve"/>
      <point x="169" y="432"/>
      <point x="166" y="434"/>
      <point x="162" y="434" type="curve" smooth="yes"/>
      <point x="160" y="434"/>
      <point x="156" y="430"/>
      <point x="149" y="426" type="curve" smooth="yes"/>
      <point x="130" y="413"/>
      <point x="99" y="388"/>
      <point x="42" y="378" type="curve" smooth="yes"/>
      <point x="33" y="377"/>
      <point x="30" y="369"/>
      <point x="30" y="365" type="curve" smooth="yes"/>
      <point x="30" y="357"/>
      <point x="34" y="352"/>
      <point x="42" y="350" type="curve" smooth="yes"/>
      <point x="78" y="342"/>
      <point x="89" y="320"/>
      <point x="89" y="285" type="curve" smooth="yes"/>
      <point x="89" y="59" type="line" smooth="yes"/>
      <point x="89" y="-8"/>
      <point x="86" y="-140"/>
      <point x="57" y="-199" type="curve" smooth="yes"/>
      <point x="38" y="-238"/>
      <point x="15" y="-230"/>
      <point x="-6" y="-236" type="curve" smooth="yes"/>
      <point x="-16" y="-238"/>
      <point x="-29" y="-252"/>
      <point x="-29" y="-266" type="curve" smooth="yes"/>
      <point x="-29" y="-279"/>
      <point x="-10" y="-287"/>
    </contour>
    <contour>
      <point x="118" y="516" type="curve" smooth="yes"/>
      <point x="148" y="516"/>
      <point x="170" y="538"/>
      <point x="170" y="566" type="curve" smooth="yes"/>
      <point x="170" y="595"/>
      <point x="148" y="617"/>
      <point x="118" y="617" type="curve" smooth="yes"/>
      <point x="89" y="617"/>
      <point x="66" y="595"/>
      <point x="66" y="566" type="curve" smooth="yes"/>
      <point x="66" y="538"/>
      <point x="89" y="516"/>
    </contour>
  </outline>
</glyph>
<glyph name="k" format="1">
  <advance width="613"/>
  <unicode hex="006B"/>
  <outline>
    <contour>
      <point x="54" y="-3" type="curve" smooth="yes"/>
      <point x="97" y="-3"/>
      <point x="102" y="3"/>
      <point x="140" y="3" type="curve" smooth="yes"/>
      <point x="179" y="3"/>
      <point x="174" y="-3"/>
      <point x="217" y="-3" type="curve" smooth="yes"/>
      <point x="224" y="-3"/>
      <point x="248" y="-2"/>
      <point x="248" y="11" type="curve" smooth="yes"/>
      <point x="248" y="23"/>
      <point x="233" y="27"/>
      <point x="218" y="31" type="curve" smooth="yes"/>
      <point x="190" y="37"/>
      <point x="172" y="47"/>
      <point x="172" y="78" type="curve" smooth="yes"/>
      <point x="172" y="105"/>
      <point x="171" y="124"/>
      <point x="171" y="140" type="curve" smooth="yes"/>
      <point x="171" y="163"/>
      <point x="171" y="180"/>
      <point x="173" y="199" type="curve"/>
      <point x="173" y="204"/>
      <point x="176" y="206"/>
      <point x="180" y="206" type="curve" smooth="yes"/>
      <point x="186" y="206"/>
      <point x="189" y="204"/>
      <point x="195" y="199" type="curve" smooth="yes"/>
      <point x="390" y="57" type="line"/>
      <point x="395" y="53"/>
      <point x="398" y="49"/>
      <point x="398" y="45" type="curve" smooth="yes"/>
      <point x="398" y="37"/>
      <point x="383" y="32"/>
      <point x="359" y="29" type="curve" smooth="yes"/>
      <point x="348" y="26"/>
      <point x="338" y="22"/>
      <point x="338" y="13" type="curve" smooth="yes"/>
      <point x="338" y="8"/>
      <point x="343" y="1"/>
      <point x="361" y="1" type="curve" smooth="yes"/>
      <point x="451" y="1"/>
      <point x="529" y="-3"/>
      <point x="597" y="-3" type="curve" smooth="yes"/>
      <point x="613" y="-3"/>
      <point x="623" y="0"/>
      <point x="623" y="10" type="curve" smooth="yes"/>
      <point x="623" y="21"/>
      <point x="606" y="26"/>
      <point x="589" y="30" type="curve" smooth="yes"/>
      <point x="553" y="37"/>
      <point x="515" y="53"/>
      <point x="479" y="81" type="curve" smooth="yes"/>
      <point x="451" y="100"/>
      <point x="347" y="169"/>
      <point x="277" y="222" type="curve" smooth="yes"/>
      <point x="275" y="224"/>
      <point x="273" y="227"/>
      <point x="273" y="229" type="curve" smooth="yes"/>
      <point x="273" y="232"/>
      <point x="276" y="236"/>
      <point x="281" y="239" type="curve" smooth="yes"/>
      <point x="343" y="282"/>
      <point x="453" y="339"/>
      <point x="473" y="350" type="curve" smooth="yes"/>
      <point x="497" y="361"/>
      <point x="520" y="371"/>
      <point x="551" y="378" type="curve" smooth="yes"/>
      <point x="568" y="382"/>
      <point x="583" y="389"/>
      <point x="583" y="398" type="curve" smooth="yes"/>
      <point x="583" y="405"/>
      <point x="576" y="409"/>
      <point x="564" y="409" type="curve" smooth="yes"/>
      <point x="539" y="409"/>
      <point x="489" y="400"/>
      <point x="449" y="400" type="curve" smooth="yes"/>
      <point x="382" y="400" type="line" smooth="yes"/>
      <point x="364" y="400"/>
      <point x="354" y="394"/>
      <point x="354" y="387" type="curve" smooth="yes"/>
      <point x="354" y="380"/>
      <point x="358" y="376"/>
      <point x="370" y="375" type="curve" smooth="yes"/>
      <point x="390" y="374"/>
      <point x="403" y="369"/>
      <point x="403" y="361" type="curve" smooth="yes"/>
      <point x="403" y="357"/>
      <point x="400" y="354"/>
      <point x="391" y="349" type="curve" smooth="yes"/>
      <point x="364" y="328"/>
      <point x="311" y="296"/>
      <point x="232" y="250" type="curve" smooth="yes"/>
      <point x="209" y="237"/>
      <point x="192" y="230"/>
      <point x="180" y="230" type="curve" smooth="yes"/>
      <point x="175" y="230"/>
      <point x="172" y="233"/>
      <point x="172" y="239" type="curve" smooth="yes"/>
      <point x="172" y="562" type="line" smooth="yes"/>
      <point x="172" y="647"/>
      <point x="184" y="682"/>
      <point x="184" y="696" type="curve" smooth="yes"/>
      <point x="184" y="702"/>
      <point x="182" y="705"/>
      <point x="176" y="705" type="curve" smooth="yes"/>
      <point x="172" y="705"/>
      <point x="168" y="703"/>
      <point x="161" y="700" type="curve" smooth="yes"/>
      <point x="132" y="688"/>
      <point x="97" y="679"/>
      <point x="57" y="671" type="curve" smooth="yes"/>
      <point x="46" y="670"/>
      <point x="40" y="665"/>
      <point x="38" y="656" type="curve" smooth="yes"/>
      <point x="38" y="646"/>
      <point x="42" y="642"/>
      <point x="53" y="640" type="curve" smooth="yes"/>
      <point x="91" y="634"/>
      <point x="99" y="619"/>
      <point x="99" y="573" type="curve" smooth="yes"/>
      <point x="99" y="77" type="line" smooth="yes"/>
      <point x="99" y="45"/>
      <point x="77" y="36"/>
      <point x="50" y="30" type="curve" smooth="yes"/>
      <point x="38" y="26"/>
      <point x="25" y="24"/>
      <point x="25" y="11" type="curve" smooth="yes"/>
      <point x="25" y="0"/>
      <point x="35" y="-3"/>
    </contour>
  </outline>
</glyph>
<glyph name="l" format="1">
  <advance width="268"/>
  <unicode hex="006C"/>
  <outline>
    <contour>
      <point x="45" y="-3" type="curve" smooth="yes"/>
      <point x="85" y="-3"/>
      <point x="99" y="2"/>
      <point x="135" y="2" type="curve" smooth="yes"/>
      <point x="170" y="2"/>
      <point x="183" y="-3"/>
      <point x="223" y="-3" type="curve" smooth="yes"/>
      <point x="230" y="-3"/>
      <point x="243" y="-2"/>
      <point x="243" y="8" type="curve" smooth="yes"/>
      <point x="243" y="20"/>
      <point x="231" y="26"/>
      <point x="220" y="29" type="curve" smooth="yes"/>
      <point x="194" y="36"/>
      <point x="171" y="42"/>
      <point x="171" y="72" type="curve" smooth="yes"/>
      <point x="171" y="562" type="line" smooth="yes"/>
      <point x="171" y="652"/>
      <point x="178" y="686"/>
      <point x="178" y="698" type="curve" smooth="yes"/>
      <point x="178" y="701"/>
      <point x="175" y="705"/>
      <point x="170" y="705" type="curve" smooth="yes"/>
      <point x="165" y="705"/>
      <point x="161" y="703"/>
      <point x="158" y="700" type="curve" smooth="yes"/>
      <point x="130" y="682"/>
      <point x="101" y="672"/>
      <point x="51" y="666" type="curve" smooth="yes"/>
      <point x="39" y="664"/>
      <point x="37" y="657"/>
      <point x="37" y="651" type="curve" smooth="yes"/>
      <point x="37" y="645"/>
      <point x="40" y="639"/>
      <point x="55" y="635" type="curve" smooth="yes"/>
      <point x="84" y="629"/>
      <point x="98" y="611"/>
      <point x="98" y="573" type="curve" smooth="yes"/>
      <point x="98" y="71" type="line" smooth="yes"/>
      <point x="98" y="40"/>
      <point x="68" y="34"/>
      <point x="48" y="29" type="curve" smooth="yes"/>
      <point x="37" y="25"/>
      <point x="25" y="20"/>
      <point x="25" y="8" type="curve" smooth="yes"/>
      <point x="25" y="-2"/>
      <point x="38" y="-3"/>
    </contour>
  </outline>
</glyph>
<glyph name="m" format="1">
  <advance width="997"/>
  <unicode hex="006D"/>
  <outline>
    <contour>
      <point x="54" y="-3" type="curve" smooth="yes"/>
      <point x="98" y="-3"/>
      <point x="103" y="2"/>
      <point x="141" y="2" type="curve" smooth="yes"/>
      <point x="179" y="2"/>
      <point x="184" y="-3"/>
      <point x="228" y="-3" type="curve" smooth="yes"/>
      <point x="241" y="-3"/>
      <point x="251" y="1"/>
      <point x="251" y="10" type="curve" smooth="yes"/>
      <point x="251" y="21"/>
      <point x="239" y="26"/>
      <point x="224" y="29" type="curve" smooth="yes"/>
      <point x="202" y="34"/>
      <point x="178" y="39"/>
      <point x="178" y="68" type="curve" smooth="yes"/>
      <point x="178" y="264" type="line" smooth="yes"/>
      <point x="178" y="301"/>
      <point x="186" y="316"/>
      <point x="218" y="330" type="curve" smooth="yes"/>
      <point x="254" y="348"/>
      <point x="296" y="355"/>
      <point x="346" y="355" type="curve" smooth="yes"/>
      <point x="410" y="355"/>
      <point x="464" y="312"/>
      <point x="464" y="268" type="curve" smooth="yes"/>
      <point x="464" y="68" type="line" smooth="yes"/>
      <point x="464" y="39"/>
      <point x="438" y="35"/>
      <point x="416" y="29" type="curve" smooth="yes"/>
      <point x="401" y="26"/>
      <point x="390" y="22"/>
      <point x="390" y="10" type="curve" smooth="yes"/>
      <point x="390" y="1"/>
      <point x="399" y="-3"/>
      <point x="412" y="-3" type="curve" smooth="yes"/>
      <point x="455" y="-3"/>
      <point x="463" y="2"/>
      <point x="501" y="2" type="curve" smooth="yes"/>
      <point x="540" y="2"/>
      <point x="547" y="-3"/>
      <point x="590" y="-3" type="curve" smooth="yes"/>
      <point x="604" y="-3"/>
      <point x="612" y="1"/>
      <point x="612" y="10" type="curve" smooth="yes"/>
      <point x="612" y="20"/>
      <point x="603" y="26"/>
      <point x="587" y="29" type="curve" smooth="yes"/>
      <point x="564" y="34"/>
      <point x="537" y="39"/>
      <point x="537" y="68" type="curve" smooth="yes"/>
      <point x="538" y="264" type="line" smooth="yes"/>
      <point x="538" y="298"/>
      <point x="549" y="316"/>
      <point x="578" y="330" type="curve" smooth="yes"/>
      <point x="615" y="348"/>
      <point x="655" y="355"/>
      <point x="704" y="355" type="curve" smooth="yes"/>
      <point x="766" y="355"/>
      <point x="820" y="312"/>
      <point x="820" y="268" type="curve" smooth="yes"/>
      <point x="820" y="68" type="line" smooth="yes"/>
      <point x="820" y="41"/>
      <point x="795" y="35"/>
      <point x="773" y="29" type="curve" smooth="yes"/>
      <point x="757" y="25"/>
      <point x="747" y="22"/>
      <point x="747" y="10" type="curve" smooth="yes"/>
      <point x="747" y="1"/>
      <point x="756" y="-3"/>
      <point x="769" y="-3" type="curve" smooth="yes"/>
      <point x="812" y="-3"/>
      <point x="820" y="2"/>
      <point x="859" y="2" type="curve" smooth="yes"/>
      <point x="897" y="2"/>
      <point x="902" y="-3"/>
      <point x="945" y="-3" type="curve" smooth="yes"/>
      <point x="961" y="-3"/>
      <point x="967" y="1"/>
      <point x="967" y="10" type="curve" smooth="yes"/>
      <point x="967" y="20"/>
      <point x="957" y="24"/>
      <point x="941" y="29" type="curve" smooth="yes"/>
      <point x="919" y="36"/>
      <point x="894" y="41"/>
      <point x="894" y="68" type="curve" smooth="yes"/>
      <point x="894" y="275" type="line" smooth="yes"/>
      <point x="894" y="345"/>
      <point x="847" y="414"/>
      <point x="758" y="414" type="curve" smooth="yes"/>
      <point x="670" y="414"/>
      <point x="596" y="383"/>
      <point x="538" y="345" type="curve"/>
      <point x="533" y="345" type="line"/>
      <point x="505" y="396"/>
      <point x="463" y="414"/>
      <point x="398" y="414" type="curve" smooth="yes"/>
      <point x="294" y="414"/>
      <point x="226" y="376"/>
      <point x="186" y="347" type="curve"/>
      <point x="183" y="347" type="line"/>
      <point x="182" y="348"/>
      <point x="181" y="353"/>
      <point x="181" y="359" type="curve" smooth="yes"/>
      <point x="181" y="378"/>
      <point x="186" y="410"/>
      <point x="186" y="419" type="curve" smooth="yes"/>
      <point x="186" y="425"/>
      <point x="182" y="430"/>
      <point x="177" y="430" type="curve" smooth="yes"/>
      <point x="171" y="430"/>
      <point x="167" y="426"/>
      <point x="161" y="422" type="curve" smooth="yes"/>
      <point x="136" y="402"/>
      <point x="107" y="388"/>
      <point x="63" y="379" type="curve" smooth="yes"/>
      <point x="55" y="376"/>
      <point x="50" y="370"/>
      <point x="50" y="364" type="curve" smooth="yes"/>
      <point x="50" y="356"/>
      <point x="54" y="352"/>
      <point x="62" y="349" type="curve" smooth="yes"/>
      <point x="93" y="342"/>
      <point x="104" y="322"/>
      <point x="104" y="278" type="curve" smooth="yes"/>
      <point x="104" y="68" type="line" smooth="yes"/>
      <point x="104" y="39"/>
      <point x="80" y="34"/>
      <point x="58" y="29" type="curve" smooth="yes"/>
      <point x="42" y="26"/>
      <point x="31" y="21"/>
      <point x="31" y="10" type="curve" smooth="yes"/>
      <point x="31" y="-1"/>
      <point x="42" y="-3"/>
    </contour>
  </outline>
</glyph>
<glyph name="n" format="1">
  <advance width="689"/>
  <unicode hex="006E"/>
  <outline>
    <contour>
      <point x="53" y="-3" type="curve" smooth="yes"/>
      <point x="96" y="-3"/>
      <point x="103" y="3"/>
      <point x="141" y="3" type="curve" smooth="yes"/>
      <point x="179" y="3"/>
      <point x="186" y="-3"/>
      <point x="229" y="-3" type="curve" smooth="yes"/>
      <point x="243" y="-3"/>
      <point x="251" y="1"/>
      <point x="251" y="10" type="curve" smooth="yes"/>
      <point x="251" y="20"/>
      <point x="243" y="24"/>
      <point x="225" y="29" type="curve" smooth="yes"/>
      <point x="203" y="34"/>
      <point x="178" y="40"/>
      <point x="178" y="66" type="curve" smooth="yes"/>
      <point x="178" y="289" type="line" smooth="yes"/>
      <point x="178" y="297"/>
      <point x="183" y="308"/>
      <point x="190" y="313" type="curve" smooth="yes"/>
      <point x="232" y="340"/>
      <point x="292" y="356"/>
      <point x="369" y="356" type="curve" smooth="yes"/>
      <point x="455" y="356"/>
      <point x="513" y="317"/>
      <point x="513" y="257" type="curve" smooth="yes"/>
      <point x="513" y="66" type="line" smooth="yes"/>
      <point x="513" y="40"/>
      <point x="487" y="35"/>
      <point x="465" y="29" type="curve" smooth="yes"/>
      <point x="451" y="24"/>
      <point x="439" y="20"/>
      <point x="439" y="8" type="curve" smooth="yes"/>
      <point x="439" y="-1"/>
      <point x="451" y="-3"/>
      <point x="461" y="-3" type="curve" smooth="yes"/>
      <point x="505" y="-3"/>
      <point x="512" y="3"/>
      <point x="550" y="3" type="curve" smooth="yes"/>
      <point x="588" y="3"/>
      <point x="594" y="-3"/>
      <point x="638" y="-3" type="curve" smooth="yes"/>
      <point x="648" y="-3"/>
      <point x="659" y="-1"/>
      <point x="659" y="8" type="curve" smooth="yes"/>
      <point x="659" y="20"/>
      <point x="648" y="24"/>
      <point x="634" y="29" type="curve" smooth="yes"/>
      <point x="612" y="35"/>
      <point x="586" y="40"/>
      <point x="586" y="66" type="curve" smooth="yes"/>
      <point x="586" y="260" type="line" smooth="yes"/>
      <point x="586" y="346"/>
      <point x="516" y="414"/>
      <point x="420" y="414" type="curve" smooth="yes"/>
      <point x="327" y="414"/>
      <point x="252" y="392"/>
      <point x="183" y="347" type="curve"/>
      <point x="182" y="349"/>
      <point x="181" y="359"/>
      <point x="181" y="368" type="curve" smooth="yes"/>
      <point x="181" y="386"/>
      <point x="186" y="412"/>
      <point x="186" y="422" type="curve" smooth="yes"/>
      <point x="186" y="427"/>
      <point x="184" y="430"/>
      <point x="181" y="430" type="curve" smooth="yes"/>
      <point x="177" y="430"/>
      <point x="174" y="428"/>
      <point x="170" y="425" type="curve" smooth="yes"/>
      <point x="142" y="405"/>
      <point x="111" y="389"/>
      <point x="64" y="379" type="curve" smooth="yes"/>
      <point x="55" y="378"/>
      <point x="50" y="373"/>
      <point x="50" y="364" type="curve" smooth="yes"/>
      <point x="50" y="355"/>
      <point x="56" y="351"/>
      <point x="65" y="348" type="curve" smooth="yes"/>
      <point x="95" y="340"/>
      <point x="104" y="317"/>
      <point x="104" y="277" type="curve" smooth="yes"/>
      <point x="104" y="66" type="line" smooth="yes"/>
      <point x="104" y="40"/>
      <point x="79" y="34"/>
      <point x="57" y="29" type="curve" smooth="yes"/>
      <point x="40" y="24"/>
      <point x="31" y="22"/>
      <point x="31" y="10" type="curve" smooth="yes"/>
      <point x="31" y="1"/>
      <point x="40" y="-3"/>
    </contour>
  </outline>
</glyph>
<glyph name="o" format="1">
  <advance width="646"/>
  <unicode hex="006F"/>
  <outline>
    <contour>
      <point x="306" y="-14" type="curve" smooth="yes"/>
      <point x="480" y="-14"/>
      <point x="601" y="79"/>
      <point x="601" y="213" type="curve" smooth="yes"/>
      <point x="601" y="324"/>
      <point x="480" y="414"/>
      <point x="332" y="414" type="curve" smooth="yes"/>
      <point x="181" y="414"/>
      <point x="45" y="306"/>
      <point x="45" y="187" type="curve" smooth="yes"/>
      <point x="45" y="72"/>
      <point x="156" y="-14"/>
    </contour>
    <contour>
      <point x="334" y="23" type="curve" smooth="yes"/>
      <point x="216" y="23"/>
      <point x="130" y="103"/>
      <point x="130" y="209" type="curve" smooth="yes"/>
      <point x="130" y="322"/>
      <point x="188" y="376"/>
      <point x="308" y="376" type="curve" smooth="yes"/>
      <point x="427" y="376"/>
      <point x="516" y="295"/>
      <point x="516" y="190" type="curve" smooth="yes"/>
      <point x="516" y="73"/>
      <point x="461" y="23"/>
    </contour>
  </outline>
</glyph>
<glyph name="p" format="1">
  <advance width="678"/>
  <unicode hex="0070"/>
  <outline>
    <contour>
      <point x="49" y="-285" type="curve" smooth="yes"/>
      <point x="92" y="-285"/>
      <point x="99" y="-281"/>
      <point x="137" y="-281" type="curve" smooth="yes"/>
      <point x="176" y="-281"/>
      <point x="191" y="-285"/>
      <point x="235" y="-285" type="curve" smooth="yes"/>
      <point x="248" y="-285"/>
      <point x="258" y="-281"/>
      <point x="258" y="-269" type="curve" smooth="yes"/>
      <point x="258" y="-263"/>
      <point x="248" y="-258"/>
      <point x="232" y="-254" type="curve" smooth="yes"/>
      <point x="209" y="-250"/>
      <point x="174" y="-244"/>
      <point x="174" y="-216" type="curve" smooth="yes"/>
      <point x="174" y="-33" type="line" smooth="yes"/>
      <point x="174" y="-27"/>
      <point x="175" y="18"/>
      <point x="179" y="18" type="curve"/>
      <point x="207" y="0"/>
      <point x="280" y="-14"/>
      <point x="319" y="-14" type="curve" smooth="yes"/>
      <point x="495" y="-14"/>
      <point x="633" y="106"/>
      <point x="633" y="225" type="curve" smooth="yes"/>
      <point x="633" y="319"/>
      <point x="548" y="414"/>
      <point x="404" y="414" type="curve" smooth="yes"/>
      <point x="316" y="414"/>
      <point x="203" y="367"/>
      <point x="176" y="348" type="curve"/>
      <point x="175" y="349"/>
      <point x="175" y="353"/>
      <point x="175" y="357" type="curve" smooth="yes"/>
      <point x="175" y="382"/>
      <point x="181" y="407"/>
      <point x="181" y="417" type="curve" smooth="yes"/>
      <point x="181" y="421"/>
      <point x="178" y="425"/>
      <point x="175" y="425" type="curve" smooth="yes"/>
      <point x="174" y="425"/>
      <point x="173" y="424"/>
      <point x="171" y="424" type="curve"/>
      <point x="138" y="411"/>
      <point x="97" y="399"/>
      <point x="53" y="389" type="curve" smooth="yes"/>
      <point x="44" y="388"/>
      <point x="39" y="382"/>
      <point x="39" y="374" type="curve" smooth="yes"/>
      <point x="39" y="366"/>
      <point x="46" y="360"/>
      <point x="55" y="358" type="curve" smooth="yes"/>
      <point x="90" y="353"/>
      <point x="100" y="321"/>
      <point x="100" y="297" type="curve" smooth="yes"/>
      <point x="100" y="-216" type="line" smooth="yes"/>
      <point x="100" y="-239"/>
      <point x="75" y="-248"/>
      <point x="52" y="-254" type="curve" smooth="yes"/>
      <point x="37" y="-258"/>
      <point x="27" y="-263"/>
      <point x="27" y="-269" type="curve" smooth="yes"/>
      <point x="27" y="-281"/>
      <point x="36" y="-285"/>
    </contour>
    <contour>
      <point x="353" y="25" type="curve" smooth="yes"/>
      <point x="224" y="25"/>
      <point x="174" y="59"/>
      <point x="174" y="166" type="curve" smooth="yes"/>
      <point x="174" y="188"/>
      <point x="177" y="254"/>
      <point x="177" y="308" type="curve" smooth="yes"/>
      <point x="177" y="325"/>
      <point x="259" y="358"/>
      <point x="343" y="358" type="curve" smooth="yes"/>
      <point x="471" y="358"/>
      <point x="549" y="315"/>
      <point x="549" y="191" type="curve" smooth="yes"/>
      <point x="549" y="81"/>
      <point x="454" y="25"/>
    </contour>
  </outline>
</glyph>
<glyph name="q" format="1">
  <advance width="682"/>
  <unicode hex="0071"/>
  <outline>
    <contour>
      <point x="477" y="-285" type="curve" smooth="yes"/>
      <point x="520" y="-285"/>
      <point x="527" y="-280"/>
      <point x="565" y="-280" type="curve" smooth="yes"/>
      <point x="604" y="-280"/>
      <point x="616" y="-285"/>
      <point x="660" y="-285" type="curve" smooth="yes"/>
      <point x="670" y="-285"/>
      <point x="682" y="-283"/>
      <point x="682" y="-272" type="curve" smooth="yes"/>
      <point x="682" y="-263"/>
      <point x="671" y="-258"/>
      <point x="656" y="-253" type="curve" smooth="yes"/>
      <point x="633" y="-246"/>
      <point x="602" y="-245"/>
      <point x="602" y="-214" type="curve" smooth="yes"/>
      <point x="602" y="295" type="line" smooth="yes"/>
      <point x="602" y="352"/>
      <point x="618" y="398"/>
      <point x="618" y="411" type="curve" smooth="yes"/>
      <point x="618" y="416"/>
      <point x="603" y="421"/>
      <point x="593" y="421" type="curve" smooth="yes"/>
      <point x="588" y="421"/>
      <point x="582" y="419"/>
      <point x="579" y="413" type="curve" smooth="yes"/>
      <point x="571" y="402"/>
      <point x="564" y="389"/>
      <point x="546" y="389" type="curve" smooth="yes"/>
      <point x="534" y="389"/>
      <point x="467" y="414"/>
      <point x="379" y="414" type="curve" smooth="yes"/>
      <point x="181" y="414"/>
      <point x="45" y="319"/>
      <point x="45" y="178" type="curve" smooth="yes"/>
      <point x="45" y="53"/>
      <point x="171" y="-14"/>
      <point x="328" y="-14" type="curve" smooth="yes"/>
      <point x="403" y="-14"/>
      <point x="484" y="26"/>
      <point x="507" y="41" type="curve" smooth="yes"/>
      <point x="512" y="44"/>
      <point x="516" y="43"/>
      <point x="520" y="43" type="curve" smooth="yes"/>
      <point x="526" y="43"/>
      <point x="528" y="36"/>
      <point x="528" y="13" type="curve" smooth="yes"/>
      <point x="528" y="-214" type="line" smooth="yes"/>
      <point x="528" y="-238"/>
      <point x="506" y="-244"/>
      <point x="482" y="-253" type="curve" smooth="yes"/>
      <point x="467" y="-257"/>
      <point x="455" y="-262"/>
      <point x="455" y="-274" type="curve" smooth="yes"/>
      <point x="455" y="-283"/>
      <point x="467" y="-285"/>
    </contour>
    <contour>
      <point x="367" y="44" type="curve" smooth="yes"/>
      <point x="256" y="44"/>
      <point x="130" y="76"/>
      <point x="130" y="199" type="curve" smooth="yes"/>
      <point x="130" y="306"/>
      <point x="234" y="364"/>
      <point x="344" y="364" type="curve" smooth="yes"/>
      <point x="491" y="364"/>
      <point x="524" y="326"/>
      <point x="528" y="265" type="curve" smooth="yes"/>
      <point x="529" y="240"/>
      <point x="529" y="116"/>
      <point x="529" y="82" type="curve"/>
      <point x="503" y="65"/>
      <point x="434" y="44"/>
    </contour>
  </outline>
</glyph>
